<?xml version="1.0" encoding="UTF-8" standalone="no"?>
<!-- Created with Inkscape (http://www.inkscape.org/) -->

<svg
   xmlns:dc="http://purl.org/dc/elements/1.1/"
   xmlns:cc="http://creativecommons.org/ns#"
   xmlns:rdf="http://www.w3.org/1999/02/22-rdf-syntax-ns#"
   xmlns:svg="http://www.w3.org/2000/svg"
   xmlns="http://www.w3.org/2000/svg"
   xmlns:sodipodi="http://sodipodi.sourceforge.net/DTD/sodipodi-0.dtd"
   xmlns:inkscape="http://www.inkscape.org/namespaces/inkscape"
   width="16"
   height="16"
   viewBox="0 0 16 16"
   version="1.1"
   id="svg8"
   inkscape:version="0.92.4 (5da689c313, 2019-01-14)"
   sodipodi:docname="16x16.svg">
  <defs
     id="defs2">
    <clipPath
       clipPathUnits="userSpaceOnUse"
       id="clipPath883">
      <path
         inkscape:connector-curvature="0"
         id="path885"
         d="m 12,279.99998 a 4,3.9999948 0 0 0 -4,4 4,3.9999948 0 0 0 4,4 3.9999895,3.9999895 0 0 1 3.003906,-3.87109 4.9999962,4.9999895 0 0 1 -0.0039,-0.12891 4.9999962,4.9999895 0 0 1 0.4375,-2.03711 4,3.9999948 0 0 0 -3.4375,-1.96289 z m 8,0 a 4,3.9999948 0 0 0 -4,4 3.9999895,3.9999895 0 0 1 3.871094,3.00391 4.9999962,4.9999895 0 0 1 0.128906,-0.004 4.9999962,4.9999895 0 0 1 2.037109,0.4375 4,3.9999948 0 0 0 1.962891,-3.4375 4,3.9999948 0 0 0 -4,-4 z m -4,5 a 2.9999895,2.9999895 0 0 0 -3,3 2.9999895,2.9999895 0 0 0 3,3 2.9999895,2.9999895 0 0 0 3,-3 2.9999895,2.9999895 0 0 0 -3,-3 z m 4,3 a 3.9999895,3.9999895 0 0 1 -3.003906,3.87109 4.9999962,4.9999895 0 0 1 0.0039,0.12891 4.9999962,4.9999895 0 0 1 -0.4375,2.03711 4,3.9999948 0 0 0 3.4375,1.96289 4,3.9999948 0 0 0 4,-4 4,3.9999948 0 0 0 -4,-4 z m -10.037109,0.5625 A 4,3.9999948 0 0 0 8,291.99998 a 4,3.9999948 0 0 0 4,4 4,3.9999948 0 0 0 4,-4 3.9999895,3.9999895 0 0 1 -3.871094,-3.00391 4.9999962,4.9999895 0 0 1 -0.128906,0.004 4.9999962,4.9999895 0 0 1 -2.037109,-0.4375 z"
         style="opacity:1;fill:#000000;fill-opacity:1;stroke:none;stroke-width:2;stroke-linecap:butt;stroke-linejoin:miter;stroke-miterlimit:4;stroke-dasharray:none;stroke-opacity:1;paint-order:stroke fill markers" />
    </clipPath>
  </defs>
  <sodipodi:namedview
     id="base"
     pagecolor="#ffffff"
     bordercolor="#666666"
     borderopacity="1.0"
     inkscape:pageopacity="0.0"
     inkscape:pageshadow="2"
     inkscape:zoom="16"
     inkscape:cx="11.821806"
     inkscape:cy="4.7881546"
     inkscape:document-units="px"
     inkscape:current-layer="layer1"
     showgrid="false"
     units="px"
     inkscape:window-width="1366"
     inkscape:window-height="706"
     inkscape:window-x="-8"
     inkscape:window-y="-8"
     inkscape:window-maximized="1"
     inkscape:snap-bbox="true"
     inkscape:bbox-paths="true"
     inkscape:bbox-nodes="true"
     inkscape:snap-bbox-edge-midpoints="true"
     inkscape:snap-bbox-midpoints="true"
     inkscape:snap-intersection-paths="true"
     inkscape:object-paths="true"
     inkscape:snap-smooth-nodes="true"
     inkscape:snap-midpoints="true"
     inkscape:snap-object-midpoints="true"
     inkscape:snap-center="true"
     inkscape:snap-text-baseline="true"
     inkscape:snap-page="true"
     inkscape:pagecheckerboard="true">
    <inkscape:grid
       type="xygrid"
       id="grid3713"
       empspacing="4" />
  </sodipodi:namedview>
  <metadata
     id="metadata5">
    <rdf:RDF>
      <cc:Work
         rdf:about="">
        <dc:format>image/svg+xml</dc:format>
        <dc:type
           rdf:resource="http://purl.org/dc/dcmitype/StillImage" />
        <dc:title />
      </cc:Work>
    </rdf:RDF>
  </metadata>
  <g
     inkscape:label="Layer 1"
     inkscape:groupmode="layer"
     id="layer1"
     transform="translate(0,-1340)">
    <path
       style="opacity:1;fill:#000000;fill-opacity:1;stroke:none;stroke-width:2;stroke-linecap:butt;stroke-linejoin:miter;stroke-miterlimit:4;stroke-dasharray:none;stroke-opacity:1;paint-order:stroke fill markers"
       d="m 4,1340 a 4,3.9999948 0 0 0 -4,4 4,3.9999948 0 0 0 4,4 3.9999895,3.9999895 0 0 1 3.003906,-3.8711 4.9999962,4.9999895 0 0 1 -0.0039,-0.1289 4.9999962,4.9999895 0 0 1 0.4375,-2.0371 4,3.9999948 0 0 0 -3.4375,-1.9629 z m 8,0 a 4,3.9999948 0 0 0 -4,4 3.9999895,3.9999895 0 0 1 3.871094,3.0039 4.9999962,4.9999895 0 0 1 0.128906,0 4.9999962,4.9999895 0 0 1 2.037109,0.4375 4,3.9999948 0 0 0 1.962891,-3.4375 4,3.9999948 0 0 0 -4,-4 z m -4,5 a 2.9999895,2.9999895 0 0 0 -3,3 2.9999895,2.9999895 0 0 0 3,3 2.9999895,2.9999895 0 0 0 3,-3 2.9999895,2.9999895 0 0 0 -3,-3 z m 4,3 a 3.9999895,3.9999895 0 0 1 -3.003906,3.8711 4.9999962,4.9999895 0 0 1 0.0039,0.1289 4.9999962,4.9999895 0 0 1 -0.4375,2.0371 4,3.9999948 0 0 0 3.4375,1.9629 4,3.9999948 0 0 0 4,-4 4,3.9999948 0 0 0 -4,-4 z m -10.037109,0.5625 A 4,3.9999948 0 0 0 0,1352 a 4,3.9999948 0 0 0 4,4 4,3.9999948 0 0 0 4,-4 3.9999895,3.9999895 0 0 1 -3.871094,-3.0039 4.9999962,4.9999895 0 0 1 -0.128906,0 4.9999962,4.9999895 0 0 1 -2.037109,-0.4375 z"
       id="path824-6"
       inkscape:connector-curvature="0" />
  </g>
</svg>
