<?xml version="1.0" encoding="UTF-8" standalone="no"?>
<svg
   xmlns:dc="http://purl.org/dc/elements/1.1/"
   xmlns:cc="http://creativecommons.org/ns#"
   xmlns:rdf="http://www.w3.org/1999/02/22-rdf-syntax-ns#"
   xmlns:svg="http://www.w3.org/2000/svg"
   xmlns="http://www.w3.org/2000/svg"
   id="svg8"
   version="1.1"
   viewBox="0 0 128 128"
   height="128"
   width="128">
  <defs
     id="defs2" />
  <metadata
     id="metadata5">
    <rdf:RDF>
      <cc:Work
         rdf:about="">
        <dc:format>image/svg+xml</dc:format>
        <dc:type
           rdf:resource="http://purl.org/dc/dcmitype/StillImage" />
        <dc:title></dc:title>
      </cc:Work>
    </rdf:RDF>
  </metadata>
  <g
     transform="translate(0,-1228)"
     id="layer1">
    <path
       id="path1661"
       d="M 31.99998,1228 A 32,31.999958 0 0 0 -2.0010028e-5,1260 32,31.999958 0 0 0 31.99998,1292 a 31.999916,31.999916 0 0 1 24.0312,-30.9688 39.99997,39.999916 0 0 1 0,-1.0312 39.99997,39.999916 0 0 1 3.5,-16.2968 A 32,31.999958 0 0 0 31.99998,1228 Z m 64.00004,0 a 32,31.999958 0 0 0 -32.00004,32 31.999916,31.999916 0 0 1 30.96884,24.0312 39.99997,39.999916 0 0 1 1.0312,0 39.99997,39.999916 0 0 1 16.29678,3.5 32,31.999958 0 0 0 15.7032,-27.5 32,31.999958 0 0 0 -31.99998,-32 z m -32.00004,40 a 23.999916,23.999916 0 0 0 -24,24 23.999916,23.999916 0 0 0 24,24 23.999916,23.999916 0 0 0 24.00004,-24 23.999916,23.999916 0 0 0 -24.00004,-24 z m 32.00004,24 a 31.999916,31.999916 0 0 1 -24.03124,30.9688 39.99997,39.999916 0 0 1 0,1.0312 39.99997,39.999916 0 0 1 -3.5,16.2968 32,31.999958 0 0 0 27.50004,15.7032 32,31.999958 0 0 0 31.99998,-32 32,31.999958 0 0 0 -31.99998,-32 z m -80.29684,4.5 A 32,31.999958 0 0 0 -2.0010028e-5,1324 32,31.999958 0 0 0 31.99998,1356 a 32,31.999958 0 0 0 32,-32 31.999916,31.999916 0 0 1 -30.9688,-24.0312 39.99997,39.999916 0 0 1 -1.0312,0 39.99997,39.999916 0 0 1 -16.2968,-3.5 z"
       style="opacity:1;fill:#808080;fill-opacity:1;stroke:none;stroke-width:2;stroke-linecap:round;stroke-linejoin:round;stroke-miterlimit:4;stroke-dasharray:none;stroke-opacity:0.25;paint-order:stroke fill markers" />
  </g>
</svg>
