<?xml version="1.0" encoding="UTF-8" standalone="no"?>
<!-- Created with Inkscape (http://www.inkscape.org/) -->

<svg
   width="64"
   height="64"
   viewBox="0 0 64 64"
   version="1.1"
   id="svg8"
   inkscape:version="1.1 (c68e22c387, 2021-05-23)"
   sodipodi:docname="Enviro.svg"
   xmlns:inkscape="http://www.inkscape.org/namespaces/inkscape"
   xmlns:sodipodi="http://sodipodi.sourceforge.net/DTD/sodipodi-0.dtd"
   xmlns:xlink="http://www.w3.org/1999/xlink"
   xmlns="http://www.w3.org/2000/svg"
   xmlns:svg="http://www.w3.org/2000/svg"
   xmlns:rdf="http://www.w3.org/1999/02/22-rdf-syntax-ns#"
   xmlns:cc="http://creativecommons.org/ns#"
   xmlns:dc="http://purl.org/dc/elements/1.1/">
  <defs
     id="defs2">
    <linearGradient
       inkscape:collect="always"
       id="linearGradient988">
      <stop
         style="stop-color:#ffffff;stop-opacity:1;"
         offset="0"
         id="stop984" />
      <stop
         style="stop-color:#ffffff;stop-opacity:0.5"
         offset="1"
         id="stop986" />
    </linearGradient>
    <linearGradient
       inkscape:collect="always"
       id="linearGradient978">
      <stop
         style="stop-color:#000000;stop-opacity:1"
         offset="0"
         id="stop974" />
      <stop
         style="stop-color:#ffffff;stop-opacity:1"
         offset="1"
         id="stop976" />
    </linearGradient>
    <linearGradient
       inkscape:collect="always"
       id="linearGradient956">
      <stop
         style="stop-color:#ffffff;stop-opacity:1;"
         offset="0"
         id="stop952" />
      <stop
         style="stop-color:#cfcfcf;stop-opacity:1"
         offset="1"
         id="stop954" />
    </linearGradient>
    <linearGradient
       inkscape:collect="always"
       id="linearGradient938">
      <stop
         style="stop-color:#5f5f5f;stop-opacity:1"
         offset="0"
         id="stop934" />
      <stop
         id="stop903"
         offset="0.5"
         style="stop-color:#000000;stop-opacity:1" />
      <stop
         style="stop-color:#000000;stop-opacity:1"
         offset="1"
         id="stop936" />
    </linearGradient>
    <radialGradient
       inkscape:collect="always"
       xlink:href="#linearGradient3030"
       id="radialGradient3032-6"
       cx="512"
       cy="1240"
       fx="512"
       fy="1240"
       r="28"
       gradientTransform="matrix(1,0,0,0.14285714,-480,1174.8571)"
       gradientUnits="userSpaceOnUse" />
    <linearGradient
       inkscape:collect="always"
       id="linearGradient3030">
      <stop
         style="stop-color:#000000;stop-opacity:1;"
         offset="0"
         id="stop3026" />
      <stop
         style="stop-color:#000000;stop-opacity:0;"
         offset="1"
         id="stop3028" />
    </linearGradient>
    <radialGradient
       inkscape:collect="always"
       xlink:href="#linearGradient3081"
       id="radialGradient3177"
       cx="520"
       cy="1044"
       fx="520"
       fy="1044"
       r="28"
       gradientUnits="userSpaceOnUse"
       gradientTransform="matrix(2,0,0,2,-1008,-736.00002)" />
    <linearGradient
       inkscape:collect="always"
       id="linearGradient3081">
      <stop
         style="stop-color:#ff0000;stop-opacity:1"
         offset="0"
         id="stop3077" />
      <stop
         style="stop-color:#400000;stop-opacity:1"
         offset="1"
         id="stop3079" />
    </linearGradient>
    <clipPath
       clipPathUnits="userSpaceOnUse"
       id="clipPath3235">
      <path
         id="path3237"
         d="m 516,1264 -3.10156,10.8574 -9.86914,-5.4844 -5.65625,5.6563 5.48437,9.8691 L 492,1288 v 8 l 10.85742,3.1016 -5.48437,9.8691 5.65625,5.6563 9.86914,-5.4844 L 516,1320 h 8 l 3.10156,-10.8574 9.86914,5.4844 5.65625,-5.6563 -5.48437,-9.8691 L 548,1296 v -8 l -10.85742,-3.1016 5.48437,-9.8691 -5.65625,-5.6563 -9.86914,5.4844 L 524,1264 Z m 4,20 a 8,8 0 0 1 8,8 8,8 0 0 1 -8,8 8,8 0 0 1 -8,-8 8,8 0 0 1 8,-8 z"
         style="fill:#000000;fill-opacity:1;stroke:none;stroke-width:1px;stroke-linecap:butt;stroke-linejoin:miter;stroke-opacity:1"
         inkscape:connector-curvature="0" />
    </clipPath>
    <linearGradient
       inkscape:collect="always"
       xlink:href="#linearGradient3099"
       id="linearGradient3225"
       x1="520"
       y1="1264"
       x2="520"
       y2="1292"
       gradientUnits="userSpaceOnUse" />
    <linearGradient
       inkscape:collect="always"
       id="linearGradient3099">
      <stop
         style="stop-color:#ffffff;stop-opacity:1"
         offset="0"
         id="stop3095" />
      <stop
         style="stop-color:#ffffff;stop-opacity:0.5"
         offset="1"
         id="stop3097" />
    </linearGradient>
    <linearGradient
       inkscape:collect="always"
       xlink:href="#linearGradient3209"
       id="linearGradient3211"
       x1="520"
       y1="988"
       x2="520"
       y2="1044"
       gradientUnits="userSpaceOnUse"
       gradientTransform="translate(0,275.99998)" />
    <linearGradient
       inkscape:collect="always"
       id="linearGradient3209">
      <stop
         style="stop-color:#ffffff;stop-opacity:1;"
         offset="0"
         id="stop3205" />
      <stop
         style="stop-color:#bfbfbf;stop-opacity:1"
         offset="1"
         id="stop3207" />
    </linearGradient>
    <linearGradient
       inkscape:collect="always"
       xlink:href="#linearGradient1084"
       id="linearGradient866"
       x1="31.999998"
       y1="1300"
       x2="32"
       y2="1348"
       gradientUnits="userSpaceOnUse" />
    <radialGradient
       inkscape:collect="always"
       xlink:href="#linearGradient3030"
       id="radialGradient3032-6-9"
       cx="512"
       cy="1240"
       fx="512"
       fy="1240"
       r="28"
       gradientTransform="matrix(1,0,0,0.14285714,-480,1166.8571)"
       gradientUnits="userSpaceOnUse" />
    <linearGradient
       inkscape:collect="always"
       xlink:href="#linearGradient938"
       id="linearGradient940"
       x1="35.96154"
       y1="1296"
       x2="35.96154"
       y2="1352"
       gradientUnits="userSpaceOnUse" />
    <linearGradient
       inkscape:collect="always"
       xlink:href="#linearGradient956"
       id="linearGradient958"
       x1="42"
       y1="1300"
       x2="42"
       y2="1348"
       gradientUnits="userSpaceOnUse" />
    <linearGradient
       inkscape:collect="always"
       xlink:href="#linearGradient978"
       id="linearGradient980"
       x1="31.999998"
       y1="1304"
       x2="31.999998"
       y2="1344"
       gradientUnits="userSpaceOnUse" />
    <linearGradient
       inkscape:collect="always"
       xlink:href="#linearGradient988"
       id="linearGradient990"
       x1="32.000004"
       y1="1300"
       x2="32.000004"
       y2="1324"
       gradientUnits="userSpaceOnUse"
       gradientTransform="translate(0,-1292)" />
    <radialGradient
       inkscape:collect="always"
       xlink:href="#linearGradient3030"
       id="radialGradient3032-6-1"
       cx="512"
       cy="1240"
       fx="512"
       fy="1240"
       r="28"
       gradientTransform="matrix(1,0,0,0.14285714,-480,1174.8571)"
       gradientUnits="userSpaceOnUse" />
    <clipPath
       clipPathUnits="userSpaceOnUse"
       id="clipPath1226">
      <rect
         style="opacity:1;fill:#000000;fill-opacity:1;stroke:none;stroke-width:2;stroke-linecap:round;stroke-linejoin:round;stroke-miterlimit:4;stroke-dasharray:none;stroke-opacity:0.25;paint-order:stroke fill markers"
         id="rect1228"
         width="56"
         height="48"
         x="4"
         y="1300"
         rx="0"
         ry="0" />
    </clipPath>
    <clipPath
       clipPathUnits="userSpaceOnUse"
       id="clipPath1231">
      <rect
         style="opacity:1;fill:#000000;fill-opacity:1;stroke:none;stroke-width:2;stroke-linecap:round;stroke-linejoin:round;stroke-miterlimit:4;stroke-dasharray:none;stroke-opacity:0.25;paint-order:stroke fill markers"
         id="rect1233"
         width="56"
         height="48"
         x="4"
         y="1300"
         rx="0"
         ry="0" />
    </clipPath>
    <linearGradient
       id="linearGradient1084"
       inkscape:collect="always">
      <stop
         id="stop1080"
         offset="0"
         style="stop-color:#ff4040;stop-opacity:1" />
      <stop
         id="stop1082"
         offset="1"
         style="stop-color:#bf0000;stop-opacity:1" />
    </linearGradient>
  </defs>
  <sodipodi:namedview
     id="base"
     pagecolor="#ffffff"
     bordercolor="#666666"
     borderopacity="1.0"
     inkscape:pageopacity="0.0"
     inkscape:pageshadow="2"
     inkscape:zoom="5.6568542"
     inkscape:cx="42.956737"
     inkscape:cy="33.941126"
     inkscape:document-units="px"
     inkscape:current-layer="layer1"
     showgrid="false"
     units="px"
     inkscape:window-width="1366"
     inkscape:window-height="716"
     inkscape:window-x="-8"
     inkscape:window-y="-8"
     inkscape:window-maximized="1"
     inkscape:pagecheckerboard="true"
     inkscape:snap-bbox="true"
     inkscape:bbox-paths="true"
     inkscape:bbox-nodes="true"
     inkscape:snap-bbox-edge-midpoints="true"
     inkscape:snap-bbox-midpoints="true"
     inkscape:object-paths="true"
     inkscape:snap-intersection-paths="true"
     inkscape:snap-smooth-nodes="true"
     inkscape:snap-midpoints="true"
     inkscape:snap-object-midpoints="true"
     inkscape:snap-center="true"
     inkscape:snap-text-baseline="true"
     inkscape:snap-page="true">
    <inkscape:grid
       type="xygrid"
       id="grid3713"
       empspacing="4" />
  </sodipodi:namedview>
  <metadata
     id="metadata5">
    <rdf:RDF>
      <cc:Work
         rdf:about="">
        <dc:format>image/svg+xml</dc:format>
        <dc:type
           rdf:resource="http://purl.org/dc/dcmitype/StillImage" />
        <dc:title />
      </cc:Work>
    </rdf:RDF>
  </metadata>
  <g
     inkscape:label="Layer 1"
     inkscape:groupmode="layer"
     id="layer1"
     transform="translate(0,-1292)">
    <g
       id="g868"
       transform="translate(-80)">
      <ellipse
         style="opacity:0.25;fill:url(#radialGradient3032-6);fill-opacity:1;stroke:none;stroke-width:2;stroke-linecap:round;stroke-linejoin:round;stroke-miterlimit:4;stroke-dasharray:none;stroke-opacity:1;paint-order:stroke fill markers"
         id="path3024-7"
         cx="32"
         cy="1352"
         rx="28"
         ry="4" />
      <path
         inkscape:connector-curvature="0"
         id="path3145"
         d="m 28,1296 -3.10156,10.8574 -9.86914,-5.4844 -5.65625,5.6563 5.48437,9.8691 L 4,1320 v 8 l 10.85742,3.1016 -5.48437,9.8691 5.65625,5.6563 9.86914,-5.4844 L 28,1352 h 8 l 3.10156,-10.8574 9.86914,5.4844 5.65625,-5.6563 -5.48437,-9.8691 L 60,1328 v -8 l -10.85742,-3.1016 5.48437,-9.8691 -5.65625,-5.6563 -9.86914,5.4844 L 36,1296 Z m 4,20 a 8,8 0 0 1 8,8 8,8 0 0 1 -8,8 8,8 0 0 1 -8,-8 8,8 0 0 1 8,-8 z"
         style="fill:url(#radialGradient3177);fill-opacity:1;stroke:#000000;stroke-width:2;stroke-linecap:butt;stroke-linejoin:miter;stroke-miterlimit:4;stroke-dasharray:none;stroke-opacity:0.25" />
      <g
         transform="translate(-488,32)"
         clip-path="url(#clipPath3235)"
         id="g3231">
        <ellipse
           style="opacity:0.5;fill:url(#linearGradient3225);fill-opacity:1;stroke:none;stroke-width:0;stroke-linecap:butt;stroke-linejoin:miter;stroke-miterlimit:4;stroke-dasharray:none;stroke-opacity:1;paint-order:normal"
           id="path3217"
           cx="520"
           cy="1278"
           rx="28"
           ry="14" />
        <path
           id="path3215"
           d="m 516,1264 -3.10156,10.8574 -9.86914,-5.4844 -5.65625,5.6563 5.48437,9.8691 L 492,1288 v 8 l 10.85742,3.1016 -5.48437,9.8691 5.65625,5.6563 9.86914,-5.4844 L 516,1320 h 8 l 3.10156,-10.8574 9.86914,5.4844 5.65625,-5.6563 -5.48437,-9.8691 L 548,1296 v -8 l -10.85742,-3.1016 5.48437,-9.8691 -5.65625,-5.6563 -9.86914,5.4844 L 524,1264 Z m 4,20 a 8,8 0 0 1 8,8 8,8 0 0 1 -8,8 8,8 0 0 1 -8,-8 8,8 0 0 1 8,-8 z"
           style="opacity:0.25;fill:none;fill-opacity:1;stroke:#000000;stroke-width:6;stroke-linecap:butt;stroke-linejoin:miter;stroke-miterlimit:4;stroke-dasharray:none;stroke-opacity:1"
           inkscape:connector-curvature="0" />
        <path
           id="path3203"
           d="m 516,1264 -3.10156,10.8574 -9.86914,-5.4844 -5.65625,5.6563 5.48437,9.8691 L 492,1288 v 8 l 10.85742,3.1016 -5.48437,9.8691 5.65625,5.6563 9.86914,-5.4844 L 516,1320 h 8 l 3.10156,-10.8574 9.86914,5.4844 5.65625,-5.6563 -5.48437,-9.8691 L 548,1296 v -8 l -10.85742,-3.1016 5.48437,-9.8691 -5.65625,-5.6563 -9.86914,5.4844 L 524,1264 Z m 4,20 a 8,8 0 0 1 8,8 8,8 0 0 1 -8,8 8,8 0 0 1 -8,-8 8,8 0 0 1 8,-8 z"
           style="fill:none;fill-opacity:1;stroke:url(#linearGradient3211);stroke-width:4;stroke-linecap:butt;stroke-linejoin:miter;stroke-miterlimit:4;stroke-dasharray:none;stroke-opacity:1"
           inkscape:connector-curvature="0" />
      </g>
    </g>
    <path
       id="path856"
       d="m 27.999793,1376 h 7.99994 l 7.999941,27.9998 -7.999941,27.9998 h -7.99994 l -7.999941,-27.9998 z"
       style="fill:#000000;fill-opacity:1;fill-rule:nonzero;stroke:none"
       inkscape:connector-curvature="0" />
    <path
       id="path858"
       d="m 59.999556,1399.9998 v 7.9999 l -27.999793,8 -27.999793,-8 v -7.9999 l 27.999793,-7.9999 z"
       style="fill:#000000;fill-opacity:1;fill-rule:nonzero;stroke:none"
       inkscape:connector-curvature="0" />
    <path
       id="path860"
       d="m 48.959637,1381.3599 5.679958,5.68 -14.159895,25.4398 -25.439811,14.1599 -5.679958,-5.68 14.159895,-25.4398 z"
       style="fill:#000000;fill-opacity:1;fill-rule:nonzero;stroke:none"
       inkscape:connector-curvature="0" />
    <path
       id="path862"
       d="m 54.639595,1420.9596 -5.679958,5.68 -25.439811,-14.1599 -14.159895,-25.4398 5.679958,-5.68 25.439811,14.1599 z"
       style="fill:#000000;fill-opacity:1;fill-rule:nonzero;stroke:none"
       inkscape:connector-curvature="0" />
    <g
       id="g1052">
      <ellipse
         ry="4"
         rx="28"
         cy="1344"
         cx="32"
         id="path3024-7-3"
         style="opacity:0.25;fill:url(#radialGradient3032-6-9);fill-opacity:1;stroke:none;stroke-width:2;stroke-linecap:round;stroke-linejoin:round;stroke-miterlimit:4;stroke-dasharray:none;stroke-opacity:1;paint-order:stroke fill markers" />
      <ellipse
         ry="4"
         rx="28"
         cy="1352"
         cx="32"
         id="path3024-7-9"
         style="opacity:0.25;fill:url(#radialGradient3032-6-1);fill-opacity:1;stroke:none;stroke-width:2;stroke-linecap:round;stroke-linejoin:round;stroke-miterlimit:4;stroke-dasharray:none;stroke-opacity:1;paint-order:stroke fill markers" />
      <rect
         ry="0"
         rx="0"
         y="1300"
         x="4"
         height="48"
         width="56"
         id="rect858"
         style="opacity:1;fill:url(#linearGradient866);fill-opacity:1.0;stroke:#000000;stroke-width:2;stroke-linecap:round;stroke-linejoin:round;stroke-miterlimit:4;stroke-dasharray:none;stroke-opacity:0.25;paint-order:stroke fill markers" />
      <path
         clip-path="url(#clipPath1231)"
         style="fill:url(#linearGradient958);fill-opacity:1;stroke:none;stroke-width:2;stroke-linecap:butt;stroke-linejoin:miter;stroke-miterlimit:4;stroke-dasharray:none;stroke-opacity:0.25"
         d="m 48,1296 -3.10156,10.8574 -9.86914,-5.4844 -5.65625,5.6563 5.48437,9.8691 L 24,1320 v 8 l 10.85742,3.1016 -5.48437,9.8691 5.65625,5.6563 9.86914,-5.4844 L 48,1352 h 8 l 3.10156,-10.8574 9.86914,5.4844 5.65625,-5.6563 -5.48437,-9.8691 L 80,1328 v -8 l -10.85742,-3.1016 5.48437,-9.8691 -5.65625,-5.6563 -9.86914,5.4844 L 56,1296 Z m 4,20 a 8,8 0 0 1 8,8 8,8 0 0 1 -8,8 8,8 0 0 1 -8,-8 8,8 0 0 1 8,-8 z"
         id="path3145-4"
         inkscape:connector-curvature="0" />
      <path
         id="rect982"
         transform="translate(0,1292)"
         d="M 4,8 V 30.064453 C 9.6338258,28.790825 20.35714,28.00019 32,28 c 11.656077,0.0018 22.38255,0.795621 28,2.072266 V 8 Z"
         style="opacity:0.5;fill:url(#linearGradient990);fill-opacity:1;stroke:none;stroke-width:4;stroke-linecap:butt;stroke-linejoin:miter;stroke-miterlimit:4;stroke-dasharray:none;stroke-opacity:1;paint-order:normal"
         inkscape:connector-curvature="0"
         sodipodi:nodetypes="cccccc" />
      <rect
         clip-path="url(#clipPath1226)"
         style="opacity:0.25;fill:none;fill-opacity:1;stroke:url(#linearGradient980);stroke-width:2;stroke-linecap:butt;stroke-linejoin:miter;stroke-miterlimit:4;stroke-dasharray:none;stroke-opacity:1;paint-order:stroke fill markers"
         id="rect944"
         width="56"
         height="48"
         x="4"
         y="1300"
         rx="0"
         ry="0" />
      <path
         sodipodi:nodetypes="cccccccccccc"
         inkscape:connector-curvature="0"
         id="path930"
         d="m 48,1296 -3.10156,10.8574 -9.86914,-5.4844 -5.65625,5.6563 5.48437,9.8691 L 24,1320 v 8 l 10.85742,3.1016 -5.48437,9.8691 5.65625,5.6563 9.86914,-5.4844 L 48,1352"
         style="fill:none;fill-opacity:1;stroke:url(#linearGradient940);stroke-width:4;stroke-linecap:butt;stroke-linejoin:miter;stroke-miterlimit:4;stroke-dasharray:none;stroke-opacity:1"
         clip-path="none" />
    </g>
  </g>
</svg>
