<?xml version="1.0" encoding="UTF-8" standalone="no"?>
<svg
   xmlns:dc="http://purl.org/dc/elements/1.1/"
   xmlns:cc="http://creativecommons.org/ns#"
   xmlns:rdf="http://www.w3.org/1999/02/22-rdf-syntax-ns#"
   xmlns:svg="http://www.w3.org/2000/svg"
   xmlns="http://www.w3.org/2000/svg"
   xmlns:sodipodi="http://sodipodi.sourceforge.net/DTD/sodipodi-0.dtd"
   xmlns:inkscape="http://www.inkscape.org/namespaces/inkscape"
   sodipodi:docname="LFTitlebarButtonClose.svg"
   inkscape:version="1.0 (4035a4fb49, 2020-05-01)"
   id="svg8"
   version="1.1"
   viewBox="0 0 12 12"
   height="12"
   width="12">
  <defs
     id="defs2" />
  <sodipodi:namedview
     inkscape:document-rotation="0"
     inkscape:snap-page="true"
     inkscape:snap-text-baseline="true"
     inkscape:snap-center="true"
     inkscape:snap-object-midpoints="true"
     inkscape:snap-midpoints="true"
     inkscape:snap-smooth-nodes="true"
     inkscape:object-nodes="true"
     inkscape:snap-intersection-paths="true"
     inkscape:object-paths="true"
     inkscape:snap-bbox-midpoints="true"
     inkscape:snap-bbox-edge-midpoints="true"
     inkscape:bbox-nodes="true"
     inkscape:bbox-paths="true"
     inkscape:snap-bbox="true"
     inkscape:pagecheckerboard="true"
     inkscape:window-maximized="1"
     inkscape:window-y="-8"
     inkscape:window-x="-8"
     inkscape:window-height="706"
     inkscape:window-width="1366"
     units="px"
     showgrid="false"
     inkscape:current-layer="layer1"
     inkscape:document-units="px"
     inkscape:cy="7.2137866"
     inkscape:cx="6.5589089"
     inkscape:zoom="1"
     inkscape:pageshadow="2"
     inkscape:pageopacity="0"
     borderopacity="1"
     bordercolor="#000000"
     pagecolor="#808080"
     id="base">
    <inkscape:grid
       empspacing="4"
       id="grid3713"
       type="xygrid" />
  </sodipodi:namedview>
  <metadata
     id="metadata5">
    <rdf:RDF>
      <cc:Work
         rdf:about="">
        <dc:format>image/svg+xml</dc:format>
        <dc:type
           rdf:resource="http://purl.org/dc/dcmitype/StillImage" />
        <dc:title></dc:title>
      </cc:Work>
    </rdf:RDF>
  </metadata>
  <g
     transform="translate(0,-1340)"
     id="layer1"
     inkscape:groupmode="layer"
     inkscape:label="Layer 1">
    <g
       id="g2208"
       transform="matrix(1.0000512,0,0,1,176.00886,1018.0001)">
      <path
         style="opacity:0.5;fill:#000000;fill-opacity:1;stroke:none;stroke-width:2;stroke-linecap:round;stroke-linejoin:round;stroke-miterlimit:4;stroke-dasharray:none;stroke-opacity:1;paint-order:stroke fill markers"
         d="m -171.98633,324.99996 a 1,1 0 0 0 -0.7207,0.29297 1,1 0 0 0 0,1.41406 1,1 0 0 0 0.0508,0.0488 l 1.24414,1.24414 -1.24414,1.24414 a 1,1 0 0 0 -0.0508,0.0488 1,1 0 0 0 0,1.41406 1,1 0 0 0 1.41406,0 l 1.29297,-1.29291 1.29297,1.29297 a 1,1 0 0 0 1.41406,0 1,1 0 0 0 0,-1.41406 1,1 0 0 0 -0.0508,-0.0488 l -1.24414,-1.24414 1.24414,-1.24414 a 1,1 0 0 0 0.0508,-0.0488 1,1 0 0 0 0,-1.41406 1,1 0 0 0 -0.7207,-0.29297 1,1 0 0 0 -0.69336,0.29297 L -170,326.5859 l -1.29297,-1.29297 a 1,1 0 0 0 -0.69336,-0.29297 z"
         id="path1145"
         inkscape:connector-curvature="0" />
      <path
         style="opacity:1;fill:#000000;fill-opacity:1;stroke:none;stroke-width:2;stroke-linecap:round;stroke-linejoin:round;stroke-miterlimit:4;stroke-dasharray:none;stroke-opacity:1;paint-order:stroke fill markers"
         d="m -171.98633,324.99996 a 1,1 0 0 0 -0.7207,0.29297 1,1 0 0 0 -0.1582,1.20703 1,1 0 0 1 0.1582,-0.20703 1,1 0 0 1 0.7207,-0.29297 1,1 0 0 1 0.69336,0.29297 l 1.29297,1.29297 1.29297,-1.29297 a 1,1 0 0 1 0.69336,-0.29297 1,1 0 0 1 0.7207,0.29297 1,1 0 0 1 0.1582,0.20703 1,1 0 0 0 -0.1582,-1.20703 1,1 0 0 0 -0.7207,-0.29297 1,1 0 0 0 -0.69336,0.29297 L -170,326.5859 l -1.29297,-1.29297 a 1,1 0 0 0 -0.69336,-0.29297 z m 0.0742,3.5 -0.74414,0.74414 a 1,1 0 0 0 -0.0508,0.0488 1,1 0 0 0 -0.1582,1.20703 1,1 0 0 1 0.1582,-0.20703 1,1 0 0 1 0.0508,-0.0488 l 1.24414,-1.24414 z m 3.82422,0 -0.5,0.5 1.24414,1.24414 a 1,1 0 0 1 0.0508,0.0488 1,1 0 0 1 0.1582,0.20703 1,1 0 0 0 -0.1582,-1.20703 1,1 0 0 0 -0.0508,-0.0488 z"
         id="path1159"
         inkscape:connector-curvature="0" />
    </g>
  </g>
</svg>
