<?xml version="1.0" encoding="UTF-8" standalone="no"?>
<svg
   xmlns:dc="http://purl.org/dc/elements/1.1/"
   xmlns:cc="http://creativecommons.org/ns#"
   xmlns:rdf="http://www.w3.org/1999/02/22-rdf-syntax-ns#"
   xmlns:svg="http://www.w3.org/2000/svg"
   xmlns="http://www.w3.org/2000/svg"
   xmlns:sodipodi="http://sodipodi.sourceforge.net/DTD/sodipodi-0.dtd"
   xmlns:inkscape="http://www.inkscape.org/namespaces/inkscape"
   inkscape:export-ydpi="96"
   inkscape:export-xdpi="96"
   inkscape:export-filename="G:\Poppy\Poppy DE\Resources\Fonts\Debug.png"
   width="752"
   height="16"
   viewBox="0 0 752 16"
   version="1.1"
   id="svg8"
   inkscape:version="1.0 (4035a4fb49, 2020-05-01)"
   sodipodi:docname="Debug.svg">
  <defs
     id="defs2">
    <inkscape:path-effect
       scale_width="1"
       lpeversion="0"
       effect="powerstroke"
       id="path-effect1492"
       is_visible="true"
       offset_points="2,0.5"
       sort_points="true"
       interpolator_type="CubicBezierFit"
       interpolator_beta="0.2"
       start_linecap_type="butt"
       linejoin_type="extrp_arc"
       miter_limit="4"
       end_linecap_type="butt" />
  </defs>
  <sodipodi:namedview
     inkscape:guide-bbox="true"
     showguides="true"
     id="base"
     pagecolor="#808080"
     bordercolor="#000000"
     borderopacity="1"
     inkscape:pageopacity="0"
     inkscape:pageshadow="2"
     inkscape:zoom="2"
     inkscape:cx="225.25871"
     inkscape:cy="51.276097"
     inkscape:document-units="px"
     inkscape:current-layer="layer1"
     showgrid="false"
     units="px"
     inkscape:window-width="1366"
     inkscape:window-height="706"
     inkscape:window-x="-8"
     inkscape:window-y="-8"
     inkscape:window-maximized="1"
     inkscape:snap-bbox="true"
     inkscape:bbox-paths="true"
     inkscape:bbox-nodes="true"
     inkscape:snap-bbox-edge-midpoints="true"
     inkscape:snap-bbox-midpoints="true"
     inkscape:object-paths="true"
     inkscape:snap-intersection-paths="true"
     inkscape:snap-smooth-nodes="true"
     inkscape:snap-midpoints="true"
     inkscape:snap-object-midpoints="true"
     inkscape:snap-center="true"
     inkscape:snap-text-baseline="true"
     inkscape:snap-page="true"
     inkscape:snap-tangential="true"
     inkscape:document-rotation="0"
     inkscape:pagecheckerboard="true">
    <inkscape:grid
       type="xygrid"
       id="grid3713"
       empspacing="4" />
    <sodipodi:guide
       id="guide838"
       orientation="0,-1"
       position="0,4" />
    <sodipodi:guide
       id="guide840"
       orientation="1,0"
       position="8,16" />
    <sodipodi:guide
       id="guide842"
       orientation="1,0"
       position="16,16" />
    <sodipodi:guide
       id="guide844"
       orientation="1,0"
       position="24,16" />
    <sodipodi:guide
       id="guide846"
       orientation="1,0"
       position="32,16" />
    <sodipodi:guide
       id="guide848"
       orientation="1,0"
       position="40,16" />
    <sodipodi:guide
       id="guide850"
       orientation="1,0"
       position="48,16" />
    <sodipodi:guide
       id="guide852"
       orientation="1,0"
       position="56,16" />
    <sodipodi:guide
       id="guide854"
       orientation="1,0"
       position="64,16" />
    <sodipodi:guide
       id="guide879"
       orientation="1,0"
       position="72,16" />
    <sodipodi:guide
       id="guide881"
       orientation="1,0"
       position="80,16" />
    <sodipodi:guide
       id="guide883"
       orientation="1,0"
       position="88,16" />
    <sodipodi:guide
       id="guide885"
       orientation="1,0"
       position="96,16" />
    <sodipodi:guide
       id="guide887"
       orientation="1,0"
       position="104,16" />
    <sodipodi:guide
       id="guide899"
       orientation="1,0"
       position="112,16" />
    <sodipodi:guide
       id="guide901"
       orientation="1,0"
       position="120,16" />
    <sodipodi:guide
       id="guide903"
       orientation="1,0"
       position="128,16" />
    <sodipodi:guide
       id="guide905"
       orientation="1,0"
       position="136,16" />
    <sodipodi:guide
       id="guide907"
       orientation="1,0"
       position="144,16" />
    <sodipodi:guide
       id="guide909"
       orientation="1,0"
       position="152,16" />
    <sodipodi:guide
       id="guide911"
       orientation="1,0"
       position="160,16" />
    <sodipodi:guide
       id="guide913"
       orientation="1,0"
       position="168,16" />
    <sodipodi:guide
       id="guide915"
       orientation="1,0"
       position="176,16" />
    <sodipodi:guide
       id="guide917"
       orientation="1,0"
       position="184,16" />
    <sodipodi:guide
       id="guide955"
       orientation="1,0"
       position="192,16" />
    <sodipodi:guide
       id="guide957"
       orientation="1,0"
       position="200,16" />
    <sodipodi:guide
       id="guide959"
       orientation="1,0"
       position="208,16" />
    <sodipodi:guide
       id="guide961"
       orientation="1,0"
       position="216,16" />
    <sodipodi:guide
       id="guide963"
       orientation="1,0"
       position="224,16" />
    <sodipodi:guide
       id="guide965"
       orientation="1,0"
       position="232,16" />
    <sodipodi:guide
       id="guide967"
       orientation="1,0"
       position="240,16" />
    <sodipodi:guide
       id="guide969"
       orientation="1,0"
       position="248,16" />
    <sodipodi:guide
       id="guide1003"
       orientation="1,0"
       position="256,16" />
    <sodipodi:guide
       id="guide1005"
       orientation="1,0"
       position="264,16" />
    <sodipodi:guide
       id="guide1007"
       orientation="1,0"
       position="272,16" />
    <sodipodi:guide
       id="guide1009"
       orientation="1,0"
       position="280,16" />
    <sodipodi:guide
       id="guide1011"
       orientation="1,0"
       position="288,16" />
    <sodipodi:guide
       id="guide1013"
       orientation="1,0"
       position="296,16" />
    <sodipodi:guide
       id="guide1015"
       orientation="1,0"
       position="304,16" />
    <sodipodi:guide
       id="guide1017"
       orientation="1,0"
       position="312,16" />
    <sodipodi:guide
       id="guide1019"
       orientation="1,0"
       position="320,16" />
    <sodipodi:guide
       id="guide1021"
       orientation="1,0"
       position="328,16" />
    <sodipodi:guide
       id="guide1023"
       orientation="1,0"
       position="336,16" />
    <sodipodi:guide
       id="guide1068"
       orientation="1,0"
       position="344,16" />
    <sodipodi:guide
       id="guide1070"
       orientation="1,0"
       position="352,16" />
    <sodipodi:guide
       id="guide1072"
       orientation="1,0"
       position="360,16" />
    <sodipodi:guide
       id="guide1074"
       orientation="1,0"
       position="368,16" />
    <sodipodi:guide
       id="guide1076"
       orientation="1,0"
       position="376,16" />
    <sodipodi:guide
       id="guide1078"
       orientation="1,0"
       position="384,16" />
    <sodipodi:guide
       id="guide1080"
       orientation="1,0"
       position="392,16" />
    <sodipodi:guide
       id="guide1082"
       orientation="1,0"
       position="400,16" />
    <sodipodi:guide
       id="guide1084"
       orientation="1,0"
       position="408,16" />
    <sodipodi:guide
       id="guide1106"
       orientation="1,0"
       position="416,16" />
    <sodipodi:guide
       id="guide1108"
       orientation="1,0"
       position="424,16" />
    <sodipodi:guide
       id="guide1110"
       orientation="1,0"
       position="432,16" />
    <sodipodi:guide
       id="guide1112"
       orientation="1,0"
       position="440,16" />
    <sodipodi:guide
       id="guide1114"
       orientation="1,0"
       position="448,16" />
    <sodipodi:guide
       id="guide1116"
       orientation="1,0"
       position="456,16" />
    <sodipodi:guide
       id="guide1143"
       orientation="1,0"
       position="464,16" />
    <sodipodi:guide
       id="guide1145"
       orientation="1,0"
       position="472,16" />
    <sodipodi:guide
       id="guide1147"
       orientation="1,0"
       position="480,16" />
    <sodipodi:guide
       id="guide1149"
       orientation="1,0"
       position="488,16" />
    <sodipodi:guide
       id="guide1151"
       orientation="1,0"
       position="496,16" />
    <sodipodi:guide
       id="guide1153"
       orientation="1,0"
       position="504,16" />
    <sodipodi:guide
       id="guide1155"
       orientation="1,0"
       position="512,16" />
    <sodipodi:guide
       id="guide1157"
       orientation="1,0"
       position="520,16" />
    <sodipodi:guide
       id="guide1159"
       orientation="1,0"
       position="528,16" />
    <sodipodi:guide
       id="guide1161"
       orientation="1,0"
       position="536,16" />
    <sodipodi:guide
       id="guide1222"
       orientation="1,0"
       position="544,16" />
    <sodipodi:guide
       id="guide1224"
       orientation="1,0"
       position="552,16" />
    <sodipodi:guide
       id="guide1226"
       orientation="1,0"
       position="560,16" />
    <sodipodi:guide
       id="guide1228"
       orientation="1,0"
       position="568,16" />
    <sodipodi:guide
       id="guide1236"
       orientation="1,0"
       position="576,16" />
    <sodipodi:guide
       id="guide1238"
       orientation="1,0"
       position="584,16" />
    <sodipodi:guide
       id="guide1240"
       orientation="1,0"
       position="592,16" />
    <sodipodi:guide
       id="guide1242"
       orientation="1,0"
       position="600,16" />
    <sodipodi:guide
       id="guide1274"
       orientation="1,0"
       position="608,16" />
    <sodipodi:guide
       id="guide1276"
       orientation="1,0"
       position="616,16" />
    <sodipodi:guide
       id="guide1278"
       orientation="1,0"
       position="624,16" />
    <sodipodi:guide
       id="guide1280"
       orientation="1,0"
       position="632,16" />
    <sodipodi:guide
       id="guide1303"
       orientation="1,0"
       position="640,16" />
    <sodipodi:guide
       id="guide1305"
       orientation="1,0"
       position="648,16" />
    <sodipodi:guide
       id="guide1307"
       orientation="1,0"
       position="656,16" />
    <sodipodi:guide
       id="guide1309"
       orientation="1,0"
       position="664,16" />
    <sodipodi:guide
       id="guide1311"
       orientation="1,0"
       position="672,16" />
    <sodipodi:guide
       id="guide1313"
       orientation="1,0"
       position="680,16" />
    <sodipodi:guide
       id="guide1365"
       orientation="1,0"
       position="688,16" />
    <sodipodi:guide
       id="guide1367"
       orientation="1,0"
       position="696,16" />
    <sodipodi:guide
       id="guide1369"
       orientation="1,0"
       position="704,16" />
    <sodipodi:guide
       id="guide1371"
       orientation="1,0"
       position="712,16" />
    <sodipodi:guide
       id="guide1373"
       orientation="1,0"
       position="720,16" />
    <sodipodi:guide
       id="guide1375"
       orientation="1,0"
       position="728,16" />
    <sodipodi:guide
       id="guide1389"
       orientation="1,0"
       position="736,16" />
    <sodipodi:guide
       id="guide1391"
       orientation="1,0"
       position="744,16" />
  </sodipodi:namedview>
  <metadata
     id="metadata5">
    <rdf:RDF>
      <cc:Work
         rdf:about="">
        <dc:format>image/svg+xml</dc:format>
        <dc:type
           rdf:resource="http://purl.org/dc/dcmitype/StillImage" />
        <dc:title></dc:title>
      </cc:Work>
    </rdf:RDF>
  </metadata>
  <g
     inkscape:label="Layer 1"
     inkscape:groupmode="layer"
     id="layer1"
     transform="translate(0,84)">
    <path
       sodipodi:nodetypes="cccccccccccccccccc"
       d="m 1,-82 v 1 H 0 v 9 h 2 v -5 h 3 v 5 h 2 v -9 H 6 v -1 z m 1,1 h 3 v 3 H 2 Z"
       style="fill:#000000;fill-opacity:1;stroke:none;stroke-width:1px;stroke-linecap:butt;stroke-linejoin:miter;stroke-opacity:1"
       id="path832" />
    <path
       transform="translate(0,-84)"
       d="m 8,2 v 10 h 6 v -1 h 1 V 7 H 14 V 6 h 1 V 3 H 14 V 2 Z m 2,1 h 3 v 3 h -3 z m 0,4 h 3 v 4 h -3 z"
       style="fill:#000000;fill-opacity:1;stroke:none;stroke-width:1px;stroke-linecap:butt;stroke-linejoin:miter;stroke-opacity:1"
       id="path856" />
    <path
       id="path864"
       d="m 16,-74 h 1 v 1 h 1 v 1 h 4 v -1 h 1 v -1 h -2 v 1 h -2 v -1 h -1 v -6 h 1 v -1 h 2 v 1 h 2 v -1 h -1 v -1 h -4 v 1 h -1 v 1 h -1 z"
       style="fill:#000000;fill-opacity:1;stroke:none;stroke-width:1px;stroke-linecap:butt;stroke-linejoin:miter;stroke-opacity:1" />
    <path
       transform="translate(0,-84)"
       d="m 24,2 v 10 h 5 v -1 h 1 v -1 h 1 V 4 H 30 V 3 H 29 V 2 Z m 2,1 h 2 v 1 h 1 v 6 h -1 v 1 h -2 z"
       style="fill:#000000;fill-opacity:1;stroke:none;stroke-width:1px;stroke-linecap:butt;stroke-linejoin:miter;stroke-opacity:1"
       id="path866" />
    <path
       id="path871"
       d="m 32,-72 v -10 h 7 v 1 h -5 v 3 h 4 v 1 h -4 v 4 h 5 v 1 z"
       style="fill:#000000;fill-opacity:1;stroke:none;stroke-width:1px;stroke-linecap:butt;stroke-linejoin:miter;stroke-opacity:1" />
    <path
       id="path873"
       d="m 40,-72 v -10 h 7 v 1 h -5 v 3 h 4 v 1 h -4 v 5 z"
       style="fill:#000000;fill-opacity:1;stroke:none;stroke-width:1px;stroke-linecap:butt;stroke-linejoin:miter;stroke-opacity:1" />
    <path
       sodipodi:nodetypes="ccccccccccccccccccccccccccccc"
       style="fill:#000000;fill-opacity:1;stroke:none;stroke-width:1px;stroke-linecap:butt;stroke-linejoin:miter;stroke-opacity:1"
       d="m 48,-74 h 1 v 1 h 1 v 1 h 5 v -5 h -3 v 1 h 1 v 3 h -2 v -1 h -1 v -6 h 1 v -1 h 2 v 1 h 2 v -1 h -1 v -1 h -4 v 1 h -1 v 1 h -1 z"
       id="path875" />
    <path
       id="path877"
       d="m 56,-82 v 10 h 2 v -5 h 3 v 5 h 2 v -10 h -2 v 4 h -3 v -4 z"
       style="fill:#000000;fill-opacity:1;stroke:none;stroke-width:1px;stroke-linecap:butt;stroke-linejoin:miter;stroke-opacity:1" />
    <path
       id="path889"
       d="m 66,-82 v 1 h 1 v 8 h -1 v 1 h 4 v -1 h -1 v -8 h 1 v -1 z"
       style="fill:#000000;fill-opacity:1;stroke:none;stroke-width:1px;stroke-linecap:butt;stroke-linejoin:miter;stroke-opacity:1" />
    <path
       id="path891"
       d="m 72,-73 v -1 h 2 v 1 h 2 v -9 h 2 v 9 h -1 v 1 h -4 v -1 z"
       style="fill:#000000;fill-opacity:1;stroke:none;stroke-width:1px;stroke-linecap:butt;stroke-linejoin:miter;stroke-opacity:1" />
    <path
       sodipodi:nodetypes="ccccccccccccccccccccccccccccccccccccc"
       id="path893"
       d="m 80,-82 v 10 h 2 v -3 h 1 v 1 h 1 v 1 h 1 v 1 h 2 v -1 h -1 v -1 h -1 v -1 h -1 v -1 h -1 v -2 h 1 v -1 h 1 v -1 h 1 v -1 h 1 v -1 h -2 v 1 h -1 v 1 h -1 v 1 h -1 v -3 z"
       style="fill:#000000;fill-opacity:1;stroke:none;stroke-width:1px;stroke-linecap:butt;stroke-linejoin:miter;stroke-opacity:1" />
    <path
       id="path895"
       d="m 88,-82 v 10 h 7 v -1 h -5 v -9 z"
       style="fill:#000000;fill-opacity:1;stroke:none;stroke-width:1px;stroke-linecap:butt;stroke-linejoin:miter;stroke-opacity:1" />
    <path
       id="path897"
       d="m 96,-72 v -10 h 2 v 2 h 1 v 1 h 1 v -1 h 1 v -2 h 2 v 10 h -2 v -5 h -1 v 2 h -1 v -2 h -1 v 5 z"
       style="fill:#000000;fill-opacity:1;stroke:none;stroke-width:1px;stroke-linecap:butt;stroke-linejoin:miter;stroke-opacity:1" />
    <path
       id="path919"
       d="m 104,-72 v -10 h 2 v 2 h 1 v 1 h 1 v 2 h 1 v -5 h 2 v 10 h -2 v -2 h -1 v -1 h -1 v -2 h -1 v 5 z"
       style="fill:#000000;fill-opacity:1;stroke:none;stroke-width:1px;stroke-linecap:butt;stroke-linejoin:miter;stroke-opacity:1" />
    <path
       transform="translate(0,-84)"
       d="m 113,2 v 1 h -1 v 8 h 1 v 1 h 5 v -1 h 1 V 3 h -1 V 2 Z m 1,1 h 3 v 8 h -3 z"
       style="fill:#000000;fill-opacity:1;stroke:none;stroke-width:1px;stroke-linecap:butt;stroke-linejoin:miter;stroke-opacity:1"
       id="path921" />
    <path
       transform="translate(0,-84)"
       d="m 120,2 v 10 h 2 V 8 h 4 V 7 h 1 V 3 h -1 V 2 Z m 2,1 h 3 v 4 h -3 z"
       style="fill:#000000;fill-opacity:1;stroke:none;stroke-width:1px;stroke-linecap:butt;stroke-linejoin:miter;stroke-opacity:1"
       id="path926" />
    <path
       sodipodi:nodetypes="ccccccccccccccccccccccccccccccc"
       transform="translate(0,-84)"
       d="m 129,2 v 1 h -1 v 8 h 1 v 1 h 3 v 1 h 1 v 1 h 2 v -1 h -1 v -2 h 1 V 3 h -1 V 2 Z m 1,1 h 3 v 7 h -1 V 9 h -2 z m 0,7 h 1 v 1 h -1 z"
       style="fill:#000000;fill-opacity:1;stroke:none;stroke-width:1px;stroke-linecap:butt;stroke-linejoin:miter;stroke-opacity:1"
       id="path931" />
    <path
       transform="translate(0,-84)"
       d="m 136,2 v 10 h 2 V 8 h 1 v 1 h 1 v 1 h 1 v 2 h 2 v -2 h -1 V 9 h -1 V 8 h 1 V 7 h 1 V 3 h -1 V 2 Z m 2,1 h 3 v 4 h -3 z"
       style="fill:#000000;fill-opacity:1;stroke:none;stroke-width:1px;stroke-linecap:butt;stroke-linejoin:miter;stroke-opacity:1"
       id="path937" />
    <path
       id="path943"
       d="m 144,-73 v -1 h 2 v 1 h 3 v -3 h -2 v -1 h -2 v -1 h -1 v -3 h 1 v -1 h 5 v 1 h 1 v 1 h -2 v -1 h -3 v 3 h 2 v 1 h 2 v 1 h 1 v 3 h -1 v 1 h -5 v -1 z"
       style="fill:#000000;fill-opacity:1;stroke:none;stroke-width:1px;stroke-linecap:butt;stroke-linejoin:miter;stroke-opacity:1" />
    <path
       id="path945"
       d="m 153,-82 v 1 h 2 v 9 h 2 v -9 h 2 v -1 z"
       style="fill:#000000;fill-opacity:1;stroke:none;stroke-width:1px;stroke-linecap:butt;stroke-linejoin:miter;stroke-opacity:1" />
    <path
       id="path947"
       d="m 160,-82 v 9 h 1 v 1 h 5 v -1 h 1 v -9 h -2 v 9 h -3 v -9 z"
       style="fill:#000000;fill-opacity:1;stroke:none;stroke-width:1px;stroke-linecap:butt;stroke-linejoin:miter;stroke-opacity:1" />
    <path
       id="path949"
       d="m 168,-82 v 5 h 1 v 2 h 1 v 2 h 1 v 1 h 1 v -1 h 1 v -2 h 1 v -2 h 1 v -5 h -2 v 5 h -1 v 2 h -1 v -2 h -1 v -5 z"
       style="fill:#000000;fill-opacity:1;stroke:none;stroke-width:1px;stroke-linecap:butt;stroke-linejoin:miter;stroke-opacity:1" />
    <path
       id="path951"
       d="m 176,-82 v 7 h 1 v 3 h 2 v -3 h 1 v 3 h 2 v -3 h 1 v -7 h -2 v 6 h -1 v -4 h -1 v 4 h -1 v -6 z"
       style="fill:#000000;fill-opacity:1;stroke:none;stroke-width:1px;stroke-linecap:butt;stroke-linejoin:miter;stroke-opacity:1" />
    <path
       id="path953"
       d="m 184,-82 v 2 h 1 v 2 h 1 v 2 h -1 v 2 h -1 v 2 h 2 v -2 h 1 v -2 h 1 v 2 h 1 v 2 h 2 v -2 h -1 v -2 h -1 v -2 h 1 v -2 h 1 v -2 h -2 v 2 h -1 v 2 h -1 v -2 h -1 v -2 z"
       style="fill:#000000;fill-opacity:1;stroke:none;stroke-width:1px;stroke-linecap:butt;stroke-linejoin:miter;stroke-opacity:1" />
    <path
       id="path971"
       d="m 192,-82 v 2 h 1 v 2 h 1 v 2 h 1 v 4 h 2 v -4 h 1 v -2 h 1 v -2 h 1 v -2 h -2 v 2 h -1 v 2 h -2 v -2 h -1 v -2 z"
       style="fill:#000000;fill-opacity:1;stroke:none;stroke-width:1px;stroke-linecap:butt;stroke-linejoin:miter;stroke-opacity:1" />
    <path
       id="path973"
       d="m 200,-82 h 7 v 1 h -1 v 2 h -1 v 2 h -1 v 2 h -1 v 2 h 4 v 1 h -7 v -1 h 1 v -2 h 1 v -2 h 1 v -2 h 1 v -2 h -4 z"
       style="fill:#000000;fill-opacity:1;stroke:none;stroke-width:1px;stroke-linecap:butt;stroke-linejoin:miter;stroke-opacity:1" />
    <path
       sodipodi:nodetypes="ccccccccccccccccccccccccc"
       transform="translate(0,-84)"
       d="m 209,5 v 1 h 4 v 1 h -4 v 1 h -1 v 3 h 1 v 1 h 3 v -1 h -2 V 8 h 3 v 2 h -1 v 1 h 1 v 1 h 2 V 6 h -1 V 5 Z"
       style="fill:#000000;fill-opacity:1;stroke:none;stroke-width:1px;stroke-linecap:butt;stroke-linejoin:miter;stroke-opacity:1"
       id="path975" />
    <path
       id="path985"
       d="m 216,-72 v -10 h 2 v 4 h 1 v 1 h -1 v 3 h 1 v 1 h -1 v 1 z"
       style="fill:#000000;fill-opacity:1;stroke:none;stroke-width:1px;stroke-linecap:butt;stroke-linejoin:miter;stroke-opacity:1" />
    <path
       id="path987"
       d="m 219,-78 v -1 h 3 v 1 h 1 v 5 h -1 v 1 h -3 v -1 h 2 v -5 z"
       style="fill:#000000;fill-opacity:1;stroke:none;stroke-width:1px;stroke-linecap:butt;stroke-linejoin:miter;stroke-opacity:1" />
    <path
       id="path989"
       d="m 224,-73 v -5 h 1 v -1 h 5 v 1 h 1 v 1 h -2 v -1 h -3 v 5 h 3 v -1 h 2 v 1 h -1 v 1 h -5 v -1 z"
       style="fill:#000000;fill-opacity:1;stroke:none;stroke-width:1px;stroke-linecap:butt;stroke-linejoin:miter;stroke-opacity:1" />
    <path
       style="fill:#000000;fill-opacity:1;stroke:none;stroke-width:1px;stroke-linecap:butt;stroke-linejoin:miter;stroke-opacity:1"
       d="m 239,-72 v -10 h -2 v 4 h -1 v 1 h 1 v 3 h -1 v 1 h 1 v 1 z"
       id="path991" />
    <path
       style="fill:#000000;fill-opacity:1;stroke:none;stroke-width:1px;stroke-linecap:butt;stroke-linejoin:miter;stroke-opacity:1"
       d="m 236,-78 v -1 h -3 v 1 h -1 v 5 h 1 v 1 h 3 v -1 h -2 v -5 z"
       id="path993" />
    <path
       sodipodi:nodetypes="cccccccccccccccccccccccc"
       transform="translate(0,-84)"
       d="m 241,5 v 1 h -1 v 5 h 1 v 1 h 5 v -1 h 1 v -1 h -2 v 1 h -3 V 9 c 1.66667,0 3.33333,0 5,0 V 6 h -1 V 5 Z m 1,1 h 3 v 2 h -3 z"
       style="fill:#000000;fill-opacity:1;stroke:none;stroke-width:1px;stroke-linecap:butt;stroke-linejoin:miter;stroke-opacity:1"
       id="path995" />
    <path
       sodipodi:nodetypes="ccccccccccccccccccccc"
       style="fill:#000000;fill-opacity:1;stroke:none;stroke-width:1px;stroke-linecap:butt;stroke-linejoin:miter;stroke-opacity:1"
       d="m 249,-79 v -2 h 1 v -1 h 4 v 1 h 1 v 1 h -2 v -1 h -2 v 2 h 2 v 1 h -2 v 6 h -2 v -6 h -1 v -1 z"
       id="path1001" />
    <path
       sodipodi:nodetypes="ccccccccccccccccccccc"
       id="path1025"
       d="m 263,-79 v 9 h -1 v 1 h -5 v -1 h -1 v -1 h 2 v 1 h 3 v -3 h -1 v -1 h 1 v -3 h -1 v -1 h 1 v -1 z"
       style="fill:#000000;fill-opacity:1;stroke:none;stroke-width:1px;stroke-linecap:butt;stroke-linejoin:miter;stroke-opacity:1" />
    <path
       id="path1027"
       d="m 260,-78 v -1 h -3 v 1 h -1 v 5 h 1 v 1 h 3 v -1 h -2 v -5 z"
       style="fill:#000000;fill-opacity:1;stroke:none;stroke-width:1px;stroke-linecap:butt;stroke-linejoin:miter;stroke-opacity:1" />
    <path
       sodipodi:nodetypes="ccccccccc"
       id="path1029"
       d="m 264,-72 v -10 h 2 v 4 h 1 v 1 h -1 v 5 z"
       style="fill:#000000;fill-opacity:1;stroke:none;stroke-width:1px;stroke-linecap:butt;stroke-linejoin:miter;stroke-opacity:1" />
    <path
       sodipodi:nodetypes="ccccccccc"
       id="path1031"
       d="m 267,-78 v -1 h 3 v 1 h 1 v 6 h -2 v -6 z"
       style="fill:#000000;fill-opacity:1;stroke:none;stroke-width:1px;stroke-linecap:butt;stroke-linejoin:miter;stroke-opacity:1" />
    <path
       id="path1033"
       d="m 274,-82 h 2 v 2 h -2 z"
       style="fill:#000000;fill-opacity:1;stroke:none;stroke-width:1px;stroke-linecap:butt;stroke-linejoin:miter;stroke-opacity:1" />
    <path
       id="path1035"
       d="m 274,-79 h 2 v 6 h 2 v 1 h -3 v -1 h -1 z"
       style="fill:#000000;fill-opacity:1;stroke:none;stroke-width:1px;stroke-linecap:butt;stroke-linejoin:miter;stroke-opacity:1" />
    <path
       id="path1037"
       d="m 284,-82 h 2 v 2 h -2 z"
       style="fill:#000000;fill-opacity:1;stroke:none;stroke-width:1px;stroke-linecap:butt;stroke-linejoin:miter;stroke-opacity:1" />
    <path
       id="path1039"
       d="m 284,-79 h 2 v 9 h -1 v 1 h -4 v -1 h -1 v -1 h 2 v 1 h 2 z"
       style="fill:#000000;fill-opacity:1;stroke:none;stroke-width:1px;stroke-linecap:butt;stroke-linejoin:miter;stroke-opacity:1" />
    <path
       id="path1041"
       d="m 288,-72 v -10 h 2 v 6 h 1 v -1 h 1 v -1 h 1 v -1 h 2 v 1 h -1 v 1 h -1 v 1 h -1 v 1 h 1 v 1 h 1 v 1 h 1 v 1 h -2 v -1 h -1 v -1 h -2 v 2 z"
       style="fill:#000000;fill-opacity:1;stroke:none;stroke-width:1px;stroke-linecap:butt;stroke-linejoin:miter;stroke-opacity:1" />
    <path
       id="path1043"
       d="m 298,-82 h 2 v 9 h 2 v 1 h -3 v -1 h -1 z"
       style="fill:#000000;fill-opacity:1;stroke:none;stroke-width:1px;stroke-linecap:butt;stroke-linejoin:miter;stroke-opacity:1" />
    <path
       id="path1045"
       d="m 304,-72 v -7 h 1 v 1 h 1 v 6 z"
       style="fill:#000000;fill-opacity:1;stroke:none;stroke-width:1px;stroke-linecap:butt;stroke-linejoin:miter;stroke-opacity:1" />
    <path
       id="path1047"
       d="m 306,-78 v -1 h 1 v 1 z"
       style="fill:#000000;fill-opacity:1;stroke:none;stroke-width:1px;stroke-linecap:butt;stroke-linejoin:miter;stroke-opacity:1" />
    <path
       id="path1049"
       d="m 307,-78 v 6 h 1 v -6 z"
       style="fill:#000000;fill-opacity:1;stroke:none;stroke-width:1px;stroke-linecap:butt;stroke-linejoin:miter;stroke-opacity:1" />
    <path
       id="path1051"
       d="m 308,-78 v -1 h 2 v 1 h 1 v 6 h -2 v -6 z"
       style="fill:#000000;fill-opacity:1;stroke:none;stroke-width:1px;stroke-linecap:butt;stroke-linejoin:miter;stroke-opacity:1" />
    <path
       sodipodi:nodetypes="ccccccccc"
       style="fill:#000000;fill-opacity:1;stroke:none;stroke-width:1px;stroke-linecap:butt;stroke-linejoin:miter;stroke-opacity:1"
       d="m 312,-72 v -7 h 2 v 1 h 1 v 1 h -1 v 5 z"
       id="path1053" />
    <path
       sodipodi:nodetypes="ccccccccc"
       style="fill:#000000;fill-opacity:1;stroke:none;stroke-width:1px;stroke-linecap:butt;stroke-linejoin:miter;stroke-opacity:1"
       d="m 315,-78 v -1 h 3 v 1 h 1 v 6 h -2 v -6 z"
       id="path1055" />
    <path
       sodipodi:nodetypes="cccccccccccccccccc"
       transform="translate(0,-84)"
       d="m 321,5 v 1 h -1 v 5 h 1 v 1 h 5 v -1 h 1 c 0,-1.6666667 0,-3.3333333 0,-5 h -1 V 5 Z m 1,1 h 3 c 0,1.6666667 0,3.3333333 0,5 h -3 z"
       style="fill:#000000;fill-opacity:1;stroke:none;stroke-width:1px;stroke-linecap:butt;stroke-linejoin:miter;stroke-opacity:1"
       id="path1057" />
    <path
       id="path1060"
       d="m 328,-79 v 10 h 2 v -4 h 1 v -1 h -1 v -3 h 1 v -1 h -1 v -1 z"
       style="fill:#000000;fill-opacity:1;stroke:none;stroke-width:1px;stroke-linecap:butt;stroke-linejoin:miter;stroke-opacity:1" />
    <path
       id="path1062"
       d="m 331,-73 v 1 h 3 v -1 h 1 v -5 h -1 v -1 h -3 v 1 h 2 v 5 z"
       style="fill:#000000;fill-opacity:1;stroke:none;stroke-width:1px;stroke-linecap:butt;stroke-linejoin:miter;stroke-opacity:1" />
    <path
       style="fill:#000000;fill-opacity:1;stroke:none;stroke-width:1px;stroke-linecap:butt;stroke-linejoin:miter;stroke-opacity:1"
       d="m 343,-79 v 10 h -2 v -4 h -1 v -1 h 1 v -3 h -1 v -1 h 1 v -1 z"
       id="path1064" />
    <path
       style="fill:#000000;fill-opacity:1;stroke:none;stroke-width:1px;stroke-linecap:butt;stroke-linejoin:miter;stroke-opacity:1"
       d="m 340,-73 v 1 h -3 v -1 h -1 v -5 h 1 v -1 h 3 v 1 h -2 v 5 z"
       id="path1066" />
    <path
       id="path1086"
       d="m 344,-72 v -7 h 2 v 1 h 1 v 1 h -1 v 5 z"
       style="fill:#000000;fill-opacity:1;stroke:none;stroke-width:1px;stroke-linecap:butt;stroke-linejoin:miter;stroke-opacity:1"
       sodipodi:nodetypes="ccccccccc" />
    <path
       id="path1088"
       d="m 347,-78 v -1 h 3 v 1 h 1 v 1 h -2 v -1 z"
       style="fill:#000000;fill-opacity:1;stroke:none;stroke-width:1px;stroke-linecap:butt;stroke-linejoin:miter;stroke-opacity:1"
       sodipodi:nodetypes="ccccccccc" />
    <path
       sodipodi:nodetypes="ccccccccccccccccccccccccccccccccc"
       style="fill:#000000;fill-opacity:1;stroke:none;stroke-width:1px;stroke-linecap:butt;stroke-linejoin:miter;stroke-opacity:1"
       d="m 352,-73 v -1 h 2 v 1 h 3 v -2 h -2 v -1 h -2 v -1 h -1 v -1 h 1 v -1 h 5 v 1 h 1 v 1 h -2 v -1 h -3 v 1 h 2 v 1 h 2 v 1 h 1 v 2 h -1 v 1 h -5 v -1 z"
       id="path1090" />
    <path
       id="path1092"
       d="m 362,-78 v 5 h 1 v 1 h 3 v -1 h -2 v -5 h 2 v -1 h -2 v -2 h -2 v 2 h -1 v 1 z"
       style="fill:#000000;fill-opacity:1;stroke:none;stroke-width:1px;stroke-linecap:butt;stroke-linejoin:miter;stroke-opacity:1"
       sodipodi:nodetypes="ccccccccccccccccc" />
    <path
       id="path1094"
       d="m 375,-79 v 7 h -2 v -1 h -1 v -1 h 1 v -5 z"
       style="fill:#000000;fill-opacity:1;stroke:none;stroke-width:1px;stroke-linecap:butt;stroke-linejoin:miter;stroke-opacity:1"
       sodipodi:nodetypes="ccccccccc" />
    <path
       id="path1096"
       d="m 372,-73 v 1 h -3 v -1 h -1 v -6 h 2 v 6 z"
       style="fill:#000000;fill-opacity:1;stroke:none;stroke-width:1px;stroke-linecap:butt;stroke-linejoin:miter;stroke-opacity:1"
       sodipodi:nodetypes="ccccccccc" />
    <path
       sodipodi:nodetypes="ccccccccccccccccccccccccc"
       style="fill:#000000;fill-opacity:1;stroke:none;stroke-width:1px;stroke-linecap:butt;stroke-linejoin:miter;stroke-opacity:1"
       d="m 376,-79 v 2 h 1 v 2 h 1 v 2 h 1 v 1 h 1 v -1 h 1 v -2 h 1 v -2 h 1 v -2 h -2 v 2 h -1 v 2 h -1 v -2 h -1 v -2 z"
       id="path1098" />
    <path
       sodipodi:nodetypes="ccccccccccccccccccccc"
       style="fill:#000000;fill-opacity:1;stroke:none;stroke-width:1px;stroke-linecap:butt;stroke-linejoin:miter;stroke-opacity:1"
       d="m 384,-79 v 4 h 1 v 3 h 2 v -2 h 1 v 2 h 2 v -3 h 1 v -4 h -2 v 4 h -1 v -3 h -1 v 3 h -1 v -4 z"
       id="path1100" />
    <path
       sodipodi:nodetypes="ccccccccccccccccccccccccccccccccccccc"
       style="fill:#000000;fill-opacity:1;stroke:none;stroke-width:1px;stroke-linecap:butt;stroke-linejoin:miter;stroke-opacity:1"
       d="m 392,-79 v 1 h 1 v 1 h 1 v 3 h -1 v 1 h -1 v 1 h 2 v -1 h 1 v -1 h 1 v 1 h 1 v 1 h 2 v -1 h -1 v -1 h -1 v -3 h 1 v -1 h 1 v -1 h -2 v 1 h -1 v 1 h -1 v -1 h -1 v -1 z"
       id="path1102" />
    <path
       id="path1104"
       d="m 400,-79 v 2 h 1 v 2 h 1 v 4 h -1 v 1 h -1 v 1 h 2 v -1 h 1 v -1 h 1 v -2 h 1 v -2 h 1 v -2 h 1 v -2 h -2 v 2 h -1 v 2 h -1 v -2 h -1 v -2 z"
       style="fill:#000000;fill-opacity:1;stroke:none;stroke-width:1px;stroke-linecap:butt;stroke-linejoin:miter;stroke-opacity:1"
       sodipodi:nodetypes="ccccccccccccccccccccccccccccccc" />
    <path
       id="path1118"
       d="m 408,-79 h 7 v 2 h -1 v 1 h -1 v 1 h -1 v 1 h -1 v 1 h 4 v 1 h -7 v -1 h 1 v -1 h 1 v -1 h 1 v -1 h 1 v -1 h 1 v -1 h -5 z"
       style="fill:#000000;fill-opacity:1;stroke:none;stroke-width:1px;stroke-linecap:butt;stroke-linejoin:miter;stroke-opacity:1" />
    <path
       id="path1120"
       style="fill:#000000;fill-opacity:1;stroke:none;stroke-width:1px;stroke-linecap:butt;stroke-linejoin:miter;stroke-opacity:1"
       d="m 417,-82 v 1 h -1 v 8 h 1 v 1 h 5 v -1 h 1 v -8 h -1 v -1 z m 1,1 h 3 v 8 h -3 z" />
    <path
       transform="translate(0,-84)"
       d="m 419,6 v 2 h 1 V 6 Z"
       style="opacity:1;fill:#000000;fill-opacity:1;stroke:none;stroke-width:1"
       id="rect1122" />
    <path
       id="path1126"
       d="m 425,-81 h 2 v -1 h 2 v 10 h -2 v -8 h -2 z"
       style="fill:#000000;fill-opacity:1;stroke:none;stroke-width:1px;stroke-linecap:butt;stroke-linejoin:miter;stroke-opacity:1" />
    <path
       id="path1128"
       d="m 432,-81 h 1 v -1 h 5 v 1 h 1 v 3 h -1 v 1 h -1 v 1 h -1 v 1 h -1 v 1 h -1 v 1 h 5 v 1 h -7 v -2 h 1 v -1 h 1 v -1 h 1 v -1 h 1 v -1 h 1 v -3 h -3 v 1 h -2 z"
       style="fill:#000000;fill-opacity:1;stroke:none;stroke-width:1px;stroke-linecap:butt;stroke-linejoin:miter;stroke-opacity:1" />
    <path
       sodipodi:nodetypes="ccccccccccccccccccccccccccccc"
       style="fill:#000000;fill-opacity:1;stroke:none;stroke-width:1px;stroke-linecap:butt;stroke-linejoin:miter;stroke-opacity:1"
       d="m 440,-81 h 1 v -1 h 5 v 1 h 1 v 3 h -1 v 1 h 1 v 4 h -1 v 1 h -5 v -1 h -1 v -1 h 2 v 1 h 3 v -4 h -3 v -1 h 3 v -3 h -3 v 1 h -2 z"
       id="path1130" />
    <path
       transform="translate(0,-84)"
       d="m 452,2 v 1 h -1 v 1 h -1 v 1 h -1 v 1 h -1 v 2 h 4 v 4 h 2 V 8 h 1 V 7 h -1 V 2 Z m -1,3 h 1 v 2 h -2 V 6 h 1 z"
       style="fill:#000000;fill-opacity:1;stroke:none;stroke-width:1px;stroke-linecap:butt;stroke-linejoin:miter;stroke-opacity:1"
       id="path1132" />
    <path
       sodipodi:nodetypes="ccccccccccccccccccccc"
       transform="translate(0,-84)"
       d="m 456,2 v 4 h 5 v 5 h -3 v -1 h -2 v 1 h 1 v 1 h 5 v -1 h 1 V 6 h -1 V 5 h -4 V 3 h 5 V 2 Z"
       style="fill:#000000;fill-opacity:1;stroke:none;stroke-width:1px;stroke-linecap:butt;stroke-linejoin:miter;stroke-opacity:1"
       id="path1137" />
    <path
       transform="translate(0,-84)"
       d="m 466,2 v 1 h -1 v 1 h -1 v 7 h 1 v 1 h 5 v -1 h 1 V 7 h -1 V 6 h -4 V 4 h 1 V 3 h 3 V 2 Z m 0,5 h 3 v 4 h -3 z"
       style="fill:#000000;fill-opacity:1;stroke:none;stroke-width:1px;stroke-linecap:butt;stroke-linejoin:miter;stroke-opacity:1"
       id="path1163" />
    <path
       sodipodi:nodetypes="ccccccccccccccccccc"
       id="path1169"
       d="m 472,-82 h 7 v 2 h -1 v 2 h -1 v 3 h -1 v 3 h -2 v -3 h 1 v -3 h 1 v -2 h 1 v -1 h -5 z"
       style="fill:#000000;fill-opacity:1;stroke:none;stroke-width:1px;stroke-linecap:butt;stroke-linejoin:miter;stroke-opacity:1" />
    <path
       transform="translate(0,-84)"
       d="m 481,2 v 1 h -1 v 3 h 1 v 1 h -1 v 4 h 1 v 1 h 5 v -1 h 1 V 7 h -1 V 6 h 1 V 3 h -1 V 2 Z m 1,1 h 3 v 3 h -3 z m 0,4 h 3 v 4 h -3 z"
       style="fill:#000000;fill-opacity:1;stroke:none;stroke-width:1px;stroke-linecap:butt;stroke-linejoin:miter;stroke-opacity:1"
       id="path1171" />
    <path
       sodipodi:nodetypes="cccccccccccccccccccccccccc"
       id="path1176"
       style="fill:#000000;fill-opacity:1;stroke:none;stroke-width:1px;stroke-linecap:butt;stroke-linejoin:miter;stroke-opacity:1"
       d="m 493,-72 v -1 h 1 v -1 h 1 v -7 h -1 v -1 h -5 v 1 h -1 v 3 h 1 v 1 h 4 v 3 h -1 v 1 h -3 v 1 z m 0,-6 h -3 v -3 h 3 z" />
    <path
       id="path1178"
       d="m 499,-82 h 2 v 7 h -2 z"
       style="fill:#000000;fill-opacity:1;stroke:none;stroke-width:1px;stroke-linecap:butt;stroke-linejoin:miter;stroke-opacity:1" />
    <path
       id="path1180"
       d="m 499,-74 h 2 v 2 h -2 z"
       style="fill:#000000;fill-opacity:1;stroke:none;stroke-width:1px;stroke-linecap:butt;stroke-linejoin:miter;stroke-opacity:1" />
    <path
       id="path1182"
       d="m 505,-79 v -1 h 1 v -2 h 2 v 2 h -1 v 1 z"
       style="fill:#000000;fill-opacity:1;stroke:none;stroke-width:1px;stroke-linecap:butt;stroke-linejoin:miter;stroke-opacity:1" />
    <path
       style="fill:#000000;fill-opacity:1;stroke:none;stroke-width:1px;stroke-linecap:butt;stroke-linejoin:miter;stroke-opacity:1"
       d="m 508,-79 v -1 h 1 v -2 h 2 v 2 h -1 v 1 z"
       id="path1184" />
    <path
       transform="translate(0,-84)"
       d="m 513,3 v 2 h -1 v 1 h 1 v 2 h -1 v 1 h 1 v 2 h 2 V 9 h 1 v 2 h 2 V 9 h 1 V 8 h -1 V 6 h 1 V 5 h -1 V 3 h -2 v 2 h -1 V 3 Z m 2,3 h 1 v 2 h -1 z"
       style="fill:#000000;fill-opacity:1;stroke:none;stroke-width:1px;stroke-linecap:butt;stroke-linejoin:miter;stroke-opacity:1"
       id="path1186" />
    <path
       transform="translate(0,-84)"
       d="m 523,1 v 2 h -2 v 1 h -1 v 3 h 1 v 1 h 2 v 3 h -1 v -1 h -2 v 1 h 1 v 1 h 2 v 2 h 1 v -2 h 2 v -1 h 1 V 8 h -1 V 7 h -2 V 4 h 1 v 1 h 2 V 4 h -1 V 3 h -2 V 1 Z m -1,3 h 1 v 3 h -1 z m 2,4 h 1 v 3 h -1 z"
       style="fill:#000000;fill-opacity:1;stroke:none;stroke-width:1px;stroke-linecap:butt;stroke-linejoin:miter;stroke-opacity:1"
       id="path1195" />
    <path
       transform="translate(0,-84)"
       d="m 528,3 v 2 h 2 V 3 Z"
       style="opacity:1;fill:#000000;fill-opacity:1;stroke:none;stroke-width:1"
       id="rect1204" />
    <path
       transform="translate(0,-84)"
       d="m 532,10 v 2 h 2 v -2 z"
       style="opacity:1;fill:#000000;fill-opacity:1;stroke:none;stroke-width:1"
       id="rect1206" />
    <path
       id="path1212"
       d="m 528,-72 v -1 h 1 v -2 h 1 v -2 h 1 v -2 h 1 v -2 h 2 v 1 h -1 v 2 h -1 v 2 h -1 v 2 h -1 v 2 z"
       style="fill:#000000;fill-opacity:1;stroke:none;stroke-width:1px;stroke-linecap:butt;stroke-linejoin:miter;stroke-opacity:1" />
    <path
       transform="translate(0,-84)"
       d="m 538,2 v 1 h -1 v 2 h 1 v 2 h -1 v 1 h -1 v 3 h 1 v 1 h 3 v -1 h 2 v 1 h 2 v -1 h -1 v -1 h -1 V 7 h 1 V 6 h -2 v 1 h -1 V 6 h 1 V 5 h 1 V 3 h -1 V 2 Z m 1,1 h 1 v 2 h -1 z m -1,5 h 2 v 2 h -1 v 1 h -1 z"
       style="fill:#000000;fill-opacity:1;stroke:none;stroke-width:1px;stroke-linecap:butt;stroke-linejoin:miter;stroke-opacity:1"
       id="path1214" />
    <path
       id="path1230"
       d="m 546,-79 v -1 h 1 v -2 h 2 v 2 h -1 v 1 z"
       style="fill:#000000;fill-opacity:1;stroke:none;stroke-width:1px;stroke-linecap:butt;stroke-linejoin:miter;stroke-opacity:1" />
    <path
       id="path1232"
       d="m 554,-74 h 1 v 2 h 1 v 1 h 2 v -1 h -1 v -2 h -1 v -5 h 1 v -2 h 1 v -1 h -2 v 1 h -1 v 2 h -1 z"
       style="fill:#000000;fill-opacity:1;stroke:none;stroke-width:1px;stroke-linecap:butt;stroke-linejoin:miter;stroke-opacity:1" />
    <path
       style="fill:#000000;fill-opacity:1;stroke:none;stroke-width:1px;stroke-linecap:butt;stroke-linejoin:miter;stroke-opacity:1"
       d="m 565,-74 h -1 v 2 h -1 v 1 h -2 v -1 h 1 v -2 h 1 v -5 h -1 v -2 h -1 v -1 h 2 v 1 h 1 v 2 h 1 z"
       id="path1234" />
    <path
       transform="translate(0,-84)"
       d="m 569,5 v 1 h 1 v 1 h -2 v 1 h 2 v 1 h -1 v 1 h 2 V 9 h 1 v 1 h 2 V 9 h -1 V 8 h 2 V 7 h -2 V 6 h 1 V 5 h -2 v 1 h -1 V 5 Z"
       style="opacity:1;fill:#000000;fill-opacity:1;stroke:none;stroke-width:1"
       id="rect1244" />
    <path
       transform="translate(0,-84)"
       d="m 579,5 v 2 h -2 v 1 h 2 v 2 h 2 V 8 h 2 V 7 h -2 V 5 Z"
       style="opacity:1;fill:#000000;fill-opacity:1;stroke:none;stroke-width:1"
       id="rect1263" />
    <path
       style="fill:#000000;fill-opacity:1;stroke:none;stroke-width:1px;stroke-linecap:butt;stroke-linejoin:miter;stroke-opacity:1"
       d="m 586,-71 v -1 h 1 v -2 h 2 v 2 h -1 v 1 z"
       id="path1270" />
    <rect
       y="-77"
       x="593"
       height="1"
       width="6"
       id="rect1272"
       style="opacity:1;fill:#000000;fill-opacity:1;stroke:none;stroke-width:1" />
    <path
       transform="translate(0,-84)"
       d="m 603,10 v 2 h 2 v -2 z"
       style="opacity:1;fill:#000000;fill-opacity:1;stroke:none;stroke-width:1"
       id="rect1282" />
    <path
       id="path1286"
       d="m 608,-72 h 1 v -2 h 1 v -2 h 1 v -2 h 1 v -2 h 1 v -2 h 2 v 1 h -1 v 2 h -1 v 2 h -1 v 2 h -1 v 2 h -1 v 2 h -2 z"
       style="fill:#000000;fill-opacity:1;stroke:none;stroke-width:1px;stroke-linecap:butt;stroke-linejoin:miter;stroke-opacity:1" />
    <path
       transform="translate(0,-84)"
       d="m 619,10 v 2 h 2 v -2 z"
       style="opacity:1;fill:#000000;fill-opacity:1;stroke:none;stroke-width:1"
       id="rect1288" />
    <path
       transform="translate(0,-84)"
       d="m 619,5 v 2 h 2 V 5 Z"
       style="opacity:1;fill:#000000;fill-opacity:1;stroke:none;stroke-width:1"
       id="rect1290" />
    <path
       transform="translate(0,-84)"
       d="m 627,10 v 2 h -1 v 1 h 2 v -1 h 1 v -2 z"
       style="opacity:1;fill:#000000;fill-opacity:1;stroke:none;stroke-width:1"
       id="path1296" />
    <path
       id="path1298"
       style="opacity:1;fill:#000000;fill-opacity:1;stroke:none;stroke-width:1"
       d="m 627,-79 v 2 h 2 v -2 z" />
    <path
       transform="translate(0,-84)"
       d="m 637,2 v 1 h -1 v 1 h -1 v 1 h -1 v 1 h -1 v 2 h 1 v 1 h 1 v 1 h 1 v 1 h 1 v 1 h 2 v -1 h -1 v -1 h -1 V 9 h -1 V 8 h -1 V 6 h 1 V 5 h 1 V 4 h 1 V 3 h 1 V 2 Z"
       style="opacity:1;fill:#000000;fill-opacity:1;stroke:none;stroke-width:1"
       id="rect1315" />
    <rect
       y="-76"
       x="641"
       height="1"
       width="6"
       id="rect1345"
       style="opacity:1;fill:#000000;fill-opacity:1;stroke:none;stroke-width:1" />
    <rect
       y="-79"
       x="641"
       height="1"
       width="6"
       id="rect1347"
       style="opacity:1;fill:#000000;fill-opacity:1;stroke:none;stroke-width:1" />
    <path
       id="path1349"
       style="opacity:1;fill:#000000;fill-opacity:1;stroke:none;stroke-width:1"
       d="m 651,-82 v 1 h 1 v 1 h 1 v 1 h 1 v 1 h 1 v 2 h -1 v 1 h -1 v 1 h -1 v 1 h -1 v 1 h -2 v -1 h 1 v -1 h 1 v -1 h 1 v -1 h 1 v -2 h -1 v -1 h -1 v -1 h -1 v -1 h -1 v -1 z" />
    <path
       id="path1351"
       d="m 656,-81 h 1 v -1 h 5 v 1 h 1 v 2 h -1 v 2 h -1 v 2 h -2 v -2 h 1 v -2 h 1 v -2 h -3 v 1 h -2 z"
       style="fill:#000000;fill-opacity:1;stroke:none;stroke-width:1px;stroke-linecap:butt;stroke-linejoin:miter;stroke-opacity:1" />
    <path
       id="path1353"
       d="m 659,-74 h 2 v 2 h -2 z"
       style="fill:#000000;fill-opacity:1;stroke:none;stroke-width:1px;stroke-linecap:butt;stroke-linejoin:miter;stroke-opacity:1" />
    <path
       transform="translate(0,-84)"
       d="m 666,2 v 1 h -1 v 1 h -1 v 6 h 1 v 1 h 1 v 1 h 4 v -1 h -3 v -1 h -1 V 4 h 1 V 3 h 2 v 1 h -1 v 1 h -1 v 4 h 1 v 1 h 2 V 9 h 1 V 3 h -1 V 2 Z m 2,4 h 1 v 2 h -1 z"
       style="fill:#000000;fill-opacity:1;stroke:none;stroke-width:1px;stroke-linecap:butt;stroke-linejoin:miter;stroke-opacity:1"
       id="path1355" />
    <path
       id="path1361"
       d="m 674,-72 v -10 h 4 v 1 h -2 v 8 h 2 v 1 z"
       style="fill:#000000;fill-opacity:1;stroke:none;stroke-width:1px;stroke-linecap:butt;stroke-linejoin:miter;stroke-opacity:1" />
    <path
       style="fill:#000000;fill-opacity:1;stroke:none;stroke-width:1px;stroke-linecap:butt;stroke-linejoin:miter;stroke-opacity:1"
       d="m 687,-72 h -1 v -2 h -1 v -2 h -1 v -2 h -1 v -2 h -1 v -2 h -2 v 1 h 1 v 2 h 1 v 2 h 1 v 2 h 1 v 2 h 1 v 2 h 2 z"
       id="path1363" />
    <path
       style="fill:#000000;fill-opacity:1;stroke:none;stroke-width:1px;stroke-linecap:butt;stroke-linejoin:miter;stroke-opacity:1"
       d="m 694,-72 v -10 h -4 v 1 h 2 v 8 h -2 v 1 z"
       id="path1377" />
    <path
       id="path1379"
       d="m 696,-80 h 1 v -1 h 1 v -1 h 1 v -1 h 1 v 1 h 1 v 1 h 1 v 1 h 1 v 1 h -2 v -1 h -1 v -1 h -1 v 1 h -1 v 1 h -2 z"
       style="fill:#000000;fill-opacity:1;stroke:none;stroke-width:1px;stroke-linecap:butt;stroke-linejoin:miter;stroke-opacity:1" />
    <path
       transform="translate(0,-84)"
       d="m 704,12 v 1 h 8 v -1 z"
       style="opacity:1;fill:#000000;fill-opacity:1;stroke:none;stroke-width:1"
       id="rect1381" />
    <path
       id="path1385"
       style="opacity:1;fill:#000000;fill-opacity:1;stroke:none;stroke-width:1"
       d="m 716,-82 v 2 h 1 v 1 h -2 v -1 h -1 v -2 z" />
    <path
       id="path1387"
       d="m 721,-76 v -1 h 2 v -4 h 1 v -1 h 3 v 1 h -2 v 4 h -1 v 1 h 1 v 4 h 2 v 1 h -3 v -1 h -1 v -4 z"
       style="fill:#000000;fill-opacity:1;stroke:none;stroke-width:1px;stroke-linecap:butt;stroke-linejoin:miter;stroke-opacity:1" />
    <path
       transform="translate(0,-84)"
       d="m 731,1 v 12 h 2 V 1 Z"
       style="opacity:1;fill:#000000;fill-opacity:1;stroke:none;stroke-width:1"
       id="rect1399" />
    <path
       style="fill:#000000;fill-opacity:1;stroke:none;stroke-width:1px;stroke-linecap:butt;stroke-linejoin:miter;stroke-opacity:1"
       d="m 743,-76 v -1 h -2 v -4 h -1 v -1 h -3 v 1 h 2 v 4 h 1 v 1 h -1 v 4 h -2 v 1 h 3 v -1 h 1 v -4 z"
       id="path1403" />
    <path
       transform="translate(0,-84)"
       d="m 745,6 v 1 h -1 v 1 h 2 V 7 h 1 v 1 h 3 V 7 h 1 V 6 h -2 v 1 h -1 V 6 Z"
       style="opacity:1;fill:#000000;fill-opacity:1;stroke:none;stroke-width:1"
       id="rect1405" />
  </g>
</svg>
