<?xml version="1.0" encoding="UTF-8" standalone="no"?>
<svg
   xmlns:dc="http://purl.org/dc/elements/1.1/"
   xmlns:cc="http://creativecommons.org/ns#"
   xmlns:rdf="http://www.w3.org/1999/02/22-rdf-syntax-ns#"
   xmlns:svg="http://www.w3.org/2000/svg"
   xmlns="http://www.w3.org/2000/svg"
   xmlns:sodipodi="http://sodipodi.sourceforge.net/DTD/sodipodi-0.dtd"
   xmlns:inkscape="http://www.inkscape.org/namespaces/inkscape"
   inkscape:version="1.0.1 (3bc2e813f5, 2020-09-07)"
   sodipodi:docname="Logo.svg"
   width="128"
   height="128"
   viewBox="0 0 128 128"
   version="1.1"
   id="svg8"
   inkscape:export-filename="F:\IdeaProjects\Poppy DE\Environment\Library\Kernels\Kernel\src\Logo.png"
   inkscape:export-xdpi="96"
   inkscape:export-ydpi="96">
  <sodipodi:namedview
     inkscape:current-layer="svg8"
     inkscape:window-maximized="1"
     inkscape:window-y="-8"
     inkscape:window-x="-8"
     inkscape:cy="93.91189"
     inkscape:cx="121.55059"
     inkscape:zoom="1"
     showgrid="false"
     id="namedview7"
     inkscape:window-height="716"
     inkscape:window-width="1366"
     inkscape:pageshadow="2"
     inkscape:pageopacity="0"
     guidetolerance="10"
     gridtolerance="10"
     objecttolerance="10"
     borderopacity="1"
     bordercolor="#666666"
     pagecolor="#808080"
     inkscape:document-rotation="0"
     inkscape:pagecheckerboard="true"
     inkscape:snap-global="true"
     inkscape:snap-bbox="true"
     inkscape:bbox-paths="true"
     inkscape:bbox-nodes="true"
     inkscape:snap-bbox-edge-midpoints="true"
     inkscape:snap-bbox-midpoints="true"
     inkscape:object-paths="true"
     inkscape:snap-intersection-paths="true"
     inkscape:snap-smooth-nodes="true"
     inkscape:snap-midpoints="true"
     inkscape:snap-object-midpoints="true"
     inkscape:snap-center="true"
     inkscape:snap-page="true"
     inkscape:snap-text-baseline="true"
     inkscape:snap-nodes="false"
     inkscape:snap-others="false">
    <inkscape:grid
       type="xygrid"
       id="grid8"
       empspacing="4" />
  </sodipodi:namedview>
  <defs
     id="defs2">
    <inkscape:path-effect
       effect="powerclip"
       id="path-effect1145"
       is_visible="true"
       lpeversion="1"
       inverse="true"
       flatten="false"
       hide_clip="false"
       message="Используйте чётно-нечётное правило заливки в диалоговом окне &lt;b&gt;заливки и обводки&lt;/b&gt;, если результат выравнивания после преобразования вырезки в контуры отсутствует." />
    <inkscape:path-effect
       effect="powerclip"
       id="path-effect1131"
       is_visible="true"
       lpeversion="1"
       inverse="true"
       flatten="false"
       hide_clip="false"
       message="Используйте чётно-нечётное правило заливки в диалоговом окне &lt;b&gt;заливки и обводки&lt;/b&gt;, если результат выравнивания после преобразования вырезки в контуры отсутствует." />
    <inkscape:path-effect
       effect="powerclip"
       id="path-effect1123"
       is_visible="true"
       lpeversion="1"
       inverse="true"
       flatten="false"
       hide_clip="false"
       message="Используйте чётно-нечётное правило заливки в диалоговом окне &lt;b&gt;заливки и обводки&lt;/b&gt;, если результат выравнивания после преобразования вырезки в контуры отсутствует." />
    <inkscape:path-effect
       effect="powerclip"
       id="path-effect1115"
       is_visible="true"
       lpeversion="1"
       inverse="true"
       flatten="false"
       hide_clip="false"
       message="Используйте чётно-нечётное правило заливки в диалоговом окне &lt;b&gt;заливки и обводки&lt;/b&gt;, если результат выравнивания после преобразования вырезки в контуры отсутствует." />
    <inkscape:path-effect
       effect="powerclip"
       id="path-effect1107"
       is_visible="true"
       lpeversion="1"
       inverse="true"
       flatten="false"
       hide_clip="false"
       message="Используйте чётно-нечётное правило заливки в диалоговом окне &lt;b&gt;заливки и обводки&lt;/b&gt;, если результат выравнивания после преобразования вырезки в контуры отсутствует." />
    <inkscape:path-effect
       effect="powermask"
       id="path-effect979"
       is_visible="true"
       lpeversion="1"
       uri="#mask-powermask-path-effect979"
       invert="false"
       hide_mask="false"
       background="true"
       background_color="#ffffffff" />
    <inkscape:path-effect
       effect="powermask"
       id="path-effect922"
       is_visible="true"
       lpeversion="1"
       uri="#mask-powermask-path-effect922"
       invert="false"
       hide_mask="false"
       background="true"
       background_color="#ffffffff" />
    <inkscape:path-effect
       effect="powermask"
       id="path-effect898"
       is_visible="true"
       lpeversion="1"
       uri="#mask-powermask-path-effect898"
       invert="false"
       hide_mask="false"
       background="true"
       background_color="#ffffffff" />
    <inkscape:path-effect
       effect="powermask"
       id="path-effect880"
       is_visible="true"
       lpeversion="1"
       uri="#mask-powermask-path-effect880"
       invert="false"
       hide_mask="false"
       background="true"
       background_color="#ffffffff" />
    <inkscape:path-effect
       effect="powermask"
       id="path-effect864"
       is_visible="true"
       lpeversion="1"
       uri="#mask-powermask-path-effect864"
       invert="false"
       hide_mask="false"
       background="true"
       background_color="#ffffffff" />
    <inkscape:path-effect
       effect="powermask"
       id="path-effect849"
       is_visible="true"
       lpeversion="1"
       uri="#mask-powermask-path-effect849"
       invert="false"
       hide_mask="false"
       background="true"
       background_color="#ffffffff" />
    <mask
       maskUnits="userSpaceOnUse"
       id="mask-powermask-path-effect849-8">
      <path
         id="mask-powermask-path-effect849_box-1"
         style="fill:#ffffff;fill-opacity:1"
         d="M -1,-1 H 65 V 65 H -1 Z" />
      <circle
         style="fill:#000000;fill-opacity:1;stroke:none;stroke-width:20;stroke-linecap:round;stroke-linejoin:round;stroke-miterlimit:4;stroke-dasharray:none;stroke-opacity:1;paint-order:stroke fill markers"
         id="circle847-4"
         cx="96"
         cy="32"
         r="40"
         d="M 136,32 A 40,40 0 0 1 96,72 40,40 0 0 1 56,32 40,40 0 0 1 96,-8 40,40 0 0 1 136,32 Z" />
    </mask>
    <filter
       id="mask-powermask-path-effect849_inverse-2"
       inkscape:label="filtermask-powermask-path-effect849"
       style="color-interpolation-filters:sRGB"
       height="100"
       width="100"
       x="-50"
       y="-50">
      <feColorMatrix
         id="mask-powermask-path-effect849_primitive1-0"
         values="1"
         type="saturate"
         result="fbSourceGraphic" />
      <feColorMatrix
         id="mask-powermask-path-effect849_primitive2-7"
         values="-1 0 0 0 1 0 -1 0 0 1 0 0 -1 0 1 0 0 0 1 0 "
         in="fbSourceGraphic" />
    </filter>
    <clipPath
       clipPathUnits="userSpaceOnUse"
       id="clipPath1103">
      <circle
         style="display:none;fill:#000000;fill-opacity:1;stroke:none;stroke-width:20;stroke-linecap:round;stroke-linejoin:round;stroke-miterlimit:4;stroke-dasharray:none;stroke-opacity:1;paint-order:stroke fill markers"
         id="circle1105"
         cx="96"
         cy="96"
         r="40"
         d="M 136,96 A 40,40 0 0 1 96,136 40,40 0 0 1 56,96 40,40 0 0 1 96,56 40,40 0 0 1 136,96 Z" />
      <path
         id="lpe_path-effect1107"
         style="fill:#000000;fill-opacity:1;stroke:none;stroke-width:20;stroke-linecap:round;stroke-linejoin:round;stroke-miterlimit:4;stroke-dasharray:none;stroke-opacity:1;paint-order:stroke fill markers"
         class="powerclip"
         d="m 59,-5 h 74 V 69 H 59 Z M 136,96 A 40,40 0 0 0 96,56 40,40 0 0 0 56,96 40,40 0 0 0 96,136 40,40 0 0 0 136,96 Z" />
    </clipPath>
    <clipPath
       clipPathUnits="userSpaceOnUse"
       id="clipPath1111">
      <circle
         style="display:none;fill:#000000;fill-opacity:1;stroke:none;stroke-width:20;stroke-linecap:round;stroke-linejoin:round;stroke-miterlimit:4;stroke-dasharray:none;stroke-opacity:1;paint-order:stroke fill markers"
         id="circle1113"
         cx="32"
         cy="96"
         r="40"
         d="M 72,96 A 40,40 0 0 1 32,136 40,40 0 0 1 -8,96 40,40 0 0 1 32,56 40,40 0 0 1 72,96 Z" />
      <path
         id="lpe_path-effect1115"
         style="fill:#000000;fill-opacity:1;stroke:none;stroke-width:20;stroke-linecap:round;stroke-linejoin:round;stroke-miterlimit:4;stroke-dasharray:none;stroke-opacity:1;paint-order:stroke fill markers"
         class="powerclip"
         d="m 59,59 h 74 v 74 H 59 Z M 72,96 A 40,40 0 0 0 32,56 40,40 0 0 0 -8,96 40,40 0 0 0 32,136 40,40 0 0 0 72,96 Z" />
    </clipPath>
    <clipPath
       clipPathUnits="userSpaceOnUse"
       id="clipPath1119">
      <circle
         style="display:none;fill:#000000;fill-opacity:1;stroke:none;stroke-width:20;stroke-linecap:round;stroke-linejoin:round;stroke-miterlimit:4;stroke-dasharray:none;stroke-opacity:1;paint-order:stroke fill markers"
         id="circle1121"
         cx="32"
         cy="32"
         r="40"
         d="M 72,32 A 40,40 0 0 1 32,72 40,40 0 0 1 -8,32 40,40 0 0 1 32,-8 40,40 0 0 1 72,32 Z" />
      <path
         id="lpe_path-effect1123"
         style="fill:#000000;fill-opacity:1;stroke:none;stroke-width:20;stroke-linecap:round;stroke-linejoin:round;stroke-miterlimit:4;stroke-dasharray:none;stroke-opacity:1;paint-order:stroke fill markers"
         class="powerclip"
         d="m -5,59 h 74 v 74 H -5 Z M 72,32 A 40,40 0 0 0 32,-8 40,40 0 0 0 -8,32 40,40 0 0 0 32,72 40,40 0 0 0 72,32 Z" />
    </clipPath>
    <clipPath
       clipPathUnits="userSpaceOnUse"
       id="clipPath1127">
      <circle
         style="display:none;fill:#000000;fill-opacity:1;stroke:none;stroke-width:20;stroke-linecap:round;stroke-linejoin:round;stroke-miterlimit:4;stroke-dasharray:none;stroke-opacity:1;paint-order:stroke fill markers"
         id="circle1129"
         cx="96"
         cy="32"
         r="40"
         d="M 136,32 A 40,40 0 0 1 96,72 40,40 0 0 1 56,32 40,40 0 0 1 96,-8 40,40 0 0 1 136,32 Z" />
      <path
         id="lpe_path-effect1131"
         style="fill:#000000;fill-opacity:1;stroke:none;stroke-width:20;stroke-linecap:round;stroke-linejoin:round;stroke-miterlimit:4;stroke-dasharray:none;stroke-opacity:1;paint-order:stroke fill markers"
         class="powerclip"
         d="M -5,-5 H 69 V 69 H -5 Z M 136,32 A 40,40 0 0 0 96,-8 40,40 0 0 0 56,32 40,40 0 0 0 96,72 40,40 0 0 0 136,32 Z" />
    </clipPath>
    <clipPath
       clipPathUnits="userSpaceOnUse"
       id="clipPath1141">
      <circle
         style="display:none;fill:#000000;fill-opacity:1;stroke:none;stroke-width:16;stroke-linecap:round;stroke-linejoin:round;stroke-miterlimit:4;stroke-dasharray:none;stroke-opacity:1;paint-order:stroke fill markers"
         id="circle1143"
         cx="64"
         cy="64"
         r="32" />
      <path
         id="lpe_path-effect1145"
         style="fill:#000000;fill-opacity:1;stroke:none;stroke-width:16;stroke-linecap:round;stroke-linejoin:round;stroke-miterlimit:4;stroke-dasharray:none;stroke-opacity:1;paint-order:stroke fill markers"
         class="powerclip"
         d="M -5,-5 H 133 V 133 H -5 Z M 96,64 A 32,32 0 0 0 64,32 32,32 0 0 0 32,64 32,32 0 0 0 64,96 32,32 0 0 0 96,64 Z" />
    </clipPath>
  </defs>
  <metadata
     id="metadata5">
    <rdf:RDF>
      <cc:Work
         rdf:about="">
        <dc:format>image/svg+xml</dc:format>
        <dc:type
           rdf:resource="http://purl.org/dc/dcmitype/StillImage" />
        <dc:title></dc:title>
      </cc:Work>
    </rdf:RDF>
  </metadata>
  <g
     id="g1163"
     style="fill:#808080;fill-opacity:1">
    <g
       id="g1139"
       clip-path="url(#clipPath1141)"
       inkscape:path-effect="#path-effect1145"
       style="fill:#808080;fill-opacity:1">
      <path
         style="fill:#808080;fill-opacity:1;stroke:none;stroke-width:16;stroke-linecap:round;stroke-linejoin:round;stroke-miterlimit:4;stroke-dasharray:none;stroke-opacity:1;paint-order:stroke fill markers"
         id="circle835"
         mask="none"
         clip-path="url(#clipPath1127)"
         inkscape:path-effect="#path-effect1131"
         sodipodi:type="arc"
         sodipodi:cx="32"
         sodipodi:cy="32"
         sodipodi:rx="32"
         sodipodi:ry="32"
         d="M 64,32 A 32,32 0 0 1 32,64 32,32 0 0 1 0,32 32,32 0 0 1 32,0 32,32 0 0 1 64,32 Z" />
      <path
         style="fill:#808080;fill-opacity:1;stroke:none;stroke-width:16;stroke-linecap:round;stroke-linejoin:round;stroke-miterlimit:4;stroke-dasharray:none;stroke-opacity:1;paint-order:stroke fill markers"
         id="path10"
         mask="none"
         clip-path="url(#clipPath1103)"
         inkscape:path-effect="#path-effect1107"
         sodipodi:type="arc"
         sodipodi:cx="96"
         sodipodi:cy="32"
         sodipodi:rx="32"
         sodipodi:ry="32"
         d="M 128,32 A 32,32 0 0 1 96,64 32,32 0 0 1 64,32 32,32 0 0 1 96,0 32,32 0 0 1 128,32 Z" />
      <path
         style="fill:#808080;fill-opacity:1;stroke:none;stroke-width:16;stroke-linecap:round;stroke-linejoin:round;stroke-miterlimit:4;stroke-dasharray:none;stroke-opacity:1;paint-order:stroke fill markers"
         id="circle841"
         mask="none"
         clip-path="url(#clipPath1119)"
         inkscape:path-effect="#path-effect1123"
         sodipodi:type="arc"
         sodipodi:cx="32"
         sodipodi:cy="96"
         sodipodi:rx="32"
         sodipodi:ry="32"
         d="M 64,96 A 32,32 0 0 1 32,128 32,32 0 0 1 0,96 32,32 0 0 1 32,64 32,32 0 0 1 64,96 Z" />
      <path
         style="fill:#808080;fill-opacity:1;stroke:none;stroke-width:16;stroke-linecap:round;stroke-linejoin:round;stroke-miterlimit:4;stroke-dasharray:none;stroke-opacity:1;paint-order:stroke fill markers"
         id="circle843"
         mask="none"
         clip-path="url(#clipPath1111)"
         inkscape:path-effect="#path-effect1115"
         sodipodi:type="arc"
         sodipodi:cx="96"
         sodipodi:cy="96"
         sodipodi:rx="32"
         sodipodi:ry="32"
         d="M 128,96 A 32,32 0 0 1 96,128 32,32 0 0 1 64,96 32,32 0 0 1 96,64 32,32 0 0 1 128,96 Z" />
    </g>
    <circle
       style="fill:#808080;fill-opacity:1;stroke:none;stroke-width:12;stroke-linecap:round;stroke-linejoin:round;stroke-miterlimit:4;stroke-dasharray:none;stroke-opacity:1;paint-order:stroke fill markers"
       id="circle835-6"
       mask="none"
       cx="64"
       cy="64"
       r="24" />
  </g>
</svg>
