<?xml version="1.0" encoding="UTF-8" standalone="no"?>
<!-- Created with Inkscape (http://www.inkscape.org/) -->

<svg
   xmlns:dc="http://purl.org/dc/elements/1.1/"
   xmlns:cc="http://creativecommons.org/ns#"
   xmlns:rdf="http://www.w3.org/1999/02/22-rdf-syntax-ns#"
   xmlns:svg="http://www.w3.org/2000/svg"
   xmlns="http://www.w3.org/2000/svg"
   xmlns:xlink="http://www.w3.org/1999/xlink"
   xmlns:sodipodi="http://sodipodi.sourceforge.net/DTD/sodipodi-0.dtd"
   xmlns:inkscape="http://www.inkscape.org/namespaces/inkscape"
   width="64"
   height="64"
   viewBox="0 0 64 64"
   version="1.1"
   id="svg8"
   inkscape:version="0.92.4 (5da689c313, 2019-01-14)"
   sodipodi:docname="Unknown.svg">
  <defs
     id="defs2">
    <linearGradient
       inkscape:collect="always"
       id="linearGradient8076">
      <stop
         style="stop-color:#ffffff;stop-opacity:1"
         offset="0"
         id="stop8072" />
      <stop
         style="stop-color:#ffffff;stop-opacity:0.5"
         offset="1"
         id="stop8074" />
    </linearGradient>
    <linearGradient
       inkscape:collect="always"
       xlink:href="#linearGradient8076"
       id="linearGradient8078"
       x1="32.000004"
       y1="1296"
       x2="32.000004"
       y2="1336"
       gradientUnits="userSpaceOnUse" />
    <linearGradient
       inkscape:collect="always"
       xlink:href="#linearGradient8076"
       id="linearGradient829"
       x1="31.999998"
       y1="1340"
       x2="31.999998"
       y2="1352"
       gradientUnits="userSpaceOnUse" />
  </defs>
  <sodipodi:namedview
     id="base"
     pagecolor="#ffffff"
     bordercolor="#666666"
     borderopacity="1.0"
     inkscape:pageopacity="0.0"
     inkscape:pageshadow="2"
     inkscape:zoom="1"
     inkscape:cx="9.583154"
     inkscape:cy="33.437466"
     inkscape:document-units="px"
     inkscape:current-layer="layer1"
     showgrid="false"
     units="px"
     inkscape:window-width="1366"
     inkscape:window-height="706"
     inkscape:window-x="-8"
     inkscape:window-y="-8"
     inkscape:window-maximized="1"
     inkscape:pagecheckerboard="true"
     inkscape:snap-bbox="true"
     inkscape:bbox-paths="true"
     inkscape:bbox-nodes="true"
     inkscape:snap-bbox-edge-midpoints="true"
     inkscape:snap-bbox-midpoints="true"
     inkscape:object-paths="true"
     inkscape:snap-intersection-paths="true"
     inkscape:snap-smooth-nodes="true"
     inkscape:snap-midpoints="true"
     inkscape:snap-object-midpoints="true"
     inkscape:snap-center="true"
     inkscape:snap-text-baseline="true"
     inkscape:snap-page="true"
     inkscape:snap-global="true">
    <inkscape:grid
       type="xygrid"
       id="grid3713"
       empspacing="4" />
  </sodipodi:namedview>
  <metadata
     id="metadata5">
    <rdf:RDF>
      <cc:Work
         rdf:about="">
        <dc:format>image/svg+xml</dc:format>
        <dc:type
           rdf:resource="http://purl.org/dc/dcmitype/StillImage" />
        <dc:title />
      </cc:Work>
    </rdf:RDF>
  </metadata>
  <g
     inkscape:label="Layer 1"
     inkscape:groupmode="layer"
     id="layer1"
     transform="translate(0,-1292)">
    <path
       style="color:#000000;font-style:normal;font-variant:normal;font-weight:normal;font-stretch:normal;font-size:medium;line-height:normal;font-family:sans-serif;font-variant-ligatures:normal;font-variant-position:normal;font-variant-caps:normal;font-variant-numeric:normal;font-variant-alternates:normal;font-feature-settings:normal;text-indent:0;text-align:start;text-decoration:none;text-decoration-line:none;text-decoration-style:solid;text-decoration-color:#000000;letter-spacing:normal;word-spacing:normal;text-transform:none;writing-mode:lr-tb;direction:ltr;text-orientation:mixed;dominant-baseline:auto;baseline-shift:baseline;text-anchor:start;white-space:normal;shape-padding:0;clip-rule:nonzero;display:inline;overflow:visible;visibility:visible;opacity:0.25;isolation:auto;mix-blend-mode:normal;color-interpolation:sRGB;color-interpolation-filters:linearRGB;solid-color:#000000;solid-opacity:1;vector-effect:none;fill:#000000;fill-opacity:1;fill-rule:nonzero;stroke:none;stroke-width:2;stroke-linecap:round;stroke-linejoin:round;stroke-miterlimit:4;stroke-dasharray:none;stroke-dashoffset:0;stroke-opacity:1;paint-order:normal;color-rendering:auto;image-rendering:auto;shape-rendering:auto;text-rendering:auto;enable-background:accumulate"
       d="m 32,1339 c -3.854149,0 -7,3.1459 -7,7 0,3.8541 3.145851,7 7,7 3.854149,0 7,-3.1459 7,-7 0,-3.8541 -3.145851,-7 -7,-7 z m 0,1 a 6,6 0 0 1 6,6 6,6 0 0 1 -6,6 6,6 0 0 1 -6,-6 6,6 0 0 1 6,-6 z"
       id="circle831"
       inkscape:connector-curvature="0" />
    <path
       style="color:#000000;font-style:normal;font-variant:normal;font-weight:normal;font-stretch:normal;font-size:medium;line-height:normal;font-family:sans-serif;font-variant-ligatures:normal;font-variant-position:normal;font-variant-caps:normal;font-variant-numeric:normal;font-variant-alternates:normal;font-feature-settings:normal;text-indent:0;text-align:start;text-decoration:none;text-decoration-line:none;text-decoration-style:solid;text-decoration-color:#000000;letter-spacing:normal;word-spacing:normal;text-transform:none;writing-mode:lr-tb;direction:ltr;text-orientation:mixed;dominant-baseline:auto;baseline-shift:baseline;text-anchor:start;white-space:normal;shape-padding:0;clip-rule:nonzero;display:inline;overflow:visible;visibility:visible;opacity:0.25;isolation:auto;mix-blend-mode:normal;color-interpolation:sRGB;color-interpolation-filters:linearRGB;solid-color:#000000;solid-opacity:1;vector-effect:none;fill:#000000;fill-opacity:1;fill-rule:nonzero;stroke:none;stroke-width:2;stroke-linecap:round;stroke-linejoin:round;stroke-miterlimit:4;stroke-dasharray:none;stroke-dashoffset:0;stroke-opacity:1;paint-order:normal;color-rendering:auto;image-rendering:auto;shape-rendering:auto;text-rendering:auto;enable-background:accumulate"
       d="m 32,1295 c -4,0 -8.328009,0.046 -16.447266,4.1055 a 1.0001,1.0001 0 0 0 -0.523437,1.1367 l 2,8 a 1.0001,1.0001 0 0 0 1.341797,0.6855 c 4.914623,-1.9658 9.326435,-2.9106 12.302734,-2.6816 1.48815,0.1145 2.583144,0.5154 3.267578,1.1055 C 34.625841,1307.9416 35,1308.7222 35,1310 c 0,2.5556 -1.839391,4.9479 -3.882812,8.7793 C 29.073765,1322.6107 27,1327.8333 27,1336 a 1.0001,1.0001 0 0 0 1,1 h 8 a 1.0001,1.0001 0 0 0 1,-1 c 0,-5.6027 2.800059,-9.3394 5.800781,-13.3555 C 45.801503,1318.6284 49,1314.3333 49,1308 c 0,-6.3333 -3.351912,-9.8113 -7.105469,-11.4199 C 38.140974,1294.9714 34,1295 32,1295 Z m 0,1 c 4,0 16,0 16,12 0,12 -12,16.1212 -12,28 h -8 c 0,-16 8,-20 8,-26 0,-6 -8,-6 -18,-2 l -2,-8 c 8,-4 12,-4 16,-4 z"
       id="path833"
       inkscape:connector-curvature="0" />
    <rect
       style="opacity:0.125;fill:#000000;fill-opacity:1;stroke:none;stroke-width:2;stroke-linecap:butt;stroke-linejoin:miter;stroke-miterlimit:4;stroke-dasharray:none;stroke-opacity:1;paint-order:normal"
       id="rect1219"
       width="64"
       height="64"
       x="-80"
       y="1292"
       rx="8"
       ry="8" />
    <path
       style="color:#000000;font-style:normal;font-variant:normal;font-weight:normal;font-stretch:normal;font-size:medium;line-height:normal;font-family:sans-serif;font-variant-ligatures:normal;font-variant-position:normal;font-variant-caps:normal;font-variant-numeric:normal;font-variant-alternates:normal;font-feature-settings:normal;text-indent:0;text-align:start;text-decoration:none;text-decoration-line:none;text-decoration-style:solid;text-decoration-color:#000000;letter-spacing:normal;word-spacing:normal;text-transform:none;writing-mode:lr-tb;direction:ltr;text-orientation:mixed;dominant-baseline:auto;baseline-shift:baseline;text-anchor:start;white-space:normal;shape-padding:0;clip-rule:nonzero;display:inline;overflow:visible;visibility:visible;opacity:1;isolation:auto;mix-blend-mode:normal;color-interpolation:sRGB;color-interpolation-filters:linearRGB;solid-color:#000000;solid-opacity:1;vector-effect:none;fill:#ffffff;fill-opacity:1;fill-rule:nonzero;stroke:#000000;stroke-width:2;stroke-linecap:round;stroke-linejoin:round;stroke-miterlimit:4;stroke-dasharray:none;stroke-dashoffset:0;stroke-opacity:0.25;paint-order:stroke fill markers;color-rendering:auto;image-rendering:auto;shape-rendering:auto;text-rendering:auto;enable-background:accumulate"
       d="m -68,1299 c -2.752703,0 -5,2.2473 -5,5 h 2 c 0,-1.6793 1.320703,-3 3,-3 z m 8,0 v 2 h 8 v -2 z m 16,0 v 2 h 8 v -2 z m 16,0 v 2 c 1.679297,0 3,1.3207 3,3 h 2 c 0,-2.7527 -2.247297,-5 -5,-5 z m -45,13 v 8 h 2 v -8 z m 48,0 v 8 h 2 v -8 z m -48,16 v 8 h 2 v -8 z m 48,0 v 8 h 2 v -8 z m -48,16 c 0,2.7527 2.247297,5 5,5 v -2 c -1.679297,0 -3,-1.3207 -3,-3 z m 48,0 c 0,1.6793 -1.320703,3 -3,3 v 2 c 2.752703,0 5,-2.2473 5,-5 z m -35,3 v 2 h 8 v -2 z m 16,0 v 2 h 8 v -2 z"
       id="rect8001"
       inkscape:connector-curvature="0" />
    <circle
       style="opacity:0.5;fill:url(#linearGradient829);fill-opacity:1;stroke:none;stroke-width:2;stroke-linecap:round;stroke-linejoin:round;stroke-miterlimit:4;stroke-dasharray:none;stroke-opacity:0.25;paint-order:stroke fill markers"
       id="path8063"
       cx="32"
       cy="1346"
       r="6" />
    <path
       style="opacity:0.5;fill:url(#linearGradient8078);fill-opacity:1;stroke:none;stroke-width:2;stroke-linecap:round;stroke-linejoin:round;stroke-opacity:0.25;paint-order:stroke fill markers;stroke-miterlimit:4;stroke-dasharray:none"
       d="m 16,1300 2,8 c 10,-4 18,-4 18,2 0,6 -8,10 -8,26 h 8 c 0,-11.8788 12,-16 12,-28 0,-12 -12,-12 -16,-12 -4,0 -8,0 -16,4 z"
       id="path8065"
       inkscape:connector-curvature="0"
       sodipodi:nodetypes="cccccccc" />
  </g>
</svg>
