<?xml version="1.0" encoding="UTF-8" standalone="no"?>
<!-- Created with Inkscape (http://www.inkscape.org/) -->

<svg
   xmlns:dc="http://purl.org/dc/elements/1.1/"
   xmlns:cc="http://creativecommons.org/ns#"
   xmlns:rdf="http://www.w3.org/1999/02/22-rdf-syntax-ns#"
   xmlns:svg="http://www.w3.org/2000/svg"
   xmlns="http://www.w3.org/2000/svg"
   xmlns:xlink="http://www.w3.org/1999/xlink"
   xmlns:sodipodi="http://sodipodi.sourceforge.net/DTD/sodipodi-0.dtd"
   xmlns:inkscape="http://www.inkscape.org/namespaces/inkscape"
   width="64"
   height="64"
   viewBox="0 0 64 64"
   version="1.1"
   id="svg8"
   inkscape:version="0.92.4 (5da689c313, 2019-01-14)"
   sodipodi:docname="Error.svg">
  <defs
     id="defs2">
    <linearGradient
       inkscape:collect="always"
       id="linearGradient1020">
      <stop
         style="stop-color:#ff4040;stop-opacity:1"
         offset="0"
         id="stop1016" />
      <stop
         style="stop-color:#bf0000;stop-opacity:1"
         offset="1"
         id="stop1018" />
    </linearGradient>
    <linearGradient
       inkscape:collect="always"
       id="linearGradient3030">
      <stop
         style="stop-color:#000000;stop-opacity:1;"
         offset="0"
         id="stop3026" />
      <stop
         style="stop-color:#000000;stop-opacity:0;"
         offset="1"
         id="stop3028" />
    </linearGradient>
    <radialGradient
       inkscape:collect="always"
       xlink:href="#linearGradient3030"
       id="radialGradient1034-7"
       gradientUnits="userSpaceOnUse"
       gradientTransform="matrix(1,0,0,0.14285714,-480,1174.8571)"
       cx="512"
       cy="1240"
       fx="512"
       fy="1240"
       r="28" />
    <linearGradient
       inkscape:collect="always"
       xlink:href="#linearGradient1020"
       id="linearGradient847"
       x1="32.000008"
       y1="4"
       x2="32.000004"
       y2="60.000008"
       gradientUnits="userSpaceOnUse" />
    <clipPath
       clipPathUnits="userSpaceOnUse"
       id="clipPath853">
      <path
         id="path855"
         d="M 20.402344,4 4,20.402344 V 43.597656 L 20.402344,60 H 43.597656 L 60,43.597656 V 20.402344 L 43.597656,4 Z"
         style="opacity:1;fill:#000000;fill-opacity:1;stroke:none;stroke-width:2;stroke-linecap:round;stroke-linejoin:round;stroke-miterlimit:4;stroke-dasharray:none;stroke-opacity:0.25;paint-order:stroke fill markers"
         inkscape:connector-curvature="0" />
    </clipPath>
  </defs>
  <sodipodi:namedview
     id="base"
     pagecolor="#ffffff"
     bordercolor="#666666"
     borderopacity="1.0"
     inkscape:pageopacity="0.0"
     inkscape:pageshadow="2"
     inkscape:zoom="1"
     inkscape:cx="28.37892"
     inkscape:cy="52.575911"
     inkscape:document-units="px"
     inkscape:current-layer="layer1"
     showgrid="false"
     units="px"
     inkscape:window-width="1366"
     inkscape:window-height="706"
     inkscape:window-x="-8"
     inkscape:window-y="-8"
     inkscape:window-maximized="1"
     inkscape:pagecheckerboard="true"
     inkscape:snap-bbox="true"
     inkscape:bbox-paths="true"
     inkscape:bbox-nodes="true"
     inkscape:snap-bbox-edge-midpoints="true"
     inkscape:snap-bbox-midpoints="true"
     inkscape:object-paths="true"
     inkscape:snap-intersection-paths="true"
     inkscape:snap-smooth-nodes="true"
     inkscape:snap-midpoints="true"
     inkscape:snap-object-midpoints="true"
     inkscape:snap-center="true"
     inkscape:snap-text-baseline="true"
     inkscape:snap-page="true">
    <inkscape:grid
       type="xygrid"
       id="grid3713"
       empspacing="4" />
  </sodipodi:namedview>
  <metadata
     id="metadata5">
    <rdf:RDF>
      <cc:Work
         rdf:about="">
        <dc:format>image/svg+xml</dc:format>
        <dc:type
           rdf:resource="http://purl.org/dc/dcmitype/StillImage" />
        <dc:title />
      </cc:Work>
    </rdf:RDF>
  </metadata>
  <g
     inkscape:label="Layer 1"
     inkscape:groupmode="layer"
     id="layer1"
     transform="translate(0,-1292)">
    <ellipse
       style="opacity:0.25;fill:url(#radialGradient1034-7);fill-opacity:1;stroke:none;stroke-width:2;stroke-linecap:round;stroke-linejoin:round;stroke-miterlimit:4;stroke-dasharray:none;stroke-opacity:1;paint-order:stroke fill markers"
       id="ellipse1032-3"
       cx="32"
       cy="1352"
       rx="28"
       ry="4" />
    <path
       style="opacity:1;fill:url(#linearGradient847);fill-opacity:1;stroke:#000000;stroke-width:2;stroke-linecap:round;stroke-linejoin:round;stroke-miterlimit:4;stroke-dasharray:none;stroke-opacity:0.25;paint-order:stroke fill markers"
       d="M 20.402344 4 L 4 20.402344 L 4 43.597656 L 20.402344 60 L 43.597656 60 L 60 43.597656 L 60 20.402344 L 43.597656 4 L 20.402344 4 z "
       id="rect835"
       transform="translate(0,1292)" />
    <path
       inkscape:connector-curvature="0"
       style="opacity:1;fill:#ffffff;fill-opacity:1;stroke:#000000;stroke-width:2;stroke-linecap:round;stroke-linejoin:round;stroke-miterlimit:4;stroke-dasharray:none;stroke-opacity:0.25;paint-order:stroke fill markers"
       d="m 32,1304 a 4,4 0 0 0 -4,4 4,4 0 0 0 0.06445,0.7031 L 30,1330 a 2,2 0 0 0 2,2 2,2 0 0 0 2,-2 l 1.939453,-21.332 A 4,4 0 0 0 36,1308 a 4,4 0 0 0 -4,-4 z m 0,32 a 4,4 0 0 0 -4,4 4,4 0 0 0 4,4 4,4 0 0 0 4,-4 4,4 0 0 0 -4,-4 z"
       id="path886" />
    <path
       id="path849"
       transform="translate(0,1292)"
       d="M 20.402344 4 L 4 20.402344 L 4 43.597656 L 20.402344 60 L 43.597656 60 L 60 43.597656 L 60 20.402344 L 43.597656 4 L 20.402344 4 z "
       style="opacity:0.25;fill:none;fill-opacity:1;stroke:#ffffff;stroke-width:2;stroke-linecap:round;stroke-linejoin:round;stroke-miterlimit:4;stroke-dasharray:none;stroke-opacity:1;paint-order:normal"
       clip-path="url(#clipPath853)" />
  </g>
</svg>
