<?xml version="1.0" encoding="UTF-8" standalone="no"?>
<!-- Created with Inkscape (http://www.inkscape.org/) -->

<svg
   xmlns:dc="http://purl.org/dc/elements/1.1/"
   xmlns:cc="http://creativecommons.org/ns#"
   xmlns:rdf="http://www.w3.org/1999/02/22-rdf-syntax-ns#"
   xmlns:svg="http://www.w3.org/2000/svg"
   xmlns="http://www.w3.org/2000/svg"
   xmlns:xlink="http://www.w3.org/1999/xlink"
   xmlns:sodipodi="http://sodipodi.sourceforge.net/DTD/sodipodi-0.dtd"
   xmlns:inkscape="http://www.inkscape.org/namespaces/inkscape"
   width="64"
   height="64"
   viewBox="0 0 64 64"
   version="1.1"
   id="svg8"
   inkscape:version="0.92.4 (5da689c313, 2019-01-14)"
   sodipodi:docname="Warning.svg">
  <defs
     id="defs2">
    <linearGradient
       id="linearGradient864"
       inkscape:collect="always">
      <stop
         id="stop860"
         offset="0"
         style="stop-color:#ffff00;stop-opacity:1" />
      <stop
         id="stop862"
         offset="1"
         style="stop-color:#ffbf00;stop-opacity:1" />
    </linearGradient>
    <linearGradient
       inkscape:collect="always"
       id="linearGradient3030">
      <stop
         style="stop-color:#000000;stop-opacity:1;"
         offset="0"
         id="stop3026" />
      <stop
         style="stop-color:#000000;stop-opacity:0;"
         offset="1"
         id="stop3028" />
    </linearGradient>
    <clipPath
       clipPathUnits="userSpaceOnUse"
       id="clipPath1028">
      <path
         id="path1030"
         d="M 31.810547,8.0039062 A 4,4 0 0 0 28.535156,10 L 4.5351562,50 A 4,4 0 0 0 6,55.464844 4,4 0 0 0 8,55.996094 V 56 H 56 V 55.9961 A 4,4 0 0 0 58,55.464844 4,4 0 0 0 59.464844,50 l -24,-40 -0.0039,0.002 A 4,4 0 0 0 34,8.5351562 4,4 0 0 0 31.810547,8.0039062 Z M 32,19.775391 48.935547,48 H 15.064453 Z"
         style="opacity:1;fill:#000000;fill-opacity:1;stroke:none;stroke-width:8;stroke-linecap:square;stroke-linejoin:round;stroke-miterlimit:4;stroke-dasharray:none;stroke-opacity:0.25;paint-order:stroke fill markers"
         inkscape:connector-curvature="0" />
    </clipPath>
    <linearGradient
       inkscape:collect="always"
       xlink:href="#linearGradient864"
       id="linearGradient858"
       x1="32"
       y1="1300"
       x2="32"
       y2="1348"
       gradientUnits="userSpaceOnUse" />
    <radialGradient
       inkscape:collect="always"
       xlink:href="#linearGradient3030"
       id="radialGradient1034-8"
       gradientUnits="userSpaceOnUse"
       gradientTransform="matrix(1,0,0,0.14285714,-479.99999,1170.8571)"
       cx="512"
       cy="1240"
       fx="512"
       fy="1240"
       r="28" />
    <clipPath
       clipPathUnits="userSpaceOnUse"
       id="clipPath894">
      <path
         inkscape:connector-curvature="0"
         id="path896"
         d="M 31.810547,1300.0039 A 4,4 0 0 0 28.535156,1302 l -24,40 A 4,4 0 0 0 6,1347.4648 a 4,4 0 0 0 1.998047,0.5313 h 0.002 48 0.002 A 4,4 0 0 0 58,1347.4648 4,4 0 0 0 59.464844,1342 l -24,-40 h -0.0039 A 4,4 0 0 0 34,1300.5352 a 4,4 0 0 0 -2.189453,-0.5313 z"
         style="opacity:1;fill:#000000;fill-opacity:1;stroke:none;stroke-width:2;stroke-linecap:butt;stroke-linejoin:miter;stroke-miterlimit:4;stroke-dasharray:none;stroke-opacity:0.25;paint-order:stroke fill markers" />
    </clipPath>
  </defs>
  <sodipodi:namedview
     id="base"
     pagecolor="#ffffff"
     bordercolor="#666666"
     borderopacity="1.0"
     inkscape:pageopacity="0.0"
     inkscape:pageshadow="2"
     inkscape:zoom="1"
     inkscape:cx="29.629322"
     inkscape:cy="31.291402"
     inkscape:document-units="px"
     inkscape:current-layer="layer1"
     showgrid="false"
     units="px"
     inkscape:window-width="1366"
     inkscape:window-height="706"
     inkscape:window-x="-8"
     inkscape:window-y="-8"
     inkscape:window-maximized="1"
     inkscape:pagecheckerboard="true"
     inkscape:snap-bbox="true"
     inkscape:bbox-paths="true"
     inkscape:bbox-nodes="true"
     inkscape:snap-bbox-edge-midpoints="true"
     inkscape:snap-bbox-midpoints="true"
     inkscape:object-paths="true"
     inkscape:snap-intersection-paths="true"
     inkscape:snap-smooth-nodes="true"
     inkscape:snap-midpoints="true"
     inkscape:snap-object-midpoints="true"
     inkscape:snap-center="true"
     inkscape:snap-text-baseline="true"
     inkscape:snap-page="true">
    <inkscape:grid
       type="xygrid"
       id="grid3713"
       empspacing="4" />
  </sodipodi:namedview>
  <metadata
     id="metadata5">
    <rdf:RDF>
      <cc:Work
         rdf:about="">
        <dc:format>image/svg+xml</dc:format>
        <dc:type
           rdf:resource="http://purl.org/dc/dcmitype/StillImage" />
        <dc:title />
      </cc:Work>
    </rdf:RDF>
  </metadata>
  <g
     inkscape:label="Layer 1"
     inkscape:groupmode="layer"
     id="layer1"
     transform="translate(0,-1292)">
    <circle
       transform="rotate(30)"
       r="4"
       cy="1229.2203"
       cx="718.92828"
       id="circle1003"
       style="opacity:1;fill:#000000;fill-opacity:1;stroke:none;stroke-width:8;stroke-linecap:square;stroke-linejoin:round;stroke-miterlimit:4;stroke-dasharray:none;stroke-opacity:0.25;paint-order:stroke fill markers" />
    <circle
       transform="rotate(30)"
       r="4"
       cy="1182.5793"
       cx="719.71289"
       id="circle1005"
       style="opacity:1;fill:#000000;fill-opacity:1;stroke:none;stroke-width:8;stroke-linecap:square;stroke-linejoin:round;stroke-miterlimit:4;stroke-dasharray:none;stroke-opacity:0.25;paint-order:stroke fill markers" />
    <circle
       transform="rotate(-30)"
       r="4"
       cy="1261.2203"
       cx="-663.5025"
       id="circle1007"
       style="opacity:1;fill:#000000;fill-opacity:1;stroke:none;stroke-width:8;stroke-linecap:square;stroke-linejoin:round;stroke-miterlimit:4;stroke-dasharray:none;stroke-opacity:0.25;paint-order:stroke fill markers" />
    <path
       style="fill:#000000;stroke:none;stroke-width:1px;stroke-linecap:butt;stroke-linejoin:miter;stroke-opacity:1;fill-opacity:1"
       d="m 8,1428 -3.4641129,-5.9998 23.9999849,-40 h 6.928203 L 59.464247,1422.0001 56,1428 Z"
       id="path833"
       inkscape:connector-curvature="0" />
    <g
       id="g917">
      <ellipse
         ry="4"
         rx="28"
         cy="1348"
         cx="32"
         id="ellipse1032-7"
         style="opacity:0.25;fill:url(#radialGradient1034-8);fill-opacity:1;stroke:none;stroke-width:2;stroke-linecap:round;stroke-linejoin:round;stroke-miterlimit:4;stroke-dasharray:none;stroke-opacity:1;paint-order:stroke fill markers" />
      <path
         inkscape:connector-curvature="0"
         id="circle843"
         d="M 31.810547,1300.0039 A 4,4 0 0 0 28.535156,1302 l -24,40 A 4,4 0 0 0 6,1347.4648 a 4,4 0 0 0 1.998047,0.5313 h 0.002 48 0.002 A 4,4 0 0 0 58,1347.4648 4,4 0 0 0 59.464844,1342 l -24,-40 h -0.0039 A 4,4 0 0 0 34,1300.5352 a 4,4 0 0 0 -2.189453,-0.5313 z"
         style="opacity:1;fill:url(#linearGradient858);fill-opacity:1;stroke:#000000;stroke-width:2;stroke-linecap:round;stroke-linejoin:round;stroke-miterlimit:4;stroke-dasharray:none;stroke-opacity:0.25;paint-order:stroke fill markers" />
      <path
         clip-path="url(#clipPath894)"
         style="opacity:1;fill:none;fill-opacity:1;stroke:#ffffff;stroke-width:2;stroke-linecap:round;stroke-linejoin:round;stroke-miterlimit:4;stroke-dasharray:none;stroke-opacity:0.25;paint-order:normal"
         d="M 31.810547,1300.0039 A 4,4 0 0 0 28.535156,1302 l -24,40 A 4,4 0 0 0 6,1347.4648 a 4,4 0 0 0 1.998047,0.5313 h 0.002 48 0.002 A 4,4 0 0 0 58,1347.4648 4,4 0 0 0 59.464844,1342 l -24,-40 h -0.0039 A 4,4 0 0 0 34,1300.5352 a 4,4 0 0 0 -2.189453,-0.5313 z"
         id="path890"
         inkscape:connector-curvature="0" />
      <path
         style="opacity:0.125;fill:none;fill-opacity:1;stroke:#000000;stroke-width:2;stroke-linecap:round;stroke-linejoin:round;stroke-miterlimit:4;stroke-dasharray:none;stroke-opacity:1;paint-order:stroke fill markers"
         d="m 32,20 c -2.209139,0 -4,1.790861 -4,4 0.0017,0.278485 0.03245,0.556032 0.0918,0.828125 L 30,38 c 0,1.104569 0.895431,2 2,2 1.104569,0 2,-0.895431 2,-2 L 35.904297,24.853516 C 35.966738,24.57327 35.998824,24.287116 36,24 36,21.790861 34.209139,20 32,20 Z m 0,24 c -2.209139,0 -4,1.790861 -4,4 0,2.209139 1.790861,4 4,4 2.209139,0 4,-1.790861 4,-4 0,-2.209139 -1.790861,-4 -4,-4 z"
         transform="translate(0,1292)"
         id="path837"
         inkscape:connector-curvature="0"
         sodipodi:nodetypes="scccscccssssss" />
      <path
         sodipodi:nodetypes="scccscccssssss"
         inkscape:connector-curvature="0"
         id="path904"
         transform="translate(0,1292)"
         d="m 32,20 c -2.209139,0 -4,1.790861 -4,4 0.0017,0.278485 0.03245,0.556032 0.0918,0.828125 L 30,38 c 0,1.104569 0.895431,2 2,2 1.104569,0 2,-0.895431 2,-2 L 35.904297,24.853516 C 35.966738,24.57327 35.998824,24.287116 36,24 36,21.790861 34.209139,20 32,20 Z m 0,24 c -2.209139,0 -4,1.790861 -4,4 0,2.209139 1.790861,4 4,4 2.209139,0 4,-1.790861 4,-4 0,-2.209139 -1.790861,-4 -4,-4 z"
         style="opacity:1;fill:#ffffff;fill-opacity:1;stroke:none;stroke-width:2;stroke-linecap:butt;stroke-linejoin:miter;stroke-miterlimit:4;stroke-dasharray:none;stroke-opacity:0.25;paint-order:stroke fill markers" />
    </g>
  </g>
</svg>
