<?xml version="1.0" encoding="UTF-8" standalone="no"?>
<!-- Created with Inkscape (http://www.inkscape.org/) -->

<svg
   xmlns:dc="http://purl.org/dc/elements/1.1/"
   xmlns:cc="http://creativecommons.org/ns#"
   xmlns:rdf="http://www.w3.org/1999/02/22-rdf-syntax-ns#"
   xmlns:svg="http://www.w3.org/2000/svg"
   xmlns="http://www.w3.org/2000/svg"
   xmlns:xlink="http://www.w3.org/1999/xlink"
   xmlns:sodipodi="http://sodipodi.sourceforge.net/DTD/sodipodi-0.dtd"
   xmlns:inkscape="http://www.inkscape.org/namespaces/inkscape"
   width="32"
   height="32"
   viewBox="0 0 32 32"
   version="1.1"
   id="svg8"
   inkscape:version="0.92.4 (5da689c313, 2019-01-14)"
   sodipodi:docname="links-logo.svg">
  <defs
     id="defs2">
    <linearGradient
       inkscape:collect="always"
       id="linearGradient867">
      <stop
         style="stop-color:#333333;stop-opacity:1"
         offset="0"
         id="stop863" />
      <stop
         style="stop-color:#999999;stop-opacity:1"
         offset="1"
         id="stop865" />
    </linearGradient>
    <clipPath
       id="clipPath1421"
       clipPathUnits="userSpaceOnUse">
      <path
         sodipodi:nodetypes="ccccccc"
         inkscape:connector-curvature="0"
         style="fill:#000000;fill-opacity:1;stroke:none;stroke-width:1px;stroke-linecap:butt;stroke-linejoin:miter;stroke-opacity:1"
         d="m 95.861328,192 v 8 l -8,4 H 136 l -7.86133,-4 v -8 z"
         id="path1423" />
    </clipPath>
    <clipPath
       id="clipPath1350"
       clipPathUnits="userSpaceOnUse">
      <rect
         style="opacity:1;fill:#000000;fill-opacity:1;stroke:none;stroke-width:1.88561809;stroke-linecap:round;stroke-linejoin:round;stroke-miterlimit:4;stroke-dasharray:none;stroke-opacity:1;paint-order:stroke fill markers"
         id="rect1352"
         width="128"
         height="80"
         x="48"
         y="387.99997"
         rx="4.0000105"
         ry="4.0000105" />
    </clipPath>
    <clipPath
       id="clipPath1256"
       clipPathUnits="userSpaceOnUse">
      <rect
         style="opacity:1;fill:#000000;fill-opacity:1;stroke:none;stroke-width:1.88561809;stroke-linecap:round;stroke-linejoin:round;stroke-miterlimit:4;stroke-dasharray:none;stroke-opacity:1;paint-order:stroke fill markers"
         id="rect1258"
         width="128"
         height="80"
         x="48"
         y="387.99997"
         rx="4.0000105"
         ry="4.0000105" />
    </clipPath>
    <clipPath
       id="clipPath1350-7"
       clipPathUnits="userSpaceOnUse">
      <rect
         style="opacity:1;fill:#000000;fill-opacity:1;stroke:none;stroke-width:1.88561809;stroke-linecap:round;stroke-linejoin:round;stroke-miterlimit:4;stroke-dasharray:none;stroke-opacity:1;paint-order:stroke fill markers"
         id="rect1352-6"
         width="128"
         height="80"
         x="48"
         y="387.99997"
         rx="4.0000105"
         ry="4.0000105" />
    </clipPath>
    <clipPath
       id="clipPath1256-2"
       clipPathUnits="userSpaceOnUse">
      <rect
         style="opacity:1;fill:#000000;fill-opacity:1;stroke:none;stroke-width:1.88561809;stroke-linecap:round;stroke-linejoin:round;stroke-miterlimit:4;stroke-dasharray:none;stroke-opacity:1;paint-order:stroke fill markers"
         id="rect1258-3"
         width="128"
         height="80"
         x="48"
         y="387.99997"
         rx="4.0000105"
         ry="4.0000105" />
    </clipPath>
    <clipPath
       id="clipPath1421-2"
       clipPathUnits="userSpaceOnUse">
      <path
         sodipodi:nodetypes="ccccccc"
         inkscape:connector-curvature="0"
         style="fill:#000000;fill-opacity:1;stroke:none;stroke-width:1px;stroke-linecap:butt;stroke-linejoin:miter;stroke-opacity:1"
         d="m 95.861328,192 v 8 l -8,4 H 136 l -7.86133,-4 v -8 z"
         id="path1423-7" />
    </clipPath>
    <clipPath
       id="clipPath3235"
       clipPathUnits="userSpaceOnUse">
      <path
         inkscape:connector-curvature="0"
         style="fill:#000000;fill-opacity:1;stroke:none;stroke-width:1px;stroke-linecap:butt;stroke-linejoin:miter;stroke-opacity:1"
         d="m 516,1264 -3.10156,10.8574 -9.86914,-5.4844 -5.65625,5.6563 5.48437,9.8691 L 492,1288 v 8 l 10.85742,3.1016 -5.48437,9.8691 5.65625,5.6563 9.86914,-5.4844 L 516,1320 h 8 l 3.10156,-10.8574 9.86914,5.4844 5.65625,-5.6563 -5.48437,-9.8691 L 548,1296 v -8 l -10.85742,-3.1016 5.48437,-9.8691 -5.65625,-5.6563 -9.86914,5.4844 L 524,1264 Z m 4,20 a 8,8 0 0 1 8,8 8,8 0 0 1 -8,8 8,8 0 0 1 -8,-8 8,8 0 0 1 8,-8 z"
         id="path3237" />
    </clipPath>
    <pattern
       id="EMFhbasepattern"
       patternUnits="userSpaceOnUse"
       width="6"
       height="6"
       x="0"
       y="0" />
    <clipPath
       clipPathUnits="userSpaceOnUse"
       id="clipPath4371">
      <path
         style="opacity:1;fill:#000000;fill-opacity:1;stroke:none;stroke-width:2;stroke-linecap:round;stroke-linejoin:round;stroke-miterlimit:4;stroke-dasharray:none;stroke-opacity:0.25;paint-order:stroke fill markers"
         d="m 96,1164 a 32,31.999958 0 0 0 -32,32 32,31.999958 0 0 0 32,32 31.999916,31.999916 0 0 1 24.0312,-30.9688 39.99997,39.999916 0 0 1 0,-1.0312 39.99997,39.999916 0 0 1 3.5,-16.2968 A 32,31.999958 0 0 0 96,1164 Z m 64,0 a 32,31.999958 0 0 0 -32,32 31.999916,31.999916 0 0 1 30.9688,24.0312 39.99997,39.999916 0 0 1 1.0312,0 39.99997,39.999916 0 0 1 16.2968,3.5 32,31.999958 0 0 0 15.7032,-27.5 32,31.999958 0 0 0 -32,-32 z m -32,40 a 23.999916,23.999916 0 0 0 -24,24 23.999916,23.999916 0 0 0 24,24 23.999916,23.999916 0 0 0 24,-24 23.999916,23.999916 0 0 0 -24,-24 z m 32,24 a 31.999916,31.999916 0 0 1 -24.0312,30.9688 39.99997,39.999916 0 0 1 0,1.0312 39.99997,39.999916 0 0 1 -3.5,16.2968 32,31.999958 0 0 0 27.5,15.7032 32,31.999958 0 0 0 32,-32 32,31.999958 0 0 0 -32,-32 z m -80.2968,4.5 A 32,31.999958 0 0 0 64,1260 a 32,31.999958 0 0 0 32,32 32,31.999958 0 0 0 32,-32 31.999916,31.999916 0 0 1 -30.9688,-24.0312 39.99997,39.999916 0 0 1 -1.0312,0 39.99997,39.999916 0 0 1 -16.2968,-3.5 z"
         id="path4373"
         inkscape:connector-curvature="0" />
    </clipPath>
    <linearGradient
       inkscape:collect="always"
       xlink:href="#linearGradient867"
       id="linearGradient871"
       x1="15.999999"
       y1="1332"
       x2="15.999999"
       y2="1348"
       gradientUnits="userSpaceOnUse" />
    <clipPath
       clipPathUnits="userSpaceOnUse"
       id="clipPath877">
      <path
         inkscape:connector-curvature="0"
         id="path879"
         d="m 12,1332 a 4,3.9999947 0 0 0 -4,4 4,3.9999947 0 0 0 4,4 3.9999895,3.9999895 0 0 1 3.0039,-3.8711 4.9999962,4.9999895 0 0 1 0,-0.1289 4.9999962,4.9999895 0 0 1 0.4375,-2.0371 A 4,3.9999947 0 0 0 12,1332 Z m 8,0 a 4,3.9999947 0 0 0 -4,4 3.9999895,3.9999895 0 0 1 3.8711,3.0039 4.9999962,4.9999895 0 0 1 0.1289,0 4.9999962,4.9999895 0 0 1 2.0371,0.4375 4,3.9999947 0 0 0 1.9629,-3.4375 4,3.9999947 0 0 0 -4,-4 z m -4,5 a 2.9999895,2.9999895 0 0 0 -3,3 2.9999895,2.9999895 0 0 0 3,3 2.9999895,2.9999895 0 0 0 3,-3 2.9999895,2.9999895 0 0 0 -3,-3 z m 4,3 a 3.9999895,3.9999895 0 0 1 -3.0039,3.8711 4.9999962,4.9999895 0 0 1 0,0.1289 4.9999962,4.9999895 0 0 1 -0.4375,2.0371 4,3.9999947 0 0 0 3.4375,1.9629 4,3.9999947 0 0 0 4,-4 4,3.9999947 0 0 0 -4,-4 z m -10.0371,0.5625 A 4,3.9999947 0 0 0 8,1344 a 4,3.9999947 0 0 0 4,4 4,3.9999947 0 0 0 4,-4 3.9999895,3.9999895 0 0 1 -3.8711,-3.0039 4.9999962,4.9999895 0 0 1 -0.1289,0 4.9999962,4.9999895 0 0 1 -2.0371,-0.4375 z"
         style="opacity:1;fill:#000000;fill-opacity:1;stroke:none;stroke-width:0.25;stroke-linecap:round;stroke-linejoin:round;stroke-miterlimit:4;stroke-dasharray:none;stroke-opacity:0.25;paint-order:stroke fill markers" />
    </clipPath>
  </defs>
  <sodipodi:namedview
     id="base"
     pagecolor="#ffffff"
     bordercolor="#666666"
     borderopacity="1.0"
     inkscape:pageopacity="0.0"
     inkscape:pageshadow="2"
     inkscape:zoom="16"
     inkscape:cx="10.269521"
     inkscape:cy="16.282668"
     inkscape:document-units="px"
     inkscape:current-layer="layer1"
     showgrid="false"
     units="px"
     inkscape:window-width="1366"
     inkscape:window-height="706"
     inkscape:window-x="-8"
     inkscape:window-y="-8"
     inkscape:window-maximized="1"
     inkscape:snap-bbox="true"
     inkscape:bbox-paths="true"
     inkscape:bbox-nodes="true"
     inkscape:snap-bbox-edge-midpoints="true"
     inkscape:snap-bbox-midpoints="true"
     inkscape:snap-intersection-paths="true"
     inkscape:object-paths="true"
     inkscape:snap-smooth-nodes="true"
     inkscape:snap-midpoints="true"
     inkscape:snap-object-midpoints="true"
     inkscape:snap-center="true"
     inkscape:snap-text-baseline="true"
     inkscape:snap-page="true"
     inkscape:pagecheckerboard="true">
    <inkscape:grid
       type="xygrid"
       id="grid3713"
       empspacing="4" />
  </sodipodi:namedview>
  <metadata
     id="metadata5">
    <rdf:RDF>
      <cc:Work
         rdf:about="">
        <dc:format>image/svg+xml</dc:format>
        <dc:type
           rdf:resource="http://purl.org/dc/dcmitype/StillImage" />
        <dc:title></dc:title>
      </cc:Work>
    </rdf:RDF>
  </metadata>
  <g
     inkscape:label="Layer 1"
     inkscape:groupmode="layer"
     id="layer1"
     transform="translate(0,-1324)">
    <path
       inkscape:connector-curvature="0"
       id="path859"
       d="m 12,1333 a 4,3.9999947 0 0 0 -4,4 4,3.9999947 0 0 0 4,4 3.9999895,3.9999895 0 0 1 3.0039,-3.8711 4.9999962,4.9999895 0 0 1 0,-0.1289 4.9999962,4.9999895 0 0 1 0.4375,-2.0371 A 4,3.9999947 0 0 0 12,1333 Z m 8,0 a 4,3.9999947 0 0 0 -4,4 3.9999895,3.9999895 0 0 1 3.8711,3.0039 4.9999962,4.9999895 0 0 1 0.1289,0 4.9999962,4.9999895 0 0 1 2.0371,0.4375 4,3.9999947 0 0 0 1.9629,-3.4375 4,3.9999947 0 0 0 -4,-4 z m -4,5 a 2.9999895,2.9999895 0 0 0 -3,3 2.9999895,2.9999895 0 0 0 3,3 2.9999895,2.9999895 0 0 0 3,-3 2.9999895,2.9999895 0 0 0 -3,-3 z m 4,3 a 3.9999895,3.9999895 0 0 1 -3.0039,3.8711 4.9999962,4.9999895 0 0 1 0,0.1289 4.9999962,4.9999895 0 0 1 -0.4375,2.0371 4,3.9999947 0 0 0 3.4375,1.9629 4,3.9999947 0 0 0 4,-4 4,3.9999947 0 0 0 -4,-4 z m -10.0371,0.5625 A 4,3.9999947 0 0 0 8,1345 a 4,3.9999947 0 0 0 4,4 4,3.9999947 0 0 0 4,-4 3.9999895,3.9999895 0 0 1 -3.8711,-3.0039 4.9999962,4.9999895 0 0 1 -0.1289,0 4.9999962,4.9999895 0 0 1 -2.0371,-0.4375 z"
       style="opacity:0.5;fill:#ffffff;fill-opacity:1;stroke:none;stroke-width:0.25;stroke-linecap:round;stroke-linejoin:round;stroke-miterlimit:4;stroke-dasharray:none;stroke-opacity:0.25;paint-order:stroke fill markers" />
    <path
       style="opacity:1;fill:url(#linearGradient871);fill-opacity:1;stroke:none;stroke-width:0.25;stroke-linecap:round;stroke-linejoin:round;stroke-miterlimit:4;stroke-dasharray:none;stroke-opacity:0.25;paint-order:stroke fill markers"
       d="m 12,1332 a 4,3.9999947 0 0 0 -4,4 4,3.9999947 0 0 0 4,4 3.9999895,3.9999895 0 0 1 3.0039,-3.8711 4.9999962,4.9999895 0 0 1 0,-0.1289 4.9999962,4.9999895 0 0 1 0.4375,-2.0371 A 4,3.9999947 0 0 0 12,1332 Z m 8,0 a 4,3.9999947 0 0 0 -4,4 3.9999895,3.9999895 0 0 1 3.8711,3.0039 4.9999962,4.9999895 0 0 1 0.1289,0 4.9999962,4.9999895 0 0 1 2.0371,0.4375 4,3.9999947 0 0 0 1.9629,-3.4375 4,3.9999947 0 0 0 -4,-4 z m -4,5 a 2.9999895,2.9999895 0 0 0 -3,3 2.9999895,2.9999895 0 0 0 3,3 2.9999895,2.9999895 0 0 0 3,-3 2.9999895,2.9999895 0 0 0 -3,-3 z m 4,3 a 3.9999895,3.9999895 0 0 1 -3.0039,3.8711 4.9999962,4.9999895 0 0 1 0,0.1289 4.9999962,4.9999895 0 0 1 -0.4375,2.0371 4,3.9999947 0 0 0 3.4375,1.9629 4,3.9999947 0 0 0 4,-4 4,3.9999947 0 0 0 -4,-4 z m -10.0371,0.5625 A 4,3.9999947 0 0 0 8,1344 a 4,3.9999947 0 0 0 4,4 4,3.9999947 0 0 0 4,-4 3.9999895,3.9999895 0 0 1 -3.8711,-3.0039 4.9999962,4.9999895 0 0 1 -0.1289,0 4.9999962,4.9999895 0 0 1 -2.0371,-0.4375 z"
       id="path824-8"
       inkscape:connector-curvature="0" />
    <path
       inkscape:connector-curvature="0"
       id="path873"
       d="m 12,1332 a 4,3.9999947 0 0 0 -4,4 4,3.9999947 0 0 0 4,4 3.9999895,3.9999895 0 0 1 3.0039,-3.8711 4.9999962,4.9999895 0 0 1 0,-0.1289 4.9999962,4.9999895 0 0 1 0.4375,-2.0371 A 4,3.9999947 0 0 0 12,1332 Z m 8,0 a 4,3.9999947 0 0 0 -4,4 3.9999895,3.9999895 0 0 1 3.8711,3.0039 4.9999962,4.9999895 0 0 1 0.1289,0 4.9999962,4.9999895 0 0 1 2.0371,0.4375 4,3.9999947 0 0 0 1.9629,-3.4375 4,3.9999947 0 0 0 -4,-4 z m -4,5 a 2.9999895,2.9999895 0 0 0 -3,3 2.9999895,2.9999895 0 0 0 3,3 2.9999895,2.9999895 0 0 0 3,-3 2.9999895,2.9999895 0 0 0 -3,-3 z m 4,3 a 3.9999895,3.9999895 0 0 1 -3.0039,3.8711 4.9999962,4.9999895 0 0 1 0,0.1289 4.9999962,4.9999895 0 0 1 -0.4375,2.0371 4,3.9999947 0 0 0 3.4375,1.9629 4,3.9999947 0 0 0 4,-4 4,3.9999947 0 0 0 -4,-4 z m -10.0371,0.5625 A 4,3.9999947 0 0 0 8,1344 a 4,3.9999947 0 0 0 4,4 4,3.9999947 0 0 0 4,-4 3.9999895,3.9999895 0 0 1 -3.8711,-3.0039 4.9999962,4.9999895 0 0 1 -0.1289,0 4.9999962,4.9999895 0 0 1 -2.0371,-0.4375 z"
       style="opacity:0.5;fill:none;fill-opacity:1;stroke:#000000;stroke-width:2;stroke-linecap:butt;stroke-linejoin:miter;stroke-miterlimit:4;stroke-dasharray:none;stroke-opacity:1;paint-order:normal"
       clip-path="url(#clipPath877)" />
  </g>
</svg>
