<?xml version="1.0" encoding="UTF-8" standalone="no"?>
<!-- Created with Inkscape (http://www.inkscape.org/) -->

<svg
   xmlns:dc="http://purl.org/dc/elements/1.1/"
   xmlns:cc="http://creativecommons.org/ns#"
   xmlns:rdf="http://www.w3.org/1999/02/22-rdf-syntax-ns#"
   xmlns:svg="http://www.w3.org/2000/svg"
   xmlns="http://www.w3.org/2000/svg"
   xmlns:xlink="http://www.w3.org/1999/xlink"
   xmlns:sodipodi="http://sodipodi.sourceforge.net/DTD/sodipodi-0.dtd"
   xmlns:inkscape="http://www.inkscape.org/namespaces/inkscape"
   width="256"
   height="256"
   viewBox="0 0 256 256"
   version="1.1"
   id="svg8"
   inkscape:version="0.92.4 (5da689c313, 2019-01-14)"
   sodipodi:docname="Poppy.svg">
  <defs
     id="defs2">
    <linearGradient
       inkscape:collect="always"
       id="linearGradient4330">
      <stop
         style="stop-color:#ff0000;stop-opacity:1"
         offset="0"
         id="stop4326" />
      <stop
         style="stop-color:#400000;stop-opacity:1"
         offset="1"
         id="stop4328" />
    </linearGradient>
    <linearGradient
       inkscape:collect="always"
       id="linearGradient4275">
      <stop
         style="stop-color:#ffffff;stop-opacity:1"
         offset="0"
         id="stop4271" />
      <stop
         style="stop-color:#bfbfbf;stop-opacity:1"
         offset="1"
         id="stop4273" />
    </linearGradient>
    <clipPath
       id="clipPath1421"
       clipPathUnits="userSpaceOnUse">
      <path
         sodipodi:nodetypes="ccccccc"
         inkscape:connector-curvature="0"
         style="fill:#000000;fill-opacity:1;stroke:none;stroke-width:1px;stroke-linecap:butt;stroke-linejoin:miter;stroke-opacity:1"
         d="m 95.861328,192 v 8 l -8,4 H 136 l -7.86133,-4 v -8 z"
         id="path1423" />
    </clipPath>
    <clipPath
       id="clipPath1350"
       clipPathUnits="userSpaceOnUse">
      <rect
         style="opacity:1;fill:#000000;fill-opacity:1;stroke:none;stroke-width:1.88561809;stroke-linecap:round;stroke-linejoin:round;stroke-miterlimit:4;stroke-dasharray:none;stroke-opacity:1;paint-order:stroke fill markers"
         id="rect1352"
         width="128"
         height="80"
         x="48"
         y="387.99997"
         rx="4.0000105"
         ry="4.0000105" />
    </clipPath>
    <clipPath
       id="clipPath1256"
       clipPathUnits="userSpaceOnUse">
      <rect
         style="opacity:1;fill:#000000;fill-opacity:1;stroke:none;stroke-width:1.88561809;stroke-linecap:round;stroke-linejoin:round;stroke-miterlimit:4;stroke-dasharray:none;stroke-opacity:1;paint-order:stroke fill markers"
         id="rect1258"
         width="128"
         height="80"
         x="48"
         y="387.99997"
         rx="4.0000105"
         ry="4.0000105" />
    </clipPath>
    <clipPath
       id="clipPath1350-7"
       clipPathUnits="userSpaceOnUse">
      <rect
         style="opacity:1;fill:#000000;fill-opacity:1;stroke:none;stroke-width:1.88561809;stroke-linecap:round;stroke-linejoin:round;stroke-miterlimit:4;stroke-dasharray:none;stroke-opacity:1;paint-order:stroke fill markers"
         id="rect1352-6"
         width="128"
         height="80"
         x="48"
         y="387.99997"
         rx="4.0000105"
         ry="4.0000105" />
    </clipPath>
    <clipPath
       id="clipPath1256-2"
       clipPathUnits="userSpaceOnUse">
      <rect
         style="opacity:1;fill:#000000;fill-opacity:1;stroke:none;stroke-width:1.88561809;stroke-linecap:round;stroke-linejoin:round;stroke-miterlimit:4;stroke-dasharray:none;stroke-opacity:1;paint-order:stroke fill markers"
         id="rect1258-3"
         width="128"
         height="80"
         x="48"
         y="387.99997"
         rx="4.0000105"
         ry="4.0000105" />
    </clipPath>
    <clipPath
       id="clipPath1421-2"
       clipPathUnits="userSpaceOnUse">
      <path
         sodipodi:nodetypes="ccccccc"
         inkscape:connector-curvature="0"
         style="fill:#000000;fill-opacity:1;stroke:none;stroke-width:1px;stroke-linecap:butt;stroke-linejoin:miter;stroke-opacity:1"
         d="m 95.861328,192 v 8 l -8,4 H 136 l -7.86133,-4 v -8 z"
         id="path1423-7" />
    </clipPath>
    <linearGradient
       id="linearGradient3030"
       inkscape:collect="always">
      <stop
         id="stop3026"
         offset="0"
         style="stop-color:#000000;stop-opacity:1;" />
      <stop
         id="stop3028"
         offset="1"
         style="stop-color:#000000;stop-opacity:0;" />
    </linearGradient>
    <clipPath
       id="clipPath3235"
       clipPathUnits="userSpaceOnUse">
      <path
         inkscape:connector-curvature="0"
         style="fill:#000000;fill-opacity:1;stroke:none;stroke-width:1px;stroke-linecap:butt;stroke-linejoin:miter;stroke-opacity:1"
         d="m 516,1264 -3.10156,10.8574 -9.86914,-5.4844 -5.65625,5.6563 5.48437,9.8691 L 492,1288 v 8 l 10.85742,3.1016 -5.48437,9.8691 5.65625,5.6563 9.86914,-5.4844 L 516,1320 h 8 l 3.10156,-10.8574 9.86914,5.4844 5.65625,-5.6563 -5.48437,-9.8691 L 548,1296 v -8 l -10.85742,-3.1016 5.48437,-9.8691 -5.65625,-5.6563 -9.86914,5.4844 L 524,1264 Z m 4,20 a 8,8 0 0 1 8,8 8,8 0 0 1 -8,8 8,8 0 0 1 -8,-8 8,8 0 0 1 8,-8 z"
         id="path3237" />
    </clipPath>
    <linearGradient
       id="linearGradient3099"
       inkscape:collect="always">
      <stop
         id="stop3095"
         offset="0"
         style="stop-color:#ffffff;stop-opacity:1" />
      <stop
         id="stop3097"
         offset="1"
         style="stop-color:#ffffff;stop-opacity:0.5" />
    </linearGradient>
    <pattern
       id="EMFhbasepattern"
       patternUnits="userSpaceOnUse"
       width="6"
       height="6"
       x="0"
       y="0" />
    <linearGradient
       inkscape:collect="always"
       xlink:href="#linearGradient4275"
       id="linearGradient4277"
       x1="127.99998"
       y1="1116"
       x2="127.99998"
       y2="1340"
       gradientUnits="userSpaceOnUse" />
    <radialGradient
       gradientUnits="userSpaceOnUse"
       gradientTransform="matrix(4,0,0,0.57142856,-1920,631.4284)"
       r="28"
       fy="1240"
       fx="512"
       cy="1240"
       cx="512"
       id="radialGradient3032-6-9"
       xlink:href="#linearGradient3030"
       inkscape:collect="always" />
    <linearGradient
       gradientTransform="matrix(4,0,0,4,-1952,-3940)"
       gradientUnits="userSpaceOnUse"
       y2="1292"
       x2="520"
       y1="1264"
       x1="520"
       id="linearGradient3225-0"
       xlink:href="#linearGradient3099"
       inkscape:collect="always" />
    <clipPath
       clipPathUnits="userSpaceOnUse"
       id="clipPath4371">
      <path
         style="opacity:1;fill:#000000;fill-opacity:1;stroke:none;stroke-width:2;stroke-linecap:round;stroke-linejoin:round;stroke-miterlimit:4;stroke-dasharray:none;stroke-opacity:0.25;paint-order:stroke fill markers"
         d="m 96,1164 a 32,31.999958 0 0 0 -32,32 32,31.999958 0 0 0 32,32 31.999916,31.999916 0 0 1 24.0312,-30.9688 39.99997,39.999916 0 0 1 0,-1.0312 39.99997,39.999916 0 0 1 3.5,-16.2968 A 32,31.999958 0 0 0 96,1164 Z m 64,0 a 32,31.999958 0 0 0 -32,32 31.999916,31.999916 0 0 1 30.9688,24.0312 39.99997,39.999916 0 0 1 1.0312,0 39.99997,39.999916 0 0 1 16.2968,3.5 32,31.999958 0 0 0 15.7032,-27.5 32,31.999958 0 0 0 -32,-32 z m -32,40 a 23.999916,23.999916 0 0 0 -24,24 23.999916,23.999916 0 0 0 24,24 23.999916,23.999916 0 0 0 24,-24 23.999916,23.999916 0 0 0 -24,-24 z m 32,24 a 31.999916,31.999916 0 0 1 -24.0312,30.9688 39.99997,39.999916 0 0 1 0,1.0312 39.99997,39.999916 0 0 1 -3.5,16.2968 32,31.999958 0 0 0 27.5,15.7032 32,31.999958 0 0 0 32,-32 32,31.999958 0 0 0 -32,-32 z m -80.2968,4.5 A 32,31.999958 0 0 0 64,1260 a 32,31.999958 0 0 0 32,32 32,31.999958 0 0 0 32,-32 31.999916,31.999916 0 0 1 -30.9688,-24.0312 39.99997,39.999916 0 0 1 -1.0312,0 39.99997,39.999916 0 0 1 -16.2968,-3.5 z"
         id="path4373"
         inkscape:connector-curvature="0" />
    </clipPath>
    <radialGradient
       inkscape:collect="always"
       xlink:href="#linearGradient4330"
       id="radialGradient4466"
       cx="128"
       cy="1340"
       fx="128"
       fy="1340"
       r="64"
       gradientUnits="userSpaceOnUse"
       gradientTransform="matrix(3.5,0,0,3.5,-320,-3350)" />
  </defs>
  <sodipodi:namedview
     id="base"
     pagecolor="#ffffff"
     bordercolor="#666666"
     borderopacity="1.0"
     inkscape:pageopacity="0.0"
     inkscape:pageshadow="2"
     inkscape:zoom="1"
     inkscape:cx="135.77364"
     inkscape:cy="114.76358"
     inkscape:document-units="px"
     inkscape:current-layer="layer1"
     showgrid="false"
     units="px"
     inkscape:window-width="1366"
     inkscape:window-height="706"
     inkscape:window-x="-8"
     inkscape:window-y="-8"
     inkscape:window-maximized="1"
     inkscape:snap-bbox="true"
     inkscape:bbox-paths="true"
     inkscape:bbox-nodes="true"
     inkscape:snap-bbox-edge-midpoints="true"
     inkscape:snap-bbox-midpoints="true"
     inkscape:snap-intersection-paths="true"
     inkscape:object-paths="true"
     inkscape:snap-smooth-nodes="true"
     inkscape:snap-midpoints="true"
     inkscape:snap-object-midpoints="true"
     inkscape:snap-center="true"
     inkscape:snap-text-baseline="true"
     inkscape:snap-page="true">
    <inkscape:grid
       type="xygrid"
       id="grid3713"
       empspacing="4" />
  </sodipodi:namedview>
  <metadata
     id="metadata5">
    <rdf:RDF>
      <cc:Work
         rdf:about="">
        <dc:format>image/svg+xml</dc:format>
        <dc:type
           rdf:resource="http://purl.org/dc/dcmitype/StillImage" />
        <dc:title></dc:title>
      </cc:Work>
    </rdf:RDF>
  </metadata>
  <g
     inkscape:label="Layer 1"
     inkscape:groupmode="layer"
     id="layer1"
     transform="translate(0,-1100)">
    <g
       id="g4381">
      <ellipse
         ry="16"
         rx="112"
         cy="1340"
         cx="128"
         id="path3024-7-0"
         style="opacity:0.25;fill:url(#radialGradient3032-6-9);fill-opacity:1;stroke:none;stroke-width:8;stroke-linecap:round;stroke-linejoin:round;stroke-miterlimit:4;stroke-dasharray:none;stroke-opacity:1;paint-order:stroke fill markers" />
      <circle
         r="112"
         cy="1228"
         cx="128"
         id="path4261"
         style="opacity:1;fill:url(#linearGradient4277);fill-opacity:1;stroke:#000000;stroke-width:2;stroke-linecap:butt;stroke-linejoin:miter;stroke-miterlimit:4;stroke-dasharray:none;stroke-opacity:0.25;paint-order:stroke fill markers" />
      <path
         inkscape:connector-curvature="0"
         id="path824-8"
         d="m 96,1164 a 32,31.999958 0 0 0 -32,32 32,31.999958 0 0 0 32,32 31.999916,31.999916 0 0 1 24.0312,-30.9688 39.99997,39.999916 0 0 1 0,-1.0312 39.99997,39.999916 0 0 1 3.5,-16.2968 A 32,31.999958 0 0 0 96,1164 Z m 64,0 a 32,31.999958 0 0 0 -32,32 31.999916,31.999916 0 0 1 30.9688,24.0312 39.99997,39.999916 0 0 1 1.0312,0 39.99997,39.999916 0 0 1 16.2968,3.5 32,31.999958 0 0 0 15.7032,-27.5 32,31.999958 0 0 0 -32,-32 z m -32,40 a 23.999916,23.999916 0 0 0 -24,24 23.999916,23.999916 0 0 0 24,24 23.999916,23.999916 0 0 0 24,-24 23.999916,23.999916 0 0 0 -24,-24 z m 32,24 a 31.999916,31.999916 0 0 1 -24.0312,30.9688 39.99997,39.999916 0 0 1 0,1.0312 39.99997,39.999916 0 0 1 -3.5,16.2968 32,31.999958 0 0 0 27.5,15.7032 32,31.999958 0 0 0 32,-32 32,31.999958 0 0 0 -32,-32 z m -80.2968,4.5 A 32,31.999958 0 0 0 64,1260 a 32,31.999958 0 0 0 32,32 32,31.999958 0 0 0 32,-32 31.999916,31.999916 0 0 1 -30.9688,-24.0312 39.99997,39.999916 0 0 1 -1.0312,0 39.99997,39.999916 0 0 1 -16.2968,-3.5 z"
         style="opacity:1;fill:url(#radialGradient4466);fill-opacity:1;stroke:none;stroke-width:2;stroke-linecap:round;stroke-linejoin:round;stroke-miterlimit:4;stroke-dasharray:none;stroke-opacity:0.25;paint-order:stroke fill markers" />
      <g
         clip-path="url(#clipPath4371)"
         id="g4369">
        <ellipse
           style="opacity:0.5;fill:url(#linearGradient3225-0);fill-opacity:1;stroke:none;stroke-width:0;stroke-linecap:butt;stroke-linejoin:miter;stroke-miterlimit:4;stroke-dasharray:none;stroke-opacity:1;paint-order:normal"
           id="path3217-1"
           cx="128"
           cy="1172"
           rx="112"
           ry="56" />
        <path
           inkscape:connector-curvature="0"
           id="path4334"
           d="m 96,1164 a 32,31.999958 0 0 0 -32,32 32,31.999958 0 0 0 32,32 31.999916,31.999916 0 0 1 24.0312,-30.9688 39.99997,39.999916 0 0 1 0,-1.0312 39.99997,39.999916 0 0 1 3.5,-16.2968 A 32,31.999958 0 0 0 96,1164 Z m 64,0 a 32,31.999958 0 0 0 -32,32 31.999916,31.999916 0 0 1 30.9688,24.0312 39.99997,39.999916 0 0 1 1.0312,0 39.99997,39.999916 0 0 1 16.2968,3.5 32,31.999958 0 0 0 15.7032,-27.5 32,31.999958 0 0 0 -32,-32 z m -32,40 a 23.999916,23.999916 0 0 0 -24,24 23.999916,23.999916 0 0 0 24,24 23.999916,23.999916 0 0 0 24,-24 23.999916,23.999916 0 0 0 -24,-24 z m 32,24 a 31.999916,31.999916 0 0 1 -24.0312,30.9688 39.99997,39.999916 0 0 1 0,1.0312 39.99997,39.999916 0 0 1 -3.5,16.2968 32,31.999958 0 0 0 27.5,15.7032 32,31.999958 0 0 0 32,-32 32,31.999958 0 0 0 -32,-32 z m -80.2968,4.5 A 32,31.999958 0 0 0 64,1260 a 32,31.999958 0 0 0 32,32 32,31.999958 0 0 0 32,-32 31.999916,31.999916 0 0 1 -30.9688,-24.0312 39.99997,39.999916 0 0 1 -1.0312,0 39.99997,39.999916 0 0 1 -16.2968,-3.5 z"
           style="opacity:0.25;fill:none;fill-opacity:1;stroke:#000000;stroke-width:2;stroke-linecap:round;stroke-linejoin:round;stroke-miterlimit:4;stroke-dasharray:none;stroke-opacity:1;paint-order:normal"
           clip-path="none" />
      </g>
    </g>
  </g>
</svg>
