<?xml version="1.0" encoding="UTF-8" standalone="no"?>
<!-- Created with Inkscape (http://www.inkscape.org/) -->

<svg
   xmlns:dc="http://purl.org/dc/elements/1.1/"
   xmlns:cc="http://creativecommons.org/ns#"
   xmlns:rdf="http://www.w3.org/1999/02/22-rdf-syntax-ns#"
   xmlns:svg="http://www.w3.org/2000/svg"
   xmlns="http://www.w3.org/2000/svg"
   xmlns:xlink="http://www.w3.org/1999/xlink"
   xmlns:sodipodi="http://sodipodi.sourceforge.net/DTD/sodipodi-0.dtd"
   xmlns:inkscape="http://www.inkscape.org/namespaces/inkscape"
   width="64"
   height="64"
   viewBox="0 0 64 64"
   version="1.1"
   id="svg8"
   inkscape:version="0.92.4 (5da689c313, 2019-01-14)"
   sodipodi:docname="eCloud.svg">
  <defs
     id="defs2">
    <linearGradient
       inkscape:collect="always"
       id="linearGradient939">
      <stop
         id="stop937"
         offset="0"
         style="stop-color:#ffffff;stop-opacity:0;" />
      <stop
         id="stop935"
         offset="1"
         style="stop-color:#ffffff;stop-opacity:1;" />
    </linearGradient>
    <linearGradient
       inkscape:collect="always"
       id="linearGradient929">
      <stop
         style="stop-color:#ffffff;stop-opacity:0"
         offset="0"
         id="stop925" />
      <stop
         id="stop933"
         offset="0.5"
         style="stop-color:#ffffff;stop-opacity:1" />
      <stop
         style="stop-color:#ffffff;stop-opacity:0;"
         offset="1"
         id="stop927" />
    </linearGradient>
    <clipPath
       clipPathUnits="userSpaceOnUse"
       id="clipPath1421">
      <path
         id="path1423"
         d="m 95.861328,192 v 8 l -8,4 H 136 l -7.86133,-4 v -8 z"
         style="fill:#000000;fill-opacity:1;stroke:none;stroke-width:1px;stroke-linecap:butt;stroke-linejoin:miter;stroke-opacity:1"
         inkscape:connector-curvature="0"
         sodipodi:nodetypes="ccccccc" />
    </clipPath>
    <clipPath
       clipPathUnits="userSpaceOnUse"
       id="clipPath1350">
      <rect
         ry="4.0000105"
         rx="4.0000105"
         y="387.99997"
         x="48"
         height="80"
         width="128"
         id="rect1352"
         style="opacity:1;fill:#000000;fill-opacity:1;stroke:none;stroke-width:1.88561809;stroke-linecap:round;stroke-linejoin:round;stroke-miterlimit:4;stroke-dasharray:none;stroke-opacity:1;paint-order:stroke fill markers" />
    </clipPath>
    <clipPath
       clipPathUnits="userSpaceOnUse"
       id="clipPath1256">
      <rect
         ry="4.0000105"
         rx="4.0000105"
         y="387.99997"
         x="48"
         height="80"
         width="128"
         id="rect1258"
         style="opacity:1;fill:#000000;fill-opacity:1;stroke:none;stroke-width:1.88561809;stroke-linecap:round;stroke-linejoin:round;stroke-miterlimit:4;stroke-dasharray:none;stroke-opacity:1;paint-order:stroke fill markers" />
    </clipPath>
    <clipPath
       clipPathUnits="userSpaceOnUse"
       id="clipPath1350-7">
      <rect
         ry="4.0000105"
         rx="4.0000105"
         y="387.99997"
         x="48"
         height="80"
         width="128"
         id="rect1352-6"
         style="opacity:1;fill:#000000;fill-opacity:1;stroke:none;stroke-width:1.88561809;stroke-linecap:round;stroke-linejoin:round;stroke-miterlimit:4;stroke-dasharray:none;stroke-opacity:1;paint-order:stroke fill markers" />
    </clipPath>
    <clipPath
       clipPathUnits="userSpaceOnUse"
       id="clipPath1256-2">
      <rect
         ry="4.0000105"
         rx="4.0000105"
         y="387.99997"
         x="48"
         height="80"
         width="128"
         id="rect1258-3"
         style="opacity:1;fill:#000000;fill-opacity:1;stroke:none;stroke-width:1.88561809;stroke-linecap:round;stroke-linejoin:round;stroke-miterlimit:4;stroke-dasharray:none;stroke-opacity:1;paint-order:stroke fill markers" />
    </clipPath>
    <clipPath
       clipPathUnits="userSpaceOnUse"
       id="clipPath1421-2">
      <path
         id="path1423-7"
         d="m 95.861328,192 v 8 l -8,4 H 136 l -7.86133,-4 v -8 z"
         style="fill:#000000;fill-opacity:1;stroke:none;stroke-width:1px;stroke-linecap:butt;stroke-linejoin:miter;stroke-opacity:1"
         inkscape:connector-curvature="0"
         sodipodi:nodetypes="ccccccc" />
    </clipPath>
    <linearGradient
       inkscape:collect="always"
       id="linearGradient3030">
      <stop
         style="stop-color:#000000;stop-opacity:1;"
         offset="0"
         id="stop3026" />
      <stop
         style="stop-color:#000000;stop-opacity:0;"
         offset="1"
         id="stop3028" />
    </linearGradient>
    <clipPath
       clipPathUnits="userSpaceOnUse"
       id="clipPath3235">
      <path
         id="path3237"
         d="m 516,1264 -3.10156,10.8574 -9.86914,-5.4844 -5.65625,5.6563 5.48437,9.8691 L 492,1288 v 8 l 10.85742,3.1016 -5.48437,9.8691 5.65625,5.6563 9.86914,-5.4844 L 516,1320 h 8 l 3.10156,-10.8574 9.86914,5.4844 5.65625,-5.6563 -5.48437,-9.8691 L 548,1296 v -8 l -10.85742,-3.1016 5.48437,-9.8691 -5.65625,-5.6563 -9.86914,5.4844 L 524,1264 Z m 4,20 a 8,8 0 0 1 8,8 8,8 0 0 1 -8,8 8,8 0 0 1 -8,-8 8,8 0 0 1 8,-8 z"
         style="fill:#000000;fill-opacity:1;stroke:none;stroke-width:1px;stroke-linecap:butt;stroke-linejoin:miter;stroke-opacity:1"
         inkscape:connector-curvature="0" />
    </clipPath>
    <pattern
       y="0"
       x="0"
       height="6"
       width="6"
       patternUnits="userSpaceOnUse"
       id="EMFhbasepattern" />
    <radialGradient
       inkscape:collect="always"
       xlink:href="#linearGradient3030"
       id="radialGradient3032-6-6"
       cx="512"
       cy="1240"
       fx="512"
       fy="1240"
       r="28"
       gradientTransform="matrix(1,0,0,0.14285714,-480,1174.8571)"
       gradientUnits="userSpaceOnUse" />
    <linearGradient
       inkscape:collect="always"
       xlink:href="#linearGradient929"
       id="linearGradient931"
       x1="54.627419"
       y1="1284.402"
       x2="71.597977"
       y2="1301.3726"
       gradientUnits="userSpaceOnUse" />
    <linearGradient
       inkscape:collect="always"
       xlink:href="#linearGradient939"
       id="linearGradient941"
       x1="15.999969"
       y1="1280"
       x2="32"
       y2="1280"
       gradientUnits="userSpaceOnUse" />
    <linearGradient
       inkscape:collect="always"
       xlink:href="#linearGradient929"
       id="linearGradient951"
       x1="-12"
       y1="1340"
       x2="-12"
       y2="1308"
       gradientUnits="userSpaceOnUse" />
    <linearGradient
       inkscape:collect="always"
       xlink:href="#linearGradient929"
       id="linearGradient959"
       x1="6.5441561"
       y1="1360.7695"
       x2="-4.7695527"
       y2="1349.4558"
       gradientUnits="userSpaceOnUse" />
    <linearGradient
       inkscape:collect="always"
       xlink:href="#linearGradient939"
       id="linearGradient967"
       x1="56"
       y1="1368"
       x2="31.999998"
       y2="1368"
       gradientUnits="userSpaceOnUse" />
    <filter
       inkscape:collect="always"
       style="color-interpolation-filters:sRGB"
       id="filter1029"
       x="-0.12315941"
       width="1.2463188"
       y="-0.11699863"
       height="1.2339973">
      <feGaussianBlur
         inkscape:collect="always"
         stdDeviation="4.2899498"
         id="feGaussianBlur1031" />
    </filter>
    <clipPath
       clipPathUnits="userSpaceOnUse"
       id="clipPath1035">
      <rect
         ry="4"
         rx="4"
         y="1296"
         x="4"
         height="56"
         width="56"
         id="rect1037"
         style="opacity:1;fill:#000000;fill-opacity:1;stroke:none;stroke-width:2;stroke-linecap:butt;stroke-linejoin:miter;stroke-miterlimit:4;stroke-dasharray:none;stroke-opacity:0.25;paint-order:stroke fill markers" />
    </clipPath>
    <clipPath
       clipPathUnits="userSpaceOnUse"
       id="clipPath1145">
      <rect
         ry="4"
         rx="4"
         y="1296"
         x="-76"
         height="56"
         width="56"
         id="rect1147"
         style="opacity:1;fill:#000000;fill-opacity:1;stroke:none;stroke-width:2;stroke-linecap:butt;stroke-linejoin:miter;stroke-miterlimit:4;stroke-dasharray:none;stroke-opacity:0.25;paint-order:stroke fill markers" />
    </clipPath>
  </defs>
  <sodipodi:namedview
     id="base"
     pagecolor="#ffffff"
     bordercolor="#666666"
     borderopacity="1.0"
     inkscape:pageopacity="0.0"
     inkscape:pageshadow="2"
     inkscape:zoom="1"
     inkscape:cx="-83.527879"
     inkscape:cy="19.006205"
     inkscape:document-units="px"
     inkscape:current-layer="layer1"
     showgrid="false"
     units="px"
     inkscape:window-width="1366"
     inkscape:window-height="706"
     inkscape:window-x="-8"
     inkscape:window-y="-8"
     inkscape:window-maximized="1"
     inkscape:pagecheckerboard="true"
     inkscape:snap-bbox="true"
     inkscape:bbox-paths="true"
     inkscape:bbox-nodes="true"
     inkscape:snap-bbox-edge-midpoints="true"
     inkscape:snap-bbox-midpoints="true"
     inkscape:object-paths="true"
     inkscape:snap-intersection-paths="true"
     inkscape:snap-smooth-nodes="true"
     inkscape:snap-midpoints="true"
     inkscape:snap-object-midpoints="true"
     inkscape:snap-center="true"
     inkscape:snap-text-baseline="true"
     inkscape:snap-page="true"
     inkscape:snap-global="true">
    <inkscape:grid
       type="xygrid"
       id="grid3713"
       empspacing="4" />
  </sodipodi:namedview>
  <metadata
     id="metadata5">
    <rdf:RDF>
      <cc:Work
         rdf:about="">
        <dc:format>image/svg+xml</dc:format>
        <dc:type
           rdf:resource="http://purl.org/dc/dcmitype/StillImage" />
        <dc:title />
      </cc:Work>
    </rdf:RDF>
  </metadata>
  <g
     inkscape:label="Layer 1"
     inkscape:groupmode="layer"
     id="layer1"
     transform="translate(0,-1292)">
    <ellipse
       style="opacity:0.25;fill:url(#radialGradient3032-6-6);fill-opacity:1;stroke:none;stroke-width:2;stroke-linecap:round;stroke-linejoin:round;stroke-miterlimit:4;stroke-dasharray:none;stroke-opacity:1;paint-order:stroke fill markers"
       id="path3024-7-1"
       cx="32"
       cy="1352"
       rx="28"
       ry="4" />
    <rect
       style="opacity:1;fill:#cccccc;fill-opacity:1;stroke:#000000;stroke-width:2;stroke-linecap:butt;stroke-linejoin:miter;stroke-miterlimit:4;stroke-dasharray:none;stroke-opacity:0.25;paint-order:stroke fill markers"
       id="rect858"
       width="56"
       height="56"
       x="4"
       y="1296"
       rx="4"
       ry="4" />
    <g
       id="g987"
       style="filter:url(#filter1029)"
       clip-path="url(#clipPath1035)">
      <path
         inkscape:transform-center-y="-19.799"
         inkscape:transform-center-x="-19.79898"
         sodipodi:nodetypes="cccc"
         inkscape:connector-curvature="0"
         id="path880"
         d="m 32,1324 22.62744,-39.598 16.970518,16.9706 z"
         style="fill:url(#linearGradient931);fill-opacity:1;stroke:none;stroke-width:1px;stroke-linecap:butt;stroke-linejoin:miter;stroke-opacity:1" />
      <path
         inkscape:transform-center-x="18.38477"
         style="fill:url(#linearGradient959);fill-opacity:1;stroke:none;stroke-width:1px;stroke-linecap:butt;stroke-linejoin:miter;stroke-opacity:1"
         d="m 32,1324 -36.7695382,25.4559 11.3136816,11.3136 z"
         id="path882"
         inkscape:connector-curvature="0"
         inkscape:transform-center-y="18.38475"
         sodipodi:nodetypes="cccc" />
      <path
         inkscape:transform-center-y="-22"
         inkscape:transform-center-x="4.0000148"
         sodipodi:nodetypes="cccc"
         inkscape:connector-curvature="0"
         id="path884"
         d="m 32,1324 10e-7,-44 H 15.999969 Z"
         style="fill:url(#linearGradient941);fill-opacity:1;stroke:none;stroke-width:1px;stroke-linecap:butt;stroke-linejoin:miter;stroke-opacity:1" />
      <path
         style="fill:url(#linearGradient967);fill-opacity:1;stroke:none;stroke-width:1px;stroke-linecap:butt;stroke-linejoin:miter;stroke-opacity:1"
         d="m 32,1324 -1e-6,44 h 24.000032 z"
         id="path886"
         inkscape:connector-curvature="0"
         sodipodi:nodetypes="cccc"
         inkscape:transform-center-x="-4.0000154"
         inkscape:transform-center-y="22" />
      <path
         inkscape:transform-center-x="22.000016"
         style="fill:url(#linearGradient951);fill-opacity:1;stroke:none;stroke-width:1px;stroke-linecap:butt;stroke-linejoin:miter;stroke-opacity:1"
         d="m 32,1324 -44.000033,16 6.4e-5,-32 z"
         id="path888"
         inkscape:connector-curvature="0"
         sodipodi:nodetypes="cccc" />
    </g>
    <g
       id="g1141"
       style="opacity:0.1"
       clip-path="url(#clipPath1145)"
       transform="translate(80)">
      <circle
         r="4"
         cy="1324"
         cx="-48"
         id="path1039"
         style="opacity:1;fill:none;fill-opacity:1;stroke:#000000;stroke-width:1;stroke-linecap:butt;stroke-linejoin:miter;stroke-miterlimit:4;stroke-dasharray:none;stroke-opacity:1;paint-order:normal" />
      <circle
         r="8"
         cy="1324"
         cx="-48"
         id="path1041"
         style="opacity:1;fill:none;fill-opacity:1;stroke:#000000;stroke-width:1;stroke-linecap:butt;stroke-linejoin:miter;stroke-miterlimit:4;stroke-dasharray:none;stroke-opacity:1;paint-order:normal" />
      <circle
         r="12"
         cy="1324"
         cx="-48"
         id="path1043"
         style="opacity:1;fill:none;fill-opacity:1;stroke:#000000;stroke-width:1;stroke-linecap:butt;stroke-linejoin:miter;stroke-miterlimit:4;stroke-dasharray:none;stroke-opacity:1;paint-order:normal" />
      <circle
         r="16"
         cy="1324"
         cx="-48"
         id="path1045"
         style="opacity:1;fill:none;fill-opacity:1;stroke:#000000;stroke-width:1;stroke-linecap:butt;stroke-linejoin:miter;stroke-miterlimit:4;stroke-dasharray:none;stroke-opacity:1;paint-order:normal" />
      <circle
         r="20"
         cy="1324"
         cx="-48"
         id="path1047"
         style="opacity:1;fill:none;fill-opacity:1;stroke:#000000;stroke-width:1;stroke-linecap:butt;stroke-linejoin:miter;stroke-miterlimit:4;stroke-dasharray:none;stroke-opacity:1;paint-order:normal" />
      <circle
         r="24"
         cy="1324"
         cx="-48"
         id="path1049"
         style="opacity:1;fill:none;fill-opacity:1;stroke:#000000;stroke-width:1;stroke-linecap:butt;stroke-linejoin:miter;stroke-miterlimit:4;stroke-dasharray:none;stroke-opacity:1;paint-order:normal" />
      <circle
         r="28"
         cy="1324"
         cx="-48"
         id="path1051"
         style="opacity:1;fill:none;fill-opacity:1;stroke:#000000;stroke-width:1;stroke-linecap:butt;stroke-linejoin:miter;stroke-miterlimit:4;stroke-dasharray:none;stroke-opacity:1;paint-order:normal" />
      <circle
         r="32"
         cy="1324"
         cx="-48"
         id="path1053"
         style="opacity:1;fill:none;fill-opacity:1;stroke:#000000;stroke-width:1;stroke-linecap:butt;stroke-linejoin:miter;stroke-miterlimit:4;stroke-dasharray:none;stroke-opacity:1;paint-order:normal" />
      <circle
         r="36"
         cy="1324"
         cx="-48"
         id="path1055"
         style="opacity:1;fill:none;fill-opacity:1;stroke:#000000;stroke-width:1;stroke-linecap:butt;stroke-linejoin:miter;stroke-miterlimit:4;stroke-dasharray:none;stroke-opacity:1;paint-order:normal" />
      <circle
         r="6"
         cy="1324"
         cx="-48"
         id="path1057"
         style="opacity:1;fill:none;fill-opacity:1;stroke:#000000;stroke-width:1;stroke-linecap:butt;stroke-linejoin:miter;stroke-miterlimit:4;stroke-dasharray:none;stroke-opacity:1;paint-order:normal" />
      <circle
         r="10"
         cy="1324"
         cx="-48"
         id="path1059"
         style="opacity:1;fill:none;fill-opacity:1;stroke:#000000;stroke-width:1;stroke-linecap:butt;stroke-linejoin:miter;stroke-miterlimit:4;stroke-dasharray:none;stroke-opacity:1;paint-order:normal" />
      <circle
         r="14"
         cy="1324"
         cx="-48"
         id="path1061"
         style="opacity:1;fill:none;fill-opacity:1;stroke:#000000;stroke-width:1;stroke-linecap:butt;stroke-linejoin:miter;stroke-miterlimit:4;stroke-dasharray:none;stroke-opacity:1;paint-order:normal" />
      <circle
         r="18"
         cy="1324"
         cx="-48"
         id="path1063"
         style="opacity:1;fill:none;fill-opacity:1;stroke:#000000;stroke-width:1;stroke-linecap:butt;stroke-linejoin:miter;stroke-miterlimit:4;stroke-dasharray:none;stroke-opacity:1;paint-order:normal" />
      <circle
         r="22"
         cy="1324"
         cx="-48"
         id="path1065"
         style="opacity:1;fill:none;fill-opacity:1;stroke:#000000;stroke-width:1;stroke-linecap:butt;stroke-linejoin:miter;stroke-miterlimit:4;stroke-dasharray:none;stroke-opacity:1;paint-order:normal" />
      <circle
         r="26"
         style="opacity:1;fill:none;fill-opacity:1;stroke:#000000;stroke-width:1;stroke-linecap:butt;stroke-linejoin:miter;stroke-miterlimit:4;stroke-dasharray:none;stroke-opacity:1;paint-order:normal"
         id="circle1073"
         cx="-48"
         cy="1324" />
      <circle
         r="30"
         style="opacity:1;fill:none;fill-opacity:1;stroke:#000000;stroke-width:1;stroke-linecap:butt;stroke-linejoin:miter;stroke-miterlimit:4;stroke-dasharray:none;stroke-opacity:1;paint-order:normal"
         id="circle1075"
         cx="-48"
         cy="1324" />
      <circle
         r="34"
         style="opacity:1;fill:none;fill-opacity:1;stroke:#000000;stroke-width:1;stroke-linecap:butt;stroke-linejoin:miter;stroke-miterlimit:4;stroke-dasharray:none;stroke-opacity:1;paint-order:normal"
         id="circle1077"
         cx="-48"
         cy="1324" />
      <circle
         r="2"
         cy="1324"
         cx="-48"
         id="path1079"
         style="opacity:1;fill:none;fill-opacity:1;stroke:#000000;stroke-width:1;stroke-linecap:butt;stroke-linejoin:miter;stroke-miterlimit:4;stroke-dasharray:none;stroke-opacity:1;paint-order:normal" />
      <circle
         style="opacity:1;fill:none;fill-opacity:1;stroke:#000000;stroke-width:1;stroke-linecap:butt;stroke-linejoin:miter;stroke-miterlimit:4;stroke-dasharray:none;stroke-opacity:1;paint-order:normal"
         id="circle1101"
         cx="-48"
         cy="1324"
         r="38" />
    </g>
    <g
       id="g1181">
      <path
         inkscape:connector-curvature="0"
         id="path1149"
         d="m 28,1312 a 12,12 0 0 0 -11.298828,8 H 16 a 8,8 0 0 0 -8,8 8,8 0 0 0 8,8 h 32 a 8,8 0 0 0 8,-8 8,8 0 0 0 -8,-8 H 39.298828 A 12,12 0 0 0 28,1312 Z m 0,2 a 10,10 0 0 1 9.787109,8 H 48 a 6,6 0 0 1 6,6 6,6 0 0 1 -6,6 H 28 16 a 6,6 0 0 1 -6,-6 6,6 0 0 1 6,-6 h 2.203125 A 10,10 0 0 1 28,1314 Z"
         style="opacity:0.5;fill:#000000;fill-opacity:1;stroke:none;stroke-width:2;stroke-linecap:butt;stroke-linejoin:miter;stroke-miterlimit:4;stroke-dasharray:none;stroke-opacity:1;paint-order:normal" />
      <path
         inkscape:connector-curvature="0"
         id="path1168"
         d="m 28,1312 a 12,12 0 0 0 -11.298828,8 H 16 a 8,8 0 0 0 -8,8 8,8 0 0 0 0.02148,0.4238 A 8,8 0 0 1 16,1321 h 0.701172 A 12,12 0 0 1 28,1313 a 12,12 0 0 1 11.298828,8 H 48 a 8,8 0 0 1 7.978516,7.5762 A 8,8 0 0 0 56,1328 8,8 0 0 0 48,1320 H 39.298828 A 12,12 0 0 0 28,1312 Z m -17.974609,16.498 A 6,6 0 0 0 10,1329 a 6,6 0 0 0 6,6 h 12 20 a 6,6 0 0 0 6,-6 6,6 0 0 0 -0.02539,-0.498 A 6,6 0 0 1 48,1334 H 28 16 a 6,6 0 0 1 -5.974609,-5.502 z"
         style="opacity:0.5;fill:#000000;fill-opacity:1;stroke:none;stroke-width:2;stroke-linecap:butt;stroke-linejoin:miter;stroke-miterlimit:4;stroke-dasharray:none;stroke-opacity:1;paint-order:normal" />
      <path
         inkscape:connector-curvature="0"
         id="path1173"
         d="m 28,1314 a 10,10 0 0 0 -9.796875,8 H 16 a 6,6 0 0 0 -6,6 6,6 0 0 0 0.02539,0.498 A 6,6 0 0 1 16,1323 h 2.203125 A 10,10 0 0 1 28,1315 a 10,10 0 0 1 9.787109,8 H 48 a 6,6 0 0 1 5.974609,5.502 A 6,6 0 0 0 54,1328 6,6 0 0 0 48,1322 H 37.787109 A 10,10 0 0 0 28,1314 Z M 8.021484,1328.4238 A 8,8 0 0 0 8,1329 a 8,8 0 0 0 8,8 h 32 a 8,8 0 0 0 8,-8 8,8 0 0 0 -0.02148,-0.4238 A 8,8 0 0 1 48,1336 H 16 a 8,8 0 0 1 -7.978516,-7.5762 z"
         style="opacity:0.5;fill:#ffffff;fill-opacity:1;stroke:none;stroke-width:2;stroke-linecap:butt;stroke-linejoin:miter;stroke-miterlimit:4;stroke-dasharray:none;stroke-opacity:1;paint-order:normal" />
    </g>
  </g>
</svg>
