<?xml version="1.0" encoding="UTF-8" standalone="no"?>
<svg
   xmlns:dc="http://purl.org/dc/elements/1.1/"
   xmlns:cc="http://creativecommons.org/ns#"
   xmlns:rdf="http://www.w3.org/1999/02/22-rdf-syntax-ns#"
   xmlns:svg="http://www.w3.org/2000/svg"
   xmlns="http://www.w3.org/2000/svg"
   xmlns:xlink="http://www.w3.org/1999/xlink"
   xmlns:sodipodi="http://sodipodi.sourceforge.net/DTD/sodipodi-0.dtd"
   xmlns:inkscape="http://www.inkscape.org/namespaces/inkscape"
   sodipodi:docname="Mail.svg"
   inkscape:version="1.0beta2 (2715ced, 2020-01-03)"
   id="svg8"
   version="1.1"
   viewBox="0 0 64 64"
   height="64"
   width="64">
  <defs
     id="defs2">
    <linearGradient
       inkscape:collect="always"
       id="linearGradient1168">
      <stop
         style="stop-color:#ffffff;stop-opacity:1"
         offset="0"
         id="stop1164" />
      <stop
         style="stop-color:#f2f2f2;stop-opacity:1"
         offset="1"
         id="stop1166" />
    </linearGradient>
    <linearGradient
       id="linearGradient950"
       inkscape:collect="always">
      <stop
         id="stop946"
         offset="0"
         style="stop-color:#ff4040;stop-opacity:1" />
      <stop
         id="stop948"
         offset="1"
         style="stop-color:#bf0000;stop-opacity:1" />
    </linearGradient>
    <linearGradient
       id="linearGradient3030"
       inkscape:collect="always">
      <stop
         id="stop3026"
         offset="0"
         style="stop-color:#000000;stop-opacity:1;" />
      <stop
         id="stop3028"
         offset="1"
         style="stop-color:#000000;stop-opacity:0;" />
    </linearGradient>
    <radialGradient
       inkscape:collect="always"
       xlink:href="#linearGradient3030"
       id="radialGradient3032-6-1-2"
       cx="512"
       cy="1240"
       fx="512"
       fy="1240"
       r="28"
       gradientTransform="matrix(1,0,0,0.14285714,-480,1174.8574)"
       gradientUnits="userSpaceOnUse" />
    <linearGradient
       y2="1350"
       x2="32"
       y1="1298"
       x1="32"
       gradientTransform="rotate(-15,32.000013,1324.0001)"
       gradientUnits="userSpaceOnUse"
       id="linearGradient902"
       xlink:href="#linearGradient1168"
       inkscape:collect="always" />
    <linearGradient
       gradientTransform="translate(-343.76679,-36.831997)"
       gradientUnits="userSpaceOnUse"
       y2="1346"
       x2="14"
       y1="1302"
       x1="50"
       id="linearGradient979"
       xlink:href="#linearGradient950"
       inkscape:collect="always" />
    <clipPath
       id="clipPath1041"
       clipPathUnits="userSpaceOnUse">
      <g
         id="g1049"
         style="opacity:1;fill:#000000;fill-opacity:1;stroke:none;stroke-width:2;stroke-linecap:round;stroke-linejoin:round;stroke-miterlimit:4;stroke-dasharray:none;stroke-opacity:0.25;paint-order:normal">
        <path
           inkscape:connector-curvature="0"
           id="path1043"
           transform="translate(0,1292)"
           d="M 20,28 C 11.163444,28 4,35.163444 4,44 4,52.836556 11.163444,60 20,60 28.836556,60 36,52.836556 36,44 36,35.163444 28.836556,28 20,28 Z m 0,4 A 12,12 0 0 1 32,44 12,12 0 0 1 20,56 12,12 0 0 1 8,44 12,12 0 0 1 20,32 Z"
           style="opacity:1;fill:#000000;fill-opacity:1;stroke:none;stroke-width:2;stroke-linecap:round;stroke-linejoin:round;stroke-miterlimit:4;stroke-dasharray:none;stroke-opacity:0.25;paint-order:normal" />
        <path
           transform="translate(4,1048.0001)"
           clip-path="none"
           style="opacity:1;fill:#000000;fill-opacity:1;stroke:none;stroke-width:2;stroke-linecap:round;stroke-linejoin:round;stroke-miterlimit:4;stroke-dasharray:none;stroke-opacity:0.25;paint-order:normal"
           d="m 12,279.99998 a 4,3.9999948 0 0 0 -4,4 4,3.9999948 0 0 0 4,4 3.9999895,3.9999895 0 0 1 3.003906,-3.87109 4.9999962,4.9999895 0 0 1 -0.0039,-0.12891 4.9999962,4.9999895 0 0 1 0.4375,-2.03711 4,3.9999948 0 0 0 -3.4375,-1.96289 z m 8,0 a 4,3.9999948 0 0 0 -4,4 3.9999895,3.9999895 0 0 1 3.871094,3.00391 4.9999962,4.9999895 0 0 1 0.128906,-0.004 4.9999962,4.9999895 0 0 1 2.037109,0.4375 4,3.9999948 0 0 0 1.962891,-3.4375 4,3.9999948 0 0 0 -4,-4 z m -4,5 a 2.9999895,2.9999895 0 0 0 -3,3 2.9999895,2.9999895 0 0 0 3,3 2.9999895,2.9999895 0 0 0 3,-3 2.9999895,2.9999895 0 0 0 -3,-3 z m 4,3 a 3.9999895,3.9999895 0 0 1 -3.003906,3.87109 4.9999962,4.9999895 0 0 1 0.0039,0.12891 4.9999962,4.9999895 0 0 1 -0.4375,2.03711 4,3.9999948 0 0 0 3.4375,1.96289 4,3.9999948 0 0 0 4,-4 4,3.9999948 0 0 0 -4,-4 z m -10.037109,0.5625 A 4,3.9999948 0 0 0 8,291.99998 a 4,3.9999948 0 0 0 4,4 4,3.9999948 0 0 0 4,-4 3.9999895,3.9999895 0 0 1 -3.871094,-3.00391 4.9999962,4.9999895 0 0 1 -0.128906,0.004 4.9999962,4.9999895 0 0 1 -2.037109,-0.4375 z"
           id="path1045"
           inkscape:connector-curvature="0" />
        <path
           style="opacity:1;fill:#000000;fill-opacity:1;stroke:none;stroke-width:2;stroke-linecap:butt;stroke-linejoin:miter;stroke-miterlimit:4;stroke-dasharray:none;stroke-opacity:1;paint-order:stroke fill markers"
           d="m 16,1328.0001 a 4,3.9999948 0 0 0 -4,4 4,3.9999948 0 0 0 4,4 3.9999895,3.9999895 0 0 1 3.003906,-3.8711 4.9999962,4.9999895 0 0 1 -0.0039,-0.1289 4.9999962,4.9999895 0 0 1 0.4375,-2.0371 4,3.9999948 0 0 0 -3.4375,-1.9629 z m 8,0 a 4,3.9999948 0 0 0 -4,4 3.9999895,3.9999895 0 0 1 3.871094,3.0039 A 4.9999962,4.9999895 0 0 1 24,1335 4.9999962,4.9999895 0 0 1 26.037109,1335.4375 4,3.9999948 0 0 0 28,1332 a 4,3.9999948 0 0 0 -4,-4 z m -4,5 a 2.9999895,2.9999895 0 0 0 -3,3 2.9999895,2.9999895 0 0 0 3,3 2.9999895,2.9999895 0 0 0 3,-3 2.9999895,2.9999895 0 0 0 -3,-3 z m 4,3 a 3.9999895,3.9999895 0 0 1 -3.003906,3.8711 4.9999962,4.9999895 0 0 1 0.0039,0.1289 4.9999962,4.9999895 0 0 1 -0.4375,2.0371 4,3.9999948 0 0 0 3.4375,1.9629 4,3.9999948 0 0 0 4,-4 4,3.9999948 0 0 0 -4,-4 z m -10.037109,0.5625 A 4,3.9999948 0 0 0 12,1340.0001 a 4,3.9999948 0 0 0 4,4 4,3.9999948 0 0 0 4,-4 3.9999895,3.9999895 0 0 1 -3.871094,-3.0039 4.9999962,4.9999895 0 0 1 -0.128906,0 4.9999962,4.9999895 0 0 1 -2.037109,-0.4375 z"
           id="path1047"
           inkscape:connector-curvature="0" />
      </g>
    </clipPath>
    <clipPath
       id="clipPath1055"
       clipPathUnits="userSpaceOnUse">
      <rect
         style="opacity:1;fill:#000000;fill-opacity:1;stroke:none;stroke-width:2;stroke-linecap:round;stroke-linejoin:round;stroke-miterlimit:4;stroke-dasharray:none;stroke-opacity:1;paint-order:stroke fill markers"
         id="rect1057"
         width="36"
         height="44"
         x="-329.76678"
         y="1265.168" />
    </clipPath>
  </defs>
  <sodipodi:namedview
     inkscape:document-rotation="0"
     inkscape:guide-bbox="true"
     inkscape:snap-global="true"
     showguides="true"
     inkscape:snap-page="true"
     inkscape:snap-text-baseline="true"
     inkscape:snap-center="true"
     inkscape:snap-object-midpoints="true"
     inkscape:snap-midpoints="true"
     inkscape:snap-smooth-nodes="true"
     inkscape:snap-intersection-paths="true"
     inkscape:object-paths="true"
     inkscape:snap-bbox-midpoints="true"
     inkscape:snap-bbox-edge-midpoints="true"
     inkscape:bbox-nodes="true"
     inkscape:bbox-paths="true"
     inkscape:snap-bbox="true"
     inkscape:pagecheckerboard="true"
     inkscape:window-maximized="1"
     inkscape:window-y="-8"
     inkscape:window-x="-8"
     inkscape:window-height="706"
     inkscape:window-width="1366"
     units="px"
     showgrid="false"
     inkscape:current-layer="layer1"
     inkscape:document-units="px"
     inkscape:cy="31.054763"
     inkscape:cx="35.737792"
     inkscape:zoom="4"
     inkscape:pageshadow="2"
     inkscape:pageopacity="0.0"
     borderopacity="1.0"
     bordercolor="#666666"
     pagecolor="#ffffff"
     id="base">
    <inkscape:grid
       enabled="true"
       empspacing="4"
       id="grid3713"
       type="xygrid" />
  </sodipodi:namedview>
  <metadata
     id="metadata5">
    <rdf:RDF>
      <cc:Work
         rdf:about="">
        <dc:format>image/svg+xml</dc:format>
        <dc:type
           rdf:resource="http://purl.org/dc/dcmitype/StillImage" />
        <dc:title />
      </cc:Work>
    </rdf:RDF>
  </metadata>
  <g
     transform="translate(0,-1292)"
     id="layer1"
     inkscape:groupmode="layer"
     inkscape:label="Layer 1">
    <g
       transform="rotate(-15,-271.83016,1284)"
       style="fill:none;stroke:#000000;stroke-width:0.125;stroke-miterlimit:4;stroke-dasharray:none;stroke-opacity:1"
       id="g5392">
      <path
         style="fill:none;stroke:#000000;stroke-width:0.125;stroke-linecap:butt;stroke-linejoin:miter;stroke-miterlimit:4;stroke-dasharray:none;stroke-opacity:1"
         d="m 0,1292 v 64"
         id="path5290"
         inkscape:connector-curvature="0" />
      <path
         inkscape:connector-curvature="0"
         id="path5292"
         d="m 4,1292 v 64"
         style="fill:none;stroke:#000000;stroke-width:0.125;stroke-linecap:butt;stroke-linejoin:miter;stroke-miterlimit:4;stroke-dasharray:none;stroke-opacity:1" />
      <path
         style="fill:none;stroke:#000000;stroke-width:0.125;stroke-linecap:butt;stroke-linejoin:miter;stroke-miterlimit:4;stroke-dasharray:none;stroke-opacity:1"
         d="m 8,1292 v 64"
         id="path5294"
         inkscape:connector-curvature="0" />
      <path
         inkscape:connector-curvature="0"
         id="path5296"
         d="m 12,1292 v 64"
         style="fill:none;stroke:#000000;stroke-width:0.125;stroke-linecap:butt;stroke-linejoin:miter;stroke-miterlimit:4;stroke-dasharray:none;stroke-opacity:1" />
      <path
         style="fill:none;stroke:#000000;stroke-width:0.125;stroke-linecap:butt;stroke-linejoin:miter;stroke-miterlimit:4;stroke-dasharray:none;stroke-opacity:1"
         d="m 16,1292 v 64"
         id="path5298"
         inkscape:connector-curvature="0" />
      <path
         inkscape:connector-curvature="0"
         id="path5300"
         d="m 20,1292 v 64"
         style="fill:none;stroke:#000000;stroke-width:0.125;stroke-linecap:butt;stroke-linejoin:miter;stroke-miterlimit:4;stroke-dasharray:none;stroke-opacity:1" />
      <path
         style="fill:none;stroke:#000000;stroke-width:0.125;stroke-linecap:butt;stroke-linejoin:miter;stroke-miterlimit:4;stroke-dasharray:none;stroke-opacity:1"
         d="m 24,1292 v 64"
         id="path5302"
         inkscape:connector-curvature="0" />
      <path
         inkscape:connector-curvature="0"
         id="path5304"
         d="m 28,1292 v 64"
         style="fill:none;stroke:#000000;stroke-width:0.125;stroke-linecap:butt;stroke-linejoin:miter;stroke-miterlimit:4;stroke-dasharray:none;stroke-opacity:1" />
      <path
         style="fill:none;stroke:#000000;stroke-width:0.125;stroke-linecap:butt;stroke-linejoin:miter;stroke-miterlimit:4;stroke-dasharray:none;stroke-opacity:1"
         d="m 32,1292 v 64"
         id="path5306"
         inkscape:connector-curvature="0" />
      <path
         inkscape:connector-curvature="0"
         id="path5308"
         d="m 36,1292 v 64"
         style="fill:none;stroke:#000000;stroke-width:0.125;stroke-linecap:butt;stroke-linejoin:miter;stroke-miterlimit:4;stroke-dasharray:none;stroke-opacity:1" />
      <path
         style="fill:none;stroke:#000000;stroke-width:0.125;stroke-linecap:butt;stroke-linejoin:miter;stroke-miterlimit:4;stroke-dasharray:none;stroke-opacity:1"
         d="m 40,1292 v 64"
         id="path5310"
         inkscape:connector-curvature="0" />
      <path
         inkscape:connector-curvature="0"
         id="path5312"
         d="m 44,1292 v 64"
         style="fill:none;stroke:#000000;stroke-width:0.125;stroke-linecap:butt;stroke-linejoin:miter;stroke-miterlimit:4;stroke-dasharray:none;stroke-opacity:1" />
      <path
         style="fill:none;stroke:#000000;stroke-width:0.125;stroke-linecap:butt;stroke-linejoin:miter;stroke-miterlimit:4;stroke-dasharray:none;stroke-opacity:1"
         d="m 48,1292 v 64"
         id="path5314"
         inkscape:connector-curvature="0" />
      <path
         inkscape:connector-curvature="0"
         id="path5316"
         d="m 52,1292 v 64"
         style="fill:none;stroke:#000000;stroke-width:0.125;stroke-linecap:butt;stroke-linejoin:miter;stroke-miterlimit:4;stroke-dasharray:none;stroke-opacity:1" />
      <path
         style="fill:none;stroke:#000000;stroke-width:0.125;stroke-linecap:butt;stroke-linejoin:miter;stroke-miterlimit:4;stroke-dasharray:none;stroke-opacity:1"
         d="m 56,1292 v 64"
         id="path5318"
         inkscape:connector-curvature="0" />
      <path
         inkscape:connector-curvature="0"
         id="path5320"
         d="m 60,1292 v 64"
         style="fill:none;stroke:#000000;stroke-width:0.125;stroke-linecap:butt;stroke-linejoin:miter;stroke-miterlimit:4;stroke-dasharray:none;stroke-opacity:1" />
      <path
         style="fill:none;stroke:#000000;stroke-width:0.125;stroke-linecap:butt;stroke-linejoin:miter;stroke-miterlimit:4;stroke-dasharray:none;stroke-opacity:1"
         d="m 64,1292 v 64"
         id="path5322"
         inkscape:connector-curvature="0" />
      <path
         inkscape:connector-curvature="0"
         id="path5324"
         d="M 64,1292 H 0"
         style="fill:none;stroke:#000000;stroke-width:0.125;stroke-linecap:butt;stroke-linejoin:miter;stroke-miterlimit:4;stroke-dasharray:none;stroke-opacity:1" />
      <path
         style="fill:none;stroke:#000000;stroke-width:0.125;stroke-linecap:butt;stroke-linejoin:miter;stroke-miterlimit:4;stroke-dasharray:none;stroke-opacity:1"
         d="M 64,1296 H 0"
         id="path5326"
         inkscape:connector-curvature="0" />
      <path
         inkscape:connector-curvature="0"
         id="path5328"
         d="M 64,1300 H 0"
         style="fill:none;stroke:#000000;stroke-width:0.125;stroke-linecap:butt;stroke-linejoin:miter;stroke-miterlimit:4;stroke-dasharray:none;stroke-opacity:1" />
      <path
         style="fill:none;stroke:#000000;stroke-width:0.125;stroke-linecap:butt;stroke-linejoin:miter;stroke-miterlimit:4;stroke-dasharray:none;stroke-opacity:1"
         d="M 64,1304 H 0"
         id="path5330"
         inkscape:connector-curvature="0" />
      <path
         inkscape:connector-curvature="0"
         id="path5332"
         d="M 64,1308 H 0"
         style="fill:none;stroke:#000000;stroke-width:0.125;stroke-linecap:butt;stroke-linejoin:miter;stroke-miterlimit:4;stroke-dasharray:none;stroke-opacity:1" />
      <path
         style="fill:none;stroke:#000000;stroke-width:0.125;stroke-linecap:butt;stroke-linejoin:miter;stroke-miterlimit:4;stroke-dasharray:none;stroke-opacity:1"
         d="M 64,1312 H 0"
         id="path5334"
         inkscape:connector-curvature="0" />
      <path
         inkscape:connector-curvature="0"
         id="path5336"
         d="M 64,1316 H 0"
         style="fill:none;stroke:#000000;stroke-width:0.125;stroke-linecap:butt;stroke-linejoin:miter;stroke-miterlimit:4;stroke-dasharray:none;stroke-opacity:1" />
      <path
         style="fill:none;stroke:#000000;stroke-width:0.125;stroke-linecap:butt;stroke-linejoin:miter;stroke-miterlimit:4;stroke-dasharray:none;stroke-opacity:1"
         d="M 64,1320 H 0"
         id="path5338"
         inkscape:connector-curvature="0" />
      <path
         inkscape:connector-curvature="0"
         id="path5340"
         d="M 64,1324 H 0"
         style="fill:none;stroke:#000000;stroke-width:0.125;stroke-linecap:butt;stroke-linejoin:miter;stroke-miterlimit:4;stroke-dasharray:none;stroke-opacity:1" />
      <path
         style="fill:none;stroke:#000000;stroke-width:0.125;stroke-linecap:butt;stroke-linejoin:miter;stroke-miterlimit:4;stroke-dasharray:none;stroke-opacity:1"
         d="M 64,1328 H 0"
         id="path5342"
         inkscape:connector-curvature="0" />
      <path
         inkscape:connector-curvature="0"
         id="path5344"
         d="M 64,1332 H 0"
         style="fill:none;stroke:#000000;stroke-width:0.125;stroke-linecap:butt;stroke-linejoin:miter;stroke-miterlimit:4;stroke-dasharray:none;stroke-opacity:1" />
      <path
         style="fill:none;stroke:#000000;stroke-width:0.125;stroke-linecap:butt;stroke-linejoin:miter;stroke-miterlimit:4;stroke-dasharray:none;stroke-opacity:1"
         d="M 64,1336 H 0"
         id="path5346"
         inkscape:connector-curvature="0" />
      <path
         inkscape:connector-curvature="0"
         id="path5348"
         d="M 64,1340 H 0"
         style="fill:none;stroke:#000000;stroke-width:0.125;stroke-linecap:butt;stroke-linejoin:miter;stroke-miterlimit:4;stroke-dasharray:none;stroke-opacity:1" />
      <path
         style="fill:none;stroke:#000000;stroke-width:0.125;stroke-linecap:butt;stroke-linejoin:miter;stroke-miterlimit:4;stroke-dasharray:none;stroke-opacity:1"
         d="M 64,1344 H 0"
         id="path5350"
         inkscape:connector-curvature="0" />
      <path
         inkscape:connector-curvature="0"
         id="path5352"
         d="M 64,1348 H 0"
         style="fill:none;stroke:#000000;stroke-width:0.125;stroke-linecap:butt;stroke-linejoin:miter;stroke-miterlimit:4;stroke-dasharray:none;stroke-opacity:1" />
      <path
         style="fill:none;stroke:#000000;stroke-width:0.125;stroke-linecap:butt;stroke-linejoin:miter;stroke-miterlimit:4;stroke-dasharray:none;stroke-opacity:1"
         d="M 64,1352 H 0"
         id="path5354"
         inkscape:connector-curvature="0" />
      <path
         inkscape:connector-curvature="0"
         id="path5356"
         d="M 64,1356 H 0"
         style="fill:none;stroke:#000000;stroke-width:0.125;stroke-linecap:butt;stroke-linejoin:miter;stroke-miterlimit:4;stroke-dasharray:none;stroke-opacity:1" />
    </g>
    <g
       id="g1071">
      <ellipse
         style="opacity:0.25;fill:url(#radialGradient3032-6-1-2);fill-opacity:1;stroke:none;stroke-width:2;stroke-linecap:round;stroke-linejoin:round;stroke-miterlimit:4;stroke-dasharray:none;stroke-opacity:1;paint-order:stroke fill markers"
         id="path3024-7-9-8"
         cx="32"
         cy="1352"
         rx="28"
         ry="4" />
      <path
         style="opacity:1;fill:url(#linearGradient902);fill-opacity:1;stroke:#000000;stroke-width:2;stroke-linecap:round;stroke-linejoin:round;stroke-miterlimit:4;stroke-dasharray:none;stroke-opacity:0.25;paint-order:stroke fill markers"
         d="m 4.0203482,1304.5799 0.5176263,1.9319 a 2,2 0 0 1 2.4494929,1.4142 2,2 0 0 1 -1.4142155,2.4495 l 0.5176256,1.9319 a 2,2 0 0 1 2.4494935,1.4142 2,2 0 0 1 -1.4142164,2.4495 l 0.5176506,1.9318 a 2,2 0 0 1 2.4494938,1.4142 2,2 0 0 1 -1.4142166,2.4495 l 0.5176262,1.9319 a 2,2 0 0 1 2.4494924,1.4142 2,2 0 0 1 -1.414215,2.4495 l 0.517651,1.9318 a 2,2 0 0 1 2.449493,1.4142 2,2 0 0 1 -1.414216,2.4495 l 0.517626,1.9319 a 2,2 0 0 1 2.449493,1.4142 2,2 0 0 1 -1.414217,2.4495 l 0.517651,1.9318 a 2,2 0 0 1 2.449494,1.4142 2,2 0 0 1 -1.414216,2.4495 l 0.517626,1.9319 a 2,2 0 0 1 2.449492,1.4142 2,2 0 0 1 -1.414215,2.4495 l 1.035277,3.8637 1.931842,-0.5176 a 2,2 0 0 1 1.414216,-2.4495 2,2 0 0 1 2.449493,1.4142 l 1.931867,-0.5177 a 2,2 0 0 1 1.414216,-2.4495 2,2 0 0 1 2.449468,1.4143 l 1.931868,-0.5177 a 2,2 0 0 1 1.414216,-2.4495 2,2 0 0 1 2.449492,1.4142 l 1.931843,-0.5176 a 2,2 0 0 1 1.414216,-2.4495 2,2 0 0 1 2.449494,1.4142 l 1.931841,-0.5176 a 2,2 0 0 1 1.414216,-2.4495 2,2 0 0 1 2.449494,1.4142 l 1.931842,-0.5176 a 2,2 0 0 1 1.414216,-2.4495 2,2 0 0 1 2.449493,1.4142 l 1.931842,-0.5176 a 2,2 0 0 1 1.414216,-2.4495 2,2 0 0 1 2.449494,1.4142 l 1.931841,-0.5176 -0.517626,-1.9319 a 2,2 0 0 1 -2.449492,-1.4142 2,2 0 0 1 1.414215,-2.4495 l -0.517625,-1.9319 a 2,2 0 0 1 -2.449494,-1.4142 2,2 0 0 1 1.414216,-2.4495 l -0.51765,-1.9318 a 2,2 0 0 1 -2.449494,-1.4142 2,2 0 0 1 1.414217,-2.4495 l -0.517627,-1.9319 a 2,2 0 0 1 -2.449492,-1.4142 2,2 0 0 1 1.414215,-2.4495 l -0.517651,-1.9318 a 2,2 0 0 1 -2.449493,-1.4142 2,2 0 0 1 1.414216,-2.4495 l -0.517625,-1.9319 a 2,2 0 0 1 -2.449494,-1.4142 2,2 0 0 1 1.414217,-2.4495 l -0.517651,-1.9318 a 2,2 0 0 1 -2.449494,-1.4142 2,2 0 0 1 1.414216,-2.4495 l -0.517626,-1.9319 a 2,2 0 0 1 -2.449492,-1.4142 2,2 0 0 1 1.414215,-2.4495 l -1.035277,-3.8637 -1.931842,0.5176 a 2,2 0 0 1 -1.414216,2.4495 2,2 0 0 1 -2.449493,-1.4142 l -1.931867,0.5177 a 2,2 0 0 1 -1.414216,2.4495 2,2 0 0 1 -2.449468,-1.4143 l -1.931868,0.5177 a 2,2 0 0 1 -1.414216,2.4495 2,2 0 0 1 -2.449492,-1.4142 l -1.931843,0.5176 a 2,2 0 0 1 -1.414216,2.4495 2,2 0 0 1 -2.449494,-1.4142 l -1.931841,0.5176 a 2,2 0 0 1 -1.414216,2.4495 2,2 0 0 1 -2.449494,-1.4142 l -1.931842,0.5176 a 2,2 0 0 1 -1.414216,2.4495 2,2 0 0 1 -2.449494,-1.4142 l -1.9318407,0.5176 a 2,2 0 0 1 -1.4142165,2.4495 2,2 0 0 1 -2.4494936,-1.4142 z"
         id="rect900"
         inkscape:connector-curvature="0" />
      <rect
         style="opacity:1;fill:url(#linearGradient979);fill-opacity:1.0;stroke:none;stroke-width:2;stroke-linecap:round;stroke-linejoin:round;stroke-miterlimit:4;stroke-dasharray:none;stroke-opacity:1;paint-order:stroke fill markers"
         id="rect909"
         width="36"
         height="44"
         x="-329.76678"
         y="1265.168"
         transform="rotate(-15)" />
      <rect
         transform="rotate(-15)"
         y="1265.168"
         x="-329.76678"
         height="44"
         width="36"
         id="rect1051"
         style="opacity:0.25;fill:none;fill-opacity:1;stroke:#000000;stroke-width:2;stroke-linecap:round;stroke-linejoin:round;stroke-miterlimit:4;stroke-dasharray:none;stroke-opacity:1;paint-order:normal"
         clip-path="url(#clipPath1055)" />
      <g
         id="g1016"
         style="fill:#000000;fill-opacity:1;stroke:none;stroke-opacity:0.25;stroke-width:2;stroke-miterlimit:4;stroke-dasharray:none;paint-order:normal;stroke-linejoin:round;stroke-linecap:round;opacity:0.125">
        <path
           id="path989"
           transform="translate(0,1292)"
           d="M 20 28 C 11.163444 28 4 35.163444 4 44 C 4 52.836556 11.163444 60 20 60 C 28.836556 60 36 52.836556 36 44 C 36 35.163444 28.836556 28 20 28 z M 20 32 A 12 12 0 0 1 32 44 A 12 12 0 0 1 20 56 A 12 12 0 0 1 8 44 A 12 12 0 0 1 20 32 z "
           style="opacity:1;fill:#000000;fill-opacity:1;stroke:none;stroke-width:2;stroke-linecap:round;stroke-linejoin:round;stroke-miterlimit:4;stroke-dasharray:none;stroke-opacity:0.25;paint-order:normal" />
        <path
           transform="translate(4,1048.0001)"
           clip-path="none"
           style="opacity:1;fill:#000000;fill-opacity:1;stroke:none;stroke-width:2;stroke-linecap:round;stroke-linejoin:round;stroke-miterlimit:4;stroke-dasharray:none;stroke-opacity:0.25;paint-order:normal"
           d="m 12,279.99998 a 4,3.9999948 0 0 0 -4,4 4,3.9999948 0 0 0 4,4 3.9999895,3.9999895 0 0 1 3.003906,-3.87109 4.9999962,4.9999895 0 0 1 -0.0039,-0.12891 4.9999962,4.9999895 0 0 1 0.4375,-2.03711 4,3.9999948 0 0 0 -3.4375,-1.96289 z m 8,0 a 4,3.9999948 0 0 0 -4,4 3.9999895,3.9999895 0 0 1 3.871094,3.00391 4.9999962,4.9999895 0 0 1 0.128906,-0.004 4.9999962,4.9999895 0 0 1 2.037109,0.4375 4,3.9999948 0 0 0 1.962891,-3.4375 4,3.9999948 0 0 0 -4,-4 z m -4,5 a 2.9999895,2.9999895 0 0 0 -3,3 2.9999895,2.9999895 0 0 0 3,3 2.9999895,2.9999895 0 0 0 3,-3 2.9999895,2.9999895 0 0 0 -3,-3 z m 4,3 a 3.9999895,3.9999895 0 0 1 -3.003906,3.87109 4.9999962,4.9999895 0 0 1 0.0039,0.12891 4.9999962,4.9999895 0 0 1 -0.4375,2.03711 4,3.9999948 0 0 0 3.4375,1.96289 4,3.9999948 0 0 0 4,-4 4,3.9999948 0 0 0 -4,-4 z m -10.037109,0.5625 A 4,3.9999948 0 0 0 8,291.99998 a 4,3.9999948 0 0 0 4,4 4,3.9999948 0 0 0 4,-4 3.9999895,3.9999895 0 0 1 -3.871094,-3.00391 4.9999962,4.9999895 0 0 1 -0.128906,0.004 4.9999962,4.9999895 0 0 1 -2.037109,-0.4375 z"
           id="path879"
           inkscape:connector-curvature="0" />
        <path
           style="opacity:1;fill:#000000;fill-opacity:1;stroke:none;stroke-width:2;stroke-linecap:butt;stroke-linejoin:miter;stroke-miterlimit:4;stroke-dasharray:none;stroke-opacity:1;paint-order:stroke fill markers"
           d="m 16,1328.0001 a 4,3.9999948 0 0 0 -4,4 4,3.9999948 0 0 0 4,4 3.9999895,3.9999895 0 0 1 3.003906,-3.8711 4.9999962,4.9999895 0 0 1 -0.0039,-0.1289 4.9999962,4.9999895 0 0 1 0.4375,-2.0371 4,3.9999948 0 0 0 -3.4375,-1.9629 z m 8,0 a 4,3.9999948 0 0 0 -4,4 3.9999895,3.9999895 0 0 1 3.871094,3.0039 A 4.9999962,4.9999895 0 0 1 24,1335 4.9999962,4.9999895 0 0 1 26.037109,1335.4375 4,3.9999948 0 0 0 28,1332 a 4,3.9999948 0 0 0 -4,-4 z m -4,5 a 2.9999895,2.9999895 0 0 0 -3,3 2.9999895,2.9999895 0 0 0 3,3 2.9999895,2.9999895 0 0 0 3,-3 2.9999895,2.9999895 0 0 0 -3,-3 z m 4,3 a 3.9999895,3.9999895 0 0 1 -3.003906,3.8711 4.9999962,4.9999895 0 0 1 0.0039,0.1289 4.9999962,4.9999895 0 0 1 -0.4375,2.0371 4,3.9999948 0 0 0 3.4375,1.9629 4,3.9999948 0 0 0 4,-4 4,3.9999948 0 0 0 -4,-4 z m -10.037109,0.5625 A 4,3.9999948 0 0 0 12,1340.0001 a 4,3.9999948 0 0 0 4,4 4,3.9999948 0 0 0 4,-4 3.9999895,3.9999895 0 0 1 -3.871094,-3.0039 4.9999962,4.9999895 0 0 1 -0.128906,0 4.9999962,4.9999895 0 0 1 -2.037109,-0.4375 z"
           id="path885"
           inkscape:connector-curvature="0" />
      </g>
      <g
         style="opacity:0.125;fill:none;fill-opacity:1;stroke:#000000;stroke-width:2;stroke-linecap:round;stroke-linejoin:round;stroke-miterlimit:4;stroke-dasharray:none;stroke-opacity:1;paint-order:normal"
         id="g1031"
         clip-path="url(#clipPath1041)">
        <path
           style="opacity:1;fill:none;fill-opacity:1;stroke:#000000;stroke-width:2;stroke-linecap:round;stroke-linejoin:round;stroke-miterlimit:4;stroke-dasharray:none;stroke-opacity:1;paint-order:normal"
           d="M 20,28 C 11.163444,28 4,35.163444 4,44 4,52.836556 11.163444,60 20,60 28.836556,60 36,52.836556 36,44 36,35.163444 28.836556,28 20,28 Z m 0,4 A 12,12 0 0 1 32,44 12,12 0 0 1 20,56 12,12 0 0 1 8,44 12,12 0 0 1 20,32 Z"
           transform="translate(0,1292)"
           id="path1025"
           inkscape:connector-curvature="0" />
        <path
           inkscape:connector-curvature="0"
           id="path1027"
           d="m 12,279.99998 a 4,3.9999948 0 0 0 -4,4 4,3.9999948 0 0 0 4,4 3.9999895,3.9999895 0 0 1 3.003906,-3.87109 4.9999962,4.9999895 0 0 1 -0.0039,-0.12891 4.9999962,4.9999895 0 0 1 0.4375,-2.03711 4,3.9999948 0 0 0 -3.4375,-1.96289 z m 8,0 a 4,3.9999948 0 0 0 -4,4 3.9999895,3.9999895 0 0 1 3.871094,3.00391 4.9999962,4.9999895 0 0 1 0.128906,-0.004 4.9999962,4.9999895 0 0 1 2.037109,0.4375 4,3.9999948 0 0 0 1.962891,-3.4375 4,3.9999948 0 0 0 -4,-4 z m -4,5 a 2.9999895,2.9999895 0 0 0 -3,3 2.9999895,2.9999895 0 0 0 3,3 2.9999895,2.9999895 0 0 0 3,-3 2.9999895,2.9999895 0 0 0 -3,-3 z m 4,3 a 3.9999895,3.9999895 0 0 1 -3.003906,3.87109 4.9999962,4.9999895 0 0 1 0.0039,0.12891 4.9999962,4.9999895 0 0 1 -0.4375,2.03711 4,3.9999948 0 0 0 3.4375,1.96289 4,3.9999948 0 0 0 4,-4 4,3.9999948 0 0 0 -4,-4 z m -10.037109,0.5625 A 4,3.9999948 0 0 0 8,291.99998 a 4,3.9999948 0 0 0 4,4 4,3.9999948 0 0 0 4,-4 3.9999895,3.9999895 0 0 1 -3.871094,-3.00391 4.9999962,4.9999895 0 0 1 -0.128906,0.004 4.9999962,4.9999895 0 0 1 -2.037109,-0.4375 z"
           style="opacity:1;fill:none;fill-opacity:1;stroke:#000000;stroke-width:2;stroke-linecap:round;stroke-linejoin:round;stroke-miterlimit:4;stroke-dasharray:none;stroke-opacity:1;paint-order:normal"
           clip-path="none"
           transform="translate(4,1048.0001)" />
        <path
           inkscape:connector-curvature="0"
           id="path1029"
           d="m 16,1328.0001 a 4,3.9999948 0 0 0 -4,4 4,3.9999948 0 0 0 4,4 3.9999895,3.9999895 0 0 1 3.003906,-3.8711 4.9999962,4.9999895 0 0 1 -0.0039,-0.1289 4.9999962,4.9999895 0 0 1 0.4375,-2.0371 4,3.9999948 0 0 0 -3.4375,-1.9629 z m 8,0 a 4,3.9999948 0 0 0 -4,4 3.9999895,3.9999895 0 0 1 3.871094,3.0039 A 4.9999962,4.9999895 0 0 1 24,1335 4.9999962,4.9999895 0 0 1 26.037109,1335.4375 4,3.9999948 0 0 0 28,1332 a 4,3.9999948 0 0 0 -4,-4 z m -4,5 a 2.9999895,2.9999895 0 0 0 -3,3 2.9999895,2.9999895 0 0 0 3,3 2.9999895,2.9999895 0 0 0 3,-3 2.9999895,2.9999895 0 0 0 -3,-3 z m 4,3 a 3.9999895,3.9999895 0 0 1 -3.003906,3.8711 4.9999962,4.9999895 0 0 1 0.0039,0.1289 4.9999962,4.9999895 0 0 1 -0.4375,2.0371 4,3.9999948 0 0 0 3.4375,1.9629 4,3.9999948 0 0 0 4,-4 4,3.9999948 0 0 0 -4,-4 z m -10.037109,0.5625 A 4,3.9999948 0 0 0 12,1340.0001 a 4,3.9999948 0 0 0 4,4 4,3.9999948 0 0 0 4,-4 3.9999895,3.9999895 0 0 1 -3.871094,-3.0039 4.9999962,4.9999895 0 0 1 -0.128906,0 4.9999962,4.9999895 0 0 1 -2.037109,-0.4375 z"
           style="opacity:1;fill:none;fill-opacity:1;stroke:#000000;stroke-width:2;stroke-linecap:butt;stroke-linejoin:miter;stroke-miterlimit:4;stroke-dasharray:none;stroke-opacity:1;paint-order:stroke fill markers" />
      </g>
    </g>
  </g>
</svg>
